<?xml version="1.0" encoding="utf-8"?>
<!-- Generator: Adobe Illustrator 24.0.1, SVG Export Plug-In . SVG Version: 6.00 Build 0)  -->
<svg version="1.1" id="Layer_1" xmlns="http://www.w3.org/2000/svg" xmlns:xlink="http://www.w3.org/1999/xlink" x="0px" y="0px"
	 viewBox="0 0 211.6 34.6" style="enable-background:new 0 0 211.6 34.6;" xml:space="preserve">
<style type="text/css">
	.st0{fill:#DC143C;}
	.st1{fill-rule:evenodd;clip-rule:evenodd;fill:#DC143C;}
	.st2{fill:none;stroke:#DC143C;stroke-width:0.5;stroke-miterlimit:2.6131;}
</style>
<g>
	<path class="st0" d="M190,19.6l0.2-1.7l1.7,0.3l-0.2,1.7L190,19.6z M190.9,16.7l0.5-6.3l0.4-2.6l1.8,0.3l-0.4,2.6l-1.4,6.2
		L190.9,16.7z M183.8,17.4l0,1.3c-0.4,0-0.8,0-1.1,0c-0.5-0.1-0.9-0.2-1.2-0.4c-0.3-0.2-0.4-0.5-0.5-0.7c-0.1-0.3-0.1-0.9,0.1-1.7
		l0.7-5l-1.1-0.2l0.2-1.1l1.1,0.2l0.3-2.1l1.6-0.7l-0.4,3l1.5,0.2l-0.2,1.1l-1.5-0.2l-0.7,5c-0.1,0.4-0.1,0.7,0,0.8
		c0,0.1,0.1,0.2,0.2,0.3c0.1,0.1,0.3,0.1,0.5,0.2C183.3,17.4,183.5,17.4,183.8,17.4z M171.9,14.4l1.5,0c0,0.6,0.2,1.1,0.5,1.4
		c0.3,0.4,0.8,0.6,1.5,0.7c0.7,0.1,1.2,0,1.6-0.2c0.4-0.2,0.6-0.5,0.6-0.9c0-0.3-0.1-0.6-0.3-0.8c-0.2-0.2-0.7-0.4-1.4-0.7
		c-1-0.4-1.7-0.7-2.1-1c-0.4-0.3-0.7-0.6-0.8-0.9c-0.2-0.4-0.2-0.8-0.2-1.2c0.1-0.4,0.2-0.7,0.4-1c0.2-0.3,0.5-0.5,0.8-0.7
		c0.2-0.1,0.6-0.2,1-0.3c0.4-0.1,0.8-0.1,1.3,0c0.7,0.1,1.3,0.3,1.7,0.5c0.5,0.3,0.8,0.6,1,0.9c0.2,0.4,0.3,0.8,0.3,1.4l-1.5,0
		c0-0.5-0.1-0.8-0.4-1.1c-0.3-0.3-0.7-0.5-1.3-0.6c-0.7-0.1-1.2,0-1.5,0.1c-0.3,0.2-0.5,0.4-0.5,0.7c0,0.2,0,0.4,0.1,0.5
		c0.1,0.2,0.3,0.3,0.5,0.5c0.1,0.1,0.5,0.3,1.2,0.6c1,0.4,1.7,0.7,2.1,1c0.4,0.2,0.7,0.5,0.9,0.9c0.2,0.4,0.2,0.8,0.2,1.3
		c-0.1,0.5-0.3,0.9-0.6,1.3c-0.3,0.4-0.8,0.7-1.4,0.8c-0.6,0.2-1.2,0.2-1.9,0.1c-1.1-0.2-1.9-0.5-2.5-1
		C172.2,16.1,172,15.4,171.9,14.4z M164.7,10.9l4.8,0.6c0-0.7-0.1-1.3-0.3-1.7c-0.4-0.6-1-1-1.7-1.1c-0.7-0.1-1.3,0.1-1.8,0.5
		C165.1,9.6,164.8,10.2,164.7,10.9z M169.1,13.9l1.5,0.4c-0.3,0.8-0.9,1.5-1.6,1.9c-0.7,0.4-1.6,0.5-2.6,0.4
		c-1.3-0.2-2.2-0.7-2.8-1.5c-0.6-0.9-0.9-2-0.7-3.4c0.2-1.4,0.7-2.5,1.5-3.2c0.8-0.7,1.9-1,3-0.8c1.1,0.1,2,0.7,2.7,1.5
		c0.6,0.9,0.9,2,0.7,3.4c0,0.1,0,0.2-0.1,0.4l-6.4-0.8c-0.1,1,0.1,1.7,0.5,2.3c0.4,0.6,1,0.9,1.7,1c0.5,0.1,1,0,1.4-0.3
		C168.5,14.9,168.8,14.4,169.1,13.9z M153.7,13.4l3,0.3c0.5,0.1,0.9,0.1,1.1,0.1c0.4,0,0.7-0.1,0.9-0.2c0.3-0.1,0.5-0.3,0.7-0.6
		c0.2-0.3,0.3-0.6,0.3-1c0-0.4,0-0.8-0.2-1.2c-0.2-0.4-0.5-0.6-0.9-0.8c-0.4-0.2-1-0.3-1.7-0.4l-2.8-0.3L153.7,13.4z M154.3,7.9
		l2.6,0.3c0.7,0.1,1.2,0.1,1.5,0c0.4-0.1,0.7-0.2,1-0.5c0.2-0.3,0.4-0.6,0.4-1c0-0.4,0-0.8-0.2-1.1c-0.2-0.3-0.4-0.6-0.7-0.7
		c-0.3-0.1-0.9-0.3-1.8-0.4l-2.4-0.3L154.3,7.9z M151.9,14.7l1.3-11.9l4.5,0.5c0.9,0.1,1.6,0.3,2.2,0.6c0.5,0.3,0.9,0.7,1.2,1.3
		c0.3,0.5,0.4,1.1,0.3,1.6c-0.1,0.5-0.2,1-0.6,1.4c-0.3,0.4-0.8,0.7-1.4,1c0.7,0.3,1.2,0.7,1.5,1.3c0.3,0.5,0.5,1.2,0.4,1.9
		c-0.1,0.6-0.2,1.1-0.5,1.5c-0.3,0.5-0.6,0.8-1,1c-0.4,0.2-0.8,0.4-1.4,0.4c-0.5,0.1-1.2,0.1-1.9,0L151.9,14.7z M139.5,8.2l4.8,0.4
		c0-0.7-0.1-1.3-0.4-1.7c-0.4-0.6-1-0.9-1.7-1c-0.7-0.1-1.3,0.1-1.8,0.5C139.9,6.9,139.6,7.5,139.5,8.2z M144.1,11l1.5,0.3
		c-0.3,0.9-0.8,1.5-1.5,1.9c-0.7,0.4-1.5,0.6-2.5,0.5c-1.3-0.1-2.2-0.6-2.9-1.4c-0.7-0.8-0.9-2-0.8-3.4c0.1-1.5,0.6-2.5,1.4-3.3
		c0.8-0.7,1.8-1.1,3-0.9c1.2,0.1,2.1,0.6,2.7,1.4c0.7,0.9,0.9,2,0.8,3.4c0,0.1,0,0.2,0,0.4l-6.4-0.6c0,1,0.2,1.7,0.6,2.2
		c0.4,0.5,1,0.9,1.7,0.9c0.5,0,1-0.1,1.4-0.3C143.5,12,143.8,11.6,144.1,11z M128.6,12.6l0.9-12l1.5,0.1L130.7,5
		c0.7-0.7,1.6-1.1,2.7-1c0.6,0,1.2,0.2,1.6,0.5c0.5,0.3,0.8,0.7,0.9,1.1c0.2,0.5,0.2,1.1,0.2,2l-0.4,5.5l-1.5-0.1l0.4-5.5
		c0.1-0.7-0.1-1.3-0.4-1.6c-0.3-0.4-0.7-0.6-1.3-0.6c-0.4,0-0.8,0-1.2,0.2c-0.4,0.2-0.7,0.5-0.9,0.9c-0.2,0.4-0.3,0.9-0.4,1.6
		l-0.4,4.7L128.6,12.6z M121.7,12.2l0.6-10.6l-3.9-0.2l0.1-1.4l9.5,0.5l-0.1,1.4l-3.9-0.2l-0.6,10.6L121.7,12.2z M106,6.5l4.8,0.1
		c0-0.7-0.2-1.3-0.5-1.7c-0.5-0.6-1.1-0.9-1.8-0.9c-0.7,0-1.2,0.2-1.7,0.6C106.3,5.1,106,5.7,106,6.5z M110.8,8.9l1.5,0.2
		c-0.3,0.9-0.7,1.6-1.4,2c-0.7,0.5-1.5,0.7-2.5,0.7c-1.3,0-2.3-0.4-3-1.2c-0.7-0.8-1.1-1.9-1-3.3c0-1.5,0.4-2.6,1.2-3.4
		c0.8-0.8,1.7-1.2,2.9-1.2c1.2,0,2.1,0.4,2.8,1.2c0.7,0.8,1.1,1.9,1,3.4c0,0.1,0,0.2,0,0.4l-6.5-0.1c0,1,0.3,1.7,0.8,2.2
		c0.5,0.5,1.1,0.8,1.8,0.8c0.5,0,1-0.1,1.4-0.4C110.2,10,110.5,9.5,110.8,8.9z M98.8,11.6l-3.2-8.7l1.6,0l1.8,5.2
		c0.2,0.6,0.4,1.1,0.6,1.8c0.1-0.5,0.3-1,0.6-1.6l1.9-5.3l1.5,0l-3.3,8.7L98.8,11.6z M87.9,7.5c0,1.1,0.3,1.9,0.8,2.5
		c0.5,0.5,1.1,0.8,1.9,0.8c0.7,0,1.3-0.3,1.8-0.9c0.5-0.6,0.7-1.4,0.7-2.6c0-1.1-0.3-1.9-0.8-2.4c-0.5-0.5-1.1-0.8-1.8-0.8
		c-0.7,0-1.3,0.3-1.8,0.9C88.1,5.5,87.9,6.4,87.9,7.5z M86.4,7.5c0-1.6,0.4-2.8,1.2-3.6c0.7-0.7,1.6-1,2.7-1c1.2,0,2.2,0.3,3,1.1
		c0.8,0.8,1.2,1.8,1.2,3.2c0,1.1-0.1,2-0.4,2.6c-0.3,0.6-0.8,1.2-1.4,1.5c-0.6,0.4-1.3,0.6-2.1,0.6c-1.2,0-2.2-0.3-3-1.1
		C86.9,10.1,86.5,9,86.4,7.5z M78.9,7.8c0,1,0.2,1.8,0.5,2.2c0.5,0.7,1.1,1.1,1.9,1c0.6,0,1.2-0.3,1.6-0.9c0.4-0.6,0.6-1.4,0.6-2.5
		c-0.1-1.1-0.3-2-0.8-2.5c-0.5-0.5-1-0.8-1.7-0.7c-0.6,0-1.2,0.3-1.6,0.9C79.1,5.9,78.9,6.7,78.9,7.8z M79.1,12.2l-1.4,0.1l-0.6-12
		l1.5-0.1l0.2,4.3c0.6-0.8,1.4-1.2,2.3-1.3c0.5,0,1,0.1,1.5,0.2c0.5,0.2,0.9,0.5,1.2,0.9c0.3,0.4,0.6,0.8,0.8,1.4
		c0.2,0.5,0.3,1.1,0.3,1.7c0.1,1.5-0.2,2.6-0.9,3.5c-0.7,0.8-1.6,1.3-2.6,1.3c-1,0-1.8-0.3-2.5-1.2L79.1,12.2z M68.6,8.1l4.1-0.3
		l-1.5-3.2c-0.5-1-0.8-1.8-1.1-2.4c-0.1,0.8-0.3,1.6-0.5,2.4L68.6,8.1z M65.5,13.2l3.6-12.3l1.7-0.1l5.9,11.5l-1.8,0.1L73.2,9
		l-5,0.4l-1,3.7L65.5,13.2z M61.3,12.3l0.4,1.3c-0.4,0.1-0.8,0.2-1.1,0.3c-0.5,0.1-0.9,0-1.3-0.1c-0.3-0.1-0.5-0.3-0.7-0.6
		c-0.2-0.3-0.3-0.8-0.4-1.7l-0.6-5l-1.1,0.1l-0.1-1.1l1.1-0.1l-0.3-2.1l1.4-1.1l0.4,3L60.4,5l0.1,1.1l-1.5,0.2l0.6,5
		c0.1,0.4,0.1,0.7,0.2,0.8c0.1,0.1,0.2,0.2,0.3,0.3c0.1,0.1,0.3,0.1,0.5,0C60.9,12.4,61.1,12.4,61.3,12.3z M54.7,14.5l-0.2-1.3
		C54,14.3,53.2,14.9,52,15c-0.5,0.1-1,0-1.5-0.1c-0.5-0.1-0.8-0.3-1.1-0.6c-0.3-0.3-0.5-0.6-0.6-1c-0.1-0.3-0.2-0.7-0.3-1.3
		l-0.8-5.3l1.5-0.2l0.7,4.8c0.1,0.8,0.2,1.3,0.3,1.5c0.1,0.4,0.4,0.6,0.7,0.8c0.3,0.2,0.7,0.2,1.1,0.2c0.4-0.1,0.8-0.2,1.2-0.5
		c0.3-0.3,0.6-0.6,0.7-1c0.1-0.4,0.1-1,0-1.7l-0.7-4.6l1.5-0.2l1.2,8.6L54.7,14.5z M45.1,11.6l1.6,0.1c-0.1,1.3-0.6,2.4-1.3,3.2
		c-0.7,0.8-1.7,1.3-3,1.5c-1.3,0.2-2.4,0.1-3.2-0.3c-0.9-0.4-1.6-1-2.2-2c-0.6-0.9-0.9-1.9-1.1-3.1c-0.2-1.2-0.1-2.3,0.2-3.3
		c0.3-1,0.9-1.8,1.7-2.4c0.8-0.6,1.7-1,2.8-1.2c1.2-0.2,2.2,0,3.1,0.4c0.9,0.5,1.6,1.2,2.1,2.3l-1.5,0.6c-0.4-0.8-0.9-1.4-1.5-1.7
		c-0.6-0.3-1.3-0.4-2.1-0.3c-0.9,0.1-1.6,0.5-2.2,1c-0.5,0.5-0.9,1.2-1,2c-0.1,0.8-0.1,1.6,0,2.3c0.2,1,0.4,1.9,0.9,2.6
		c0.4,0.7,1,1.2,1.6,1.5c0.7,0.3,1.4,0.4,2.1,0.2c0.9-0.1,1.6-0.5,2.1-1.1C44.8,13.5,45.1,12.6,45.1,11.6z M23.8,14.8l4-0.8L26,11
		c-0.6-0.9-1-1.7-1.3-2.3c0,0.8-0.1,1.6-0.2,2.4L23.8,14.8z M21.4,20.3l2.1-12.7l1.7-0.3l7.2,10.8l-1.8,0.4l-2.1-3.3l-4.9,1L23.1,20
		L21.4,20.3z"/>
	<path class="st1" d="M0.3,34c76.2-21.8,131.8-15.6,211.1-3l0,0.4c-79.7-8.6-134.9-11.2-211,3L0.3,34z"/>
	<path class="st2" d="M0.3,34c76.2-21.8,131.8-15.6,211.1-3l0,0.4c-79.7-8.6-134.9-11.2-211,3L0.3,34z"/>
</g>
</svg>
