<?xml version="1.0" encoding="utf-8"?>
<!-- Generator: Adobe Illustrator 24.0.1, SVG Export Plug-In . SVG Version: 6.00 Build 0)  -->
<svg version="1.1" id="Layer_1" xmlns="http://www.w3.org/2000/svg" xmlns:xlink="http://www.w3.org/1999/xlink" x="0px" y="0px"
	 viewBox="0 0 354.6 240.9" style="enable-background:new 0 0 354.6 240.9;" xml:space="preserve">
<style type="text/css">
	.st0{display:none;}
	.st1{fill:#020202;stroke:#FFFFFF;stroke-miterlimit:10;}
	.st2{fill:#FFFFFF;}
</style>
<path class="st0" d="M274.5,94.9"/>
<g>
	<path class="st1" d="M90.7,32.3c-0.3,0.1-0.5,0.2-0.8,0.3c-1.6,0.7-3.1,1.3-4.6,1.9c-2.3-0.1-4-0.7-6-1.2
		c8.2-1.4,20.8-4.7,20.7-17.7c-4.6,3.2-11.3,0.8-16.8,3.2c-4.3,1.8-3.1,5.5-7.5,5.9c3.7-5.6,3.7-5,4.7-9.1
		c1.2-4.8,0.3-12.6-4.8-14.8c1.7,6,0.6,16.5-7.1,19.1c-5.6-2.6-14.4-4.1-20.4-3.5c-6.3,0.6-13.8,3.5-17.2,8.4
		c-8-0.2-9.1-10.3-9.5-15.6c-5.2,3.5-5.2,12.6-3.1,16.9c2.6,5.3,4.3,4.9,9.7,8.1c-4.8,1.2-8-3.1-13.2-2c-4.8,1-9,3.4-13.6,5.1
		c8.3,4.3,13,13.9,23.5,7.2c2.4,12.7,2.3,28.9-8.9,39c-2.2,2.9,0.5,16,10.5,14.7c1.4,6.4,9.4,2.7,14.7,0.2c3.2-1.4,6.3-2.7,9.4-4.1
		l0,0c1.9-0.8,3.8-1.7,5.8-2.8c0.6-0.3,1.2-0.6,1.7-0.8c0.8-0.2,1.7-0.3,2.7-0.3c2.3,0,4.8,0.7,7.3,2.1c0.6,0.4,1.3,0.8,1.9,1.2
		C80.8,84.9,95.3,66.1,90.7,32.3z"/>
	<path class="st1" d="M135.8,9.4c-0.1,0-0.2,0-0.3,0.1c-1.6,0.4-3,0.9-4.4,1.5c-2.8,1.2-5.4,2.6-7.8,3.9c-1.2,0.7-2.4,1.3-3.6,1.9
		c-0.6,0.3-1.2,0.6-1.8,0.9c-0.6,0.3-1.2,0.7-1.8,1c-4.6,2.6-8.7,5.4-12.3,7.9c-0.5,0.3-0.9,0.6-1.4,1c-2.8,1.2-7,2.9-11.7,4.8
		C95.3,66.1,80.7,84.9,70,94c4.3,3.1,8.2,7.9,11.7,13.6c1.2,1.9,2.3,4,3.5,6.2c20.2-0.7,75.3-4.9,75.3-4.9
		C164.9,70.3,141.6,20.9,135.8,9.4z"/>
	<path class="st1" d="M137.6,110.5c-17.6,1.2-40.8,2.8-52.4,3.2c0.8,1.5,1.7,3,2.6,4.6c1.1,1.9,0.8-0.5,1.1,1.9
		c1,6.2,11.7,20.1,11.7,20.2c10.6,10.4,24.5,11.5,24.6,11.5l0,0c-0.1-0.2-0.1-0.3,0,0c0.9,1.9,1.8,3.7,2.7,5.4
		c0.9,1.6,1.7,3.1,2.5,4.5c0,0.4,0,0.8,0,1.2C137.9,154.7,137.9,121.6,137.6,110.5z"/>
	<path class="st1" d="M327.4,101.5c1.5-4.9,3.1-10.1,4.1-15.8c1-5.7,1.4-11.8,1.3-18.1c-0.2-6.3-0.9-12.9-2.7-19.4
		c-0.6-2.1-1.2-4.2-2-6.3c0.2,0.2,0.4,0.3,0.6,0.5c2,1.7,4,3.8,5.8,6.5s3.3,5.9,4.2,9.5c0.9,3.6,2.6,10.1,2.5,14.4
		c-0.4,8.5-2.8,17-5.3,26.8c-2.5,9.7-6.1,17.6-7,26.4c-0.5,4.4-0.6,8.7-0.4,12.6c0.3,4,1,7.6,2.1,10.8c1.4,4.2,2,8.3,3.9,10.9
		c-0.7,0.3,0,0-0.5,0.9c-0.8,1.3-0.9,3.1-0.5,4.8c0.8,3.5,3.2,7,6.4,10.2c1.3,1.3,7.2,5.5,14.1,6.8c0.6,0.2-4.8-3.7-6.4-7.6
		c3.2,2.7,4.9,2.2,5,2.3c-0.1-0.2-1.3-7-1.4-7.2c-1-3.4-2.5-6.4-4.2-8.6c-3.3-4.2-7.5-3.2-7.8-3.3c-0.1-0.2,0.1,0.3-0.1-0.2
		c-1.2-3.9-3.4-11.7-3.7-13.3c-1.3-8-0.6-13.5-0.1-17.6s2.3-11.3,3.4-15.8c2.3-9,4.5-13.9,7.3-24.5c0.7-2.7,5.5-16.9,1.1-30.5
		c-3-9.2-9-16.1-14.6-20.6c-3.9-3.1-7.7-5.2-11-6.5c-1.8-2.4-3.7-4.6-5.9-6.5c-2.4-2-5.1-3.6-7.8-4.8c-5.4-2.4-11-3.4-16.2-3.7
		s-10,0.1-14.3,0.8c-4.7,0.8-8.9,1.9-12.4,3c-6.3,20.8-26.8,105.2,57.2,100.6c0.3-1.3,0.6-2.7,1-4
		C324.4,110.9,325.8,106.4,327.4,101.5z"/>
	<path class="st1" d="M256.1,161.4v0.1c0,0.3,0,0.6,0,0.9C256,163.1,256.1,160.8,256.1,161.4z"/>
	<path class="st1" d="M184.9,11.2h-1.2h-2.4c-0.8,0-1.7,0-2.6,0.1c-3.4,0.2-6.8,0.9-10.1,1.5s-6.6,1.1-9.6,1c-0.8,0-1.5-0.1-2.3-0.2
		c-0.7-0.1-1.4-0.3-2.2-0.5c-1.5-0.4-2.9-1-4.4-1.6s-3-1.2-4.6-1.7s-3.3-0.8-5-0.9c-0.8,0-1.7,0-2.5,0.1c-0.7,0.1-1.5,0.2-2.2,0.4
		c5.7,11.4,28.5,59.6,24.9,98c6.4,0,15.4-0.4,26.4-1.9C189.5,93.6,198.8,42.5,184.9,11.2z"/>
	<path class="st1" d="M265,18.5c-0.2,0.1-0.4,0.1-0.6,0.2c-1.3-0.3-3.1-0.8-5.4-1.2c-4.9-1-12.1-1.8-21-2.4
		c-4.4-0.4-9.3-0.7-14.5-1.3c-1.7-0.2-3.5-0.4-5.3-0.7c2.4,15.5,9,61.9,5.5,83.4c11.5-3.9,23.8-9.2,36.3-16.4
		C254.8,56.6,261.8,29.2,265,18.5z"/>
	<path class="st1" d="M218.4,13c-0.9-0.1-1.8-0.3-2.7-0.4c-2.7-0.5-5.7-0.9-8.6-1.2c-6-0.5-12.2-0.4-18.6-0.3h-3.6
		c14,31.3,4.6,82.4,2.2,94.2c10.7-1.6,23.2-4.3,36.8-8.9C227.3,74.9,220.8,28.6,218.4,13z"/>
	<path class="st1" d="M310.1,177.5l-0.6,9.2c-0.1,1.6-0.2,3.2-0.2,4.9c0,1.6-0.1,3.2-0.3,4.8c-1.4,13.2-5.2,24.9-9.7,32.3
		c-0.4,0.7-0.9,1.4-1.3,2c-0.1,0.2-0.2,0.5-0.3,0.7c-0.4,1.8-0.9,3.7-1.4,5.5c2,1.3,4.7,2.5,7.7,3c4.2,0.8,8.3,0.2,11-0.9
		c-0.1,0.2-0.1,0.3-0.2,0.4c0.2-0.1,1.8-2.1,1.9-2.5c-0.1,0-0.2,0.1-0.4,0.1c0.2-0.4,0.3-0.8,0.5-1.2c0-0.2,0.1-0.4,0.1-0.6
		c0-2.1,0.3-4,0.9-5.8v-0.1l0,0c0.2-0.4,0.3-0.9,0.5-1.3c0-0.1,3.1-10.4,3.1-10.5c0.2-1.6,0.3-3.2,0.4-4.9c0-0.9,0-1.7,0-2.6
		c0-0.9,0-1.7,0-2.6c0-6.9,0.9-14.5,1.8-22.6l0.3-3c0.1-0.9,0.2-1.9,0.4-2.8c0.3-1.9,0.8-3.7,1.3-5.6c0.9-3.7,1.9-7.3,2.5-10.9
		c0.3-1.8,0.5,0,0.5-1.8c0,0,0.7-1.1,0.2-2.6c-0.2-0.5-0.5-1.4-0.9-2.5c-5.3,11.9-13,11.1-17.9,9
		C310.4,168.5,310.4,172.8,310.1,177.5z"/>
	<path class="st1" d="M296.4,149.5c2.3,2.4,4.6,4.4,6.7,6.4c2.1,1.9,4,3.8,5.6,5.6c0.5,0.5,1,1.1,1.4,1.6c0,0.5,0.1,1,0.1,1.6
		c4.9,2.1,12.6,2.9,17.9-9c-2.1-5.3-6.6-16-7.3-17.5c-0.1-0.9-0.2-1.9-0.3-3.1c-0.1-2.4,0-5.3,0.4-8.7c0.3-2.2,0.8-4.7,1.4-7.3
		c-20.5,1.1-34.7-3-44.5-10.3c0.6,6.3,2.5,16,7.6,28.3c0-0.1,0-0.1,0-0.2C289.1,141.5,292.8,145.7,296.4,149.5z"/>
	<path class="st1" d="M252.4,143.7c1.2,3.4,2.5,7.3,3.2,11.8c0.3,1.9,0.5,4,0.5,6.1c0-0.1,0-0.1,0-0.1c0.1-0.6-0.1,1.7,0,1.1
		c0-0.3,0-0.6,0-0.9c-0.1,0.7-0.3,3.4-0.3,3.7l-0.1,0.4l-0.1,0.4c0,0.1,0,0.1-0.1,0.2l-0.2,0.2l-2.3,4.6
		c-7.6,14.2-18.5,29.2-21.7,34.7c-1.7,2.9-3.4,6-4.9,9.2c-0.8,1.6-1.5,3.3-2.1,5c-0.3,0.9-0.6,1.7-0.9,2.6l-0.2,0.7
		c-0.1,0.2-0.1,0.4-0.3,0.9l-0.7,2.6c0.6,0.3,1.2,0.5,1.8,0.8c0.3,0.1,0.6,0.2,1,0.3l0.7,0.2c0.7,0.2,1.4,0.3,2.2,0.4
		c1.4,0.2,2.9,0.4,4.3,0.5c2.9,0.1,5.8,0,8.9-0.7c0.9-0.2,1.9-0.5,2.8-1c0.1-0.7,0.3-1.5,0.4-2.2c0-0.3,0-0.6,0.1-1
		c0-0.9,0.3-1.7,0.6-2.4v-0.9c0-1,0.2-1.9,0.6-2.6c0.6-3.4,1.2-6.8,2.3-10.1c1.9-5.6,4.9-10.4,8.7-14.9c3.5-4.1,7.6-14.8,11.8-18.2
		c3.1-2.6,6.3-5.2,9.4-7.9c1.6-2.8,2.5-5.7,3.3-8.5c0.8-2.9,1.3-5.7,1.8-8.3c0.9-4.8,1.7-9.2,2.6-13.1c-5.1-12.2-6.9-21.9-7.6-28.2
		c-6.1,10.1-18.7,19-29.5,25.4c0.2,0.3,0.3,0.6,0.5,0.9C249.9,137.4,251.2,140.3,252.4,143.7z"/>
	<path class="st1" d="M221.9,137.7l1.7-0.2c1.2-0.1,2.4-0.2,3.6-0.4c2.4-0.3,4.7-0.6,6.9-1c4.5-0.8,8.9-1.8,12.9-3
		c0.2-0.1,0.4-0.1,0.7-0.2c0.2,0.4,0.4,0.8,0.6,1.3c10.8-6.3,23.3-15.3,29.5-25.4v-0.1c-9.8-7.2-15.1-17.5-17.6-28.7
		c-11.9,6.8-23.5,11.9-34.5,15.7c-1.6,19.5-4.3,33.1-6.9,42.3c0.5-0.1,0.9-0.2,1.4-0.2L221.9,137.7z"/>
	<path class="st1" d="M130.6,166.4c0,1.9-0.1,3.9-0.1,5.9c0,2.3-0.1,4.5-0.1,6.7s0,4.3-0.2,6.4c-0.3,4.2-0.8,8.2-1.4,12.1
		c-1.2,7.7-2.8,14.5-4.6,20.1c-1.7,5.6-3.6,10-5.2,12.9s-2.8,4.3-2.7,4.3c0,0-0.4,0.3-1.1,1.2c-0.1,0.2-0.3,0.5-0.4,0.8
		s-0.1,0.7,0.1,1.1c0.2,0.4,0.6,0.7,1,0.9s0.9,0.3,1.4,0.4c2,0.4,4.6,0.3,7.5,0c0.7-0.1,1.5-0.2,2.2-0.3c0.4-0.1,0.8-0.2,1.2-0.3
		l0.3-0.1c0.1,0,0.2-0.1,0.3-0.1c0.2-0.1,0.4-0.2,0.6-0.3c1.6-0.8,3-2.2,4-3.8c2-3.3,2.9-7.4,3.4-11.6c0.6-4.3,0.7-8.9,1-13.6
		c0.2-2.3,0.6-4.7,0.9-7.1c0.4-2.4,0.9-4.9,1.5-7.4s1.3-5,2.1-7.4c0.4-1.2,0.9-2.5,1.4-3.7l0.4-0.9c0.1-0.3,0.2-0.6,0.4-0.8
		c0.3-0.5,0.6-1.1,1-1.7c0.4-0.7,0.9-1.4,1.3-2.1C141.4,180.1,135.4,173.8,130.6,166.4z"/>
	<path class="st1" d="M163.7,107.3c-1.8,37.4-6,56.8-11.1,65.4c0.7,2.2,1.3,4.7,1.8,7.5c1.3,6.7,2.1,14.8,1.7,23.9
		c-0.2,4.6-0.8,9.3-1.9,14.2c-0.6,2.4-1.3,4.8-2.3,7.2c-0.5,1.2-1.1,2.3-1.7,3.4c-0.3,0.5-0.7,1.1-1,1.6l-0.5,0.6
		c-0.2,0.3-0.4,0.5-0.7,0.8l-1.4,1.6c0.6,0.4,1.3,0.9,1.9,1.3c0.3,0.2,0.7,0.4,1,0.6c0.2,0.1,0.4,0.2,0.6,0.3
		c0.2,0.1,0.4,0.2,0.5,0.2c0.9,0.4,1.9,0.6,2.8,0.7c1.9,0.3,3.8,0.2,5.7-0.2c1-0.2,1.9-0.4,2.8-0.8c0.9-0.4,1.7-0.8,2.6-1.4
		c0.9-0.6,1.8-1.4,2.3-2.5c0.6-1.1,0.8-2.2,0.9-3.1c0.2-1.8,0.2-3.4,0.4-5.1c0.1-1.8,0.1-3.4,0.1-5.1c-0.1-3.3-0.2-6.5-0.1-9.6
		c0-1.5,0.1-3.1,0.4-4.4c0.3-1.4,0.8-2.7,1.4-4.2c0.5-1.4,1.1-2.9,1.4-4.5c0.2-0.8,0.3-1.6,0.3-2.5c0-0.4,0-0.8,0-1.2
		c0-0.2,0-0.4-0.1-0.7c0-0.2-0.1-0.4-0.1-0.6c-0.6-2.9-1.3-5.6-1.9-8.3c-0.6-2.7-1.2-5.3-1.7-7.8c-1-5.1,0.7-14.3,0.3-18.6
		c-0.4-4.4,0.5-9.7,0.8-13.1c0.1-1.6,0.7-0.2,2.3-0.5c3-0.5,6.4-0.8,10.1-0.8c3.7,0,7.6,0.1,11.8,0.2c4.3,0.1,8.8-0.4,13.3-1.1
		c4.1-0.7,8.2-1.5,12.4-2.2c2.6-9.3,5.3-22.9,6.9-42.3C199.5,105.1,177.1,107.1,163.7,107.3z"/>
	<path class="st1" d="M160.7,107.3c0,0.5-0.1,1-0.1,1.5c0,0-9.9,0.8-22.9,1.7c0.2,11.1,0.2,44.2-7,52.3c0,1.2-0.1,2.4-0.1,3.6
		c4.8,7.4,10.8,13.7,16.3,11.7c1-1.6,2-3.1,3-4.7c0.6-1,1.2-2.1,1.8-3.2c0.3,0.8,0.5,1.6,0.8,2.5c5.1-8.6,9.3-28.1,11.1-65.4
		C162.6,107.3,161.6,107.3,160.7,107.3z"/>
	<g>
		<path class="st2" d="M151.2,152.7c-0.2-0.3-0.5-0.7-0.9-1s-0.9-0.6-1.6-0.9c-0.5-0.2-0.9-0.3-1.3-0.3c-0.4,0-0.8,0-1.1,0
			c-0.3,0.1-0.7,0.2-1,0.3s-0.6,0.3-0.8,0.4c-0.2,0.1-0.5,0.3-0.7,0.4c-0.2,0.1-0.4,0.2-0.5,0.3c-0.1,0-0.2,0.1-0.4,0.1
			c-0.1,0-0.3,0.1-0.4,0.1c-0.2,0-0.3,0-0.5,0s-0.4,0-0.5-0.1c-0.2-0.1-0.5-0.2-0.7-0.4s-0.4-0.4-0.5-0.7c-0.1-0.2-0.3-0.5-0.3-0.8
			c-0.1-0.3-0.1-0.5-0.2-0.8c0-0.2,0-0.5,0.1-0.6c0.1-0.2,0.2-0.3,0.3-0.4c0.3-0.1,0.5-0.2,0.7-0.1c0.2,0,0.5,0.1,0.7,0.2
			c0.2,0.1,0.4,0.2,0.6,0.3c0.2,0.1,0.4,0.3,0.5,0.4c0.2,0.1,0.3,0.2,0.4,0.3c0.1,0.1,0.2,0.1,0.2,0.1c0-0.1,0.1-0.1,0.1-0.2
			c0-0.1,0-0.1,0.1-0.2c0-0.1,0-0.1,0-0.2c0-0.3,0-0.5,0-0.6s-0.1-0.2-0.1-0.3c0,0-0.1-0.1-0.3-0.2c-0.2-0.1-0.4-0.3-0.7-0.4
			c-0.3-0.1-0.6-0.2-0.9-0.3c-0.3-0.1-0.7,0-1.1,0.1c-0.9,0.3-1.4,1.2-1.4,2.8c0,0.3,0.1,0.6,0.2,1c0.1,0.4,0.3,0.8,0.6,1.1
			c0.3,0.4,0.6,0.7,1,1s0.9,0.4,1.4,0.5c0.4,0,0.8,0,1.1-0.1c0.4-0.1,0.7-0.2,1-0.3s0.6-0.3,0.9-0.4c0.3-0.2,0.5-0.3,0.8-0.4
			c0.2-0.1,0.5-0.2,0.8-0.3s0.6-0.1,1-0.1c0.3,0,0.7,0,1,0.1s0.7,0.2,1,0.5c1,0.7,1.4,1.4,1.2,2.1c-0.1,0.3-0.2,0.5-0.4,0.6
			s-0.4,0.2-0.7,0.2c-0.2,0-0.5,0-0.7,0s-0.5-0.1-0.6-0.2c-0.1,0-0.1-0.1-0.2-0.1c-0.1-0.1-0.3-0.2-0.4-0.4
			c-0.1,0.1-0.1,0.2-0.1,0.3s0,0.2,0,0.3s0,0.3,0,0.4c0,0.1,0.1,0.2,0.1,0.3s0.1,0.2,0.1,0.3s0.1,0.2,0.2,0.3
			c0.3,0.2,0.6,0.3,0.9,0.3c0.3,0,0.6,0,0.9,0c0.3,0,0.6-0.1,0.9-0.3c0.2-0.1,0.4-0.3,0.6-0.5c0.1-0.2,0.3-0.4,0.3-0.6
			c0.1-0.2,0.1-0.4,0.2-0.6c0-0.2,0-0.4,0-0.5c0-0.2,0-0.4-0.1-0.7C151.6,153.3,151.5,153,151.2,152.7z"/>
		<path class="st2" d="M152.6,135.5c-1.7-0.6-3-1.2-4.1-1.6c-1.1-0.4-2-0.8-2.6-1c-0.7-0.3-1.3-0.5-1.7-0.7
			c-0.2-0.1-0.4-0.1-0.6-0.2c-0.1,0-0.3-0.1-0.4-0.1c-0.1,0-0.2,0-0.3,0l-0.1,0.1c0,0.1,0,0.1,0,0.2c0,0.1,0,0.2,0,0.3s0,0.2,0,0.3
			s0,0.2,0,0.3s0,0.2,0.1,0.3c0.1,0,0.3,0,0.4,0c0.2,0,0.3,0,0.5,0.1c0.2,0,0.3,0.1,0.5,0.1c0.2,0.1,0.7,0.2,1.3,0.5
			c0.5,0.2,1.3,0.5,2.4,0.9c0.5,0.2,1,0.4,1.6,0.6c0.1,0.1,0.2,0.2,0.3,0.3c0.2,0.2,0.4,0.4,0.6,0.6c0.2,0.2,0.4,0.4,0.5,0.6
			c0.2,0.2,0.3,0.4,0.4,0.6c0.1,0.2,0.1,0.3,0.1,0.4c0,0.1-0.1,0.2-0.1,0.2c-0.1,0.1-0.1,0.1-0.2,0.1c-0.1,0-0.2,0-0.3,0
			s-0.2,0-0.3,0c-0.1-0.1-0.3-0.1-0.3-0.1c-0.1,0-0.2-0.1-0.2-0.1c-0.1,0-0.1,0-0.2-0.1c-0.1,0-0.1-0.1-0.2-0.1
			c-0.4-0.2-0.8-0.3-1-0.4c-0.3-0.1-0.5-0.2-0.6-0.2c-0.2-0.1-0.3-0.1-0.3-0.1c-0.1,0-0.1,0-0.1,0v0.1c0,0,0,0.1,0,0.2
			c0,0.1,0,0.2,0,0.3c-0.3-0.2-0.5-0.4-0.7-0.3c-0.2,0-0.3,0.1-0.5,0.2c-0.1,0.1-0.2,0.3-0.3,0.6c-0.1,0.2,0,0.5,0.1,0.9
			s0.3,0.7,0.6,1.1c0.3,0.4,0.6,0.8,1.1,1.1c0.4,0.3,0.8,0.6,1.3,0.8c0.1,0.2,0.2,0.3,0.3,0.5s0.2,0.3,0.3,0.4
			c0.3,0.6,0.5,1,0.5,1.3s0,0.4-0.2,0.5c-0.1,0-0.3,0-0.4-0.1c-0.1-0.1-0.3-0.2-0.5-0.3c-0.3-0.2-0.5-0.3-0.8-0.5
			c-0.2-0.1-0.4-0.2-0.6-0.3c-0.2-0.1-0.3-0.2-0.5-0.2c-0.2-0.1-0.3-0.1-0.5-0.1c-0.2-0.1-0.4-0.1-0.6-0.1c-0.2,0-0.3,0.1-0.4,0.1
			c-0.1,0.1-0.2,0.2-0.3,0.3s-0.1,0.2-0.1,0.4c0,0.3,0,0.5,0,0.7c0.1,0.2,0.2,0.5,0.3,0.7s0.3,0.5,0.4,0.7c0.2,0.2,0.3,0.4,0.5,0.5
			c-0.8-0.4-1.5-0.7-2.2-1.1c-0.7-0.4-1.4-0.7-2.1-1.1c-0.2-0.1-0.4-0.2-0.6-0.2c-0.1,0-0.3-0.1-0.4-0.1c-0.1,0-0.2,0-0.3,0
			s-0.1,0-0.1,0.1s0,0.1-0.1,0.2c0,0.1,0,0.2,0,0.3s0,0.2,0,0.3s0,0.2,0,0.3s0,0.2,0.1,0.3c0.1,0,0.3,0,0.4,0c0.2,0,0.3,0.1,0.5,0.1
			c0.2,0.1,0.3,0.1,0.5,0.2c0.2,0.1,0.7,0.3,1.3,0.6c0.5,0.2,1.3,0.6,2.3,1s2.3,1.1,4,1.8c0.1,0,0.2,0,0.3-0.1
			c0.1,0,0.1-0.1,0.2-0.1c0.1-0.1,0.1-0.1,0.1-0.2c0-0.1,0-0.1,0.1-0.2c0-0.1,0-0.1,0-0.2c0-0.1,0-0.1-0.1-0.2
			c-0.3-0.1-0.6-0.2-0.9-0.4c-0.3-0.1-0.6-0.3-0.9-0.4c-0.3-0.1-0.7-0.3-1-0.4c-0.2-0.2-0.3-0.3-0.5-0.5s-0.3-0.4-0.5-0.6
			c-0.1-0.2-0.2-0.4-0.3-0.6c-0.1-0.2-0.1-0.4-0.1-0.5c0-0.2,0.2-0.3,0.4-0.3s0.5,0.1,0.8,0.2c0.3,0.1,0.6,0.3,0.9,0.5
			c0.3,0.2,0.6,0.3,0.8,0.4c0.4,0.2,0.7,0.3,0.9,0.3c0.2,0.1,0.5,0,0.7-0.1c0.3-0.1,0.4-0.3,0.5-0.5c0-0.2,0-0.4-0.1-0.8
			c-0.1-0.3-0.2-0.6-0.4-0.9c-0.2-0.3-0.3-0.6-0.5-0.9c-0.1-0.1-0.1-0.2-0.2-0.3c0.1,0,0.3,0.1,0.4,0.1c0.3,0,0.6,0,0.8-0.1
			s0.4-0.2,0.5-0.3s0.2-0.3,0.2-0.4c0-0.3,0-0.6-0.1-0.9c-0.1-0.3-0.2-0.5-0.3-0.8c-0.2-0.3-0.4-0.6-0.8-0.9c0.3,0,0.5,0.1,0.6,0
			c0.2,0,0.3,0,0.4-0.1c0.1,0,0.2-0.1,0.3-0.2c0.1-0.1,0.1-0.2,0.2-0.3c0-0.1,0.1-0.2,0.1-0.4c0-0.1,0-0.3,0-0.4
			c0-0.1-0.1-0.2-0.1-0.3c-0.1-0.2-0.2-0.4-0.4-0.6c-0.2-0.2-0.4-0.5-0.7-0.8c-0.1-0.1-0.2-0.2-0.3-0.3c0.4,0.2,0.8,0.3,1.3,0.5
			c0.1,0,0.2,0,0.3-0.1s0.1-0.1,0.2-0.2c0-0.1,0.1-0.1,0.1-0.2c0-0.1,0-0.1,0-0.2c0-0.1,0-0.1,0-0.2
			C152.7,135.6,152.7,135.6,152.6,135.5z M150.8,140.5c0.1,0.1,0.1,0.3,0.1,0.4c0,0.1-0.1,0.2-0.2,0.3c-0.1,0-0.2,0.1-0.4,0.1
			s-0.4,0-0.6-0.1c-0.2-0.1-0.5-0.2-0.8-0.3s-0.5-0.3-0.7-0.5c-0.5-0.4-0.9-0.8-1.1-1.1c-0.2-0.3-0.2-0.5-0.1-0.6c0,0,0.1,0,0.2,0
			c0.1,0,0.1,0,0.2,0c0.1,0,0.2,0.1,0.4,0.2c0-0.1,0-0.2,0-0.2c0-0.1,0-0.1,0-0.2c0-0.1,0-0.1,0-0.2c0,0,0.1,0,0.2,0
			c0.2,0,0.3,0.1,0.6,0.2c0.2,0.1,0.5,0.2,0.7,0.3s0.5,0.2,0.6,0.3c0,0,0.1,0.1,0.2,0.2c0.1,0.1,0.2,0.2,0.3,0.3s0.2,0.3,0.3,0.4
			C150.6,140.2,150.7,140.4,150.8,140.5z"/>
		<path class="st2" d="M153.4,128.4c-0.2-0.4-0.4-0.7-0.7-1s-0.6-0.7-1-1s-0.7-0.6-1.1-0.8c-0.2-0.2-0.4-0.2-0.4-0.1
			s-0.1,0.2,0.1,0.4c0.1,0.1,0.3,0.3,0.6,0.5s0.5,0.5,0.8,0.8s0.5,0.6,0.7,0.9c0.2,0.3,0.3,0.6,0.3,0.8c0,0.1,0,0.2-0.1,0.3
			c-0.1,0-0.2,0.1-0.3,0.1c-0.2,0-0.3-0.1-0.5-0.2c-0.2-0.1-0.4-0.2-0.7-0.2c-0.2,0-0.4,0-0.5,0.1s-0.2,0.2-0.3,0.3
			c-0.1-0.1-0.1-0.3-0.3-0.4c-0.1-0.2-0.2-0.3-0.4-0.5c-0.1-0.2-0.3-0.3-0.5-0.4c-0.2-0.1-0.4-0.2-0.6-0.2c-0.3,0-0.5,0-0.7,0.1
			s-0.3,0.3-0.4,0.6c0,0.2,0.1,0.6,0.2,1c0.2,0.4,0.4,0.7,0.7,1s0.6,0.6,0.8,0.8c-0.4-0.1-0.7-0.3-1-0.4c-0.3-0.1-0.7-0.3-1-0.5
			c-0.4-0.2-0.7-0.3-1.2-0.5c-0.4-0.2-0.9-0.3-1.4-0.5c-0.4-0.1-0.7-0.2-0.9-0.3s-0.4-0.1-0.5,0c-0.1,0-0.1,0.1-0.2,0.2
			c0,0.1,0,0.2,0,0.4c0,0.1,0,0.3,0,0.4c0,0.1,0,0.2,0.1,0.3c0,0.1,0.1,0.2,0.1,0.2c0.1,0,0.2,0,0.4,0s0.4,0,0.6,0.1
			c0.2,0,0.5,0.1,0.7,0.1c0.2,0.1,0.5,0.1,0.9,0.3c0.4,0.1,0.8,0.3,1.3,0.4c0.5,0.2,1,0.3,1.5,0.5s1,0.3,1.5,0.5s0.9,0.3,1.3,0.5
			c0.4,0.1,0.7,0.3,1,0.4c0.2,0.1,0.3,0.1,0.4,0.1c0.1,0,0.2,0,0.2-0.1c0,0,0.1-0.1,0.1-0.2c0-0.1,0-0.1,0-0.2c0-0.1,0-0.1,0-0.2
			c0-0.1,0-0.1,0-0.2c0-0.1,0-0.1,0-0.2c-0.4-0.1-0.7-0.2-1.1-0.3c-0.3-0.1-0.6-0.2-0.9-0.3c-0.3-0.1-0.6-0.2-0.9-0.3
			c-0.2-0.2-0.4-0.4-0.6-0.6c-0.2-0.3-0.4-0.5-0.6-0.7c-0.1-0.1-0.2-0.2-0.2-0.3c-0.1-0.1-0.2-0.3-0.2-0.4c-0.1-0.1-0.1-0.2-0.1-0.4
			c0-0.1,0.1-0.2,0.2-0.3c0.2-0.1,0.4-0.1,0.6,0.1c0.2,0.2,0.4,0.4,0.7,0.8c0,0.1,0,0.2-0.1,0.3c0,0.1,0,0.1,0,0.2
			c0,0.1,0,0.1,0,0.2c0,0.1,0,0.2,0.1,0.3c0,0.1,0.1,0.2,0.2,0.2c0.1,0.1,0.2,0.1,0.3,0.1c0.2,0,0.3,0,0.4-0.1
			c0.1-0.1,0.2-0.2,0.2-0.3c0-0.2,0-0.3-0.1-0.4c-0.1-0.1-0.1-0.2-0.2-0.3c0.1,0,0.2-0.1,0.3-0.1s0.2,0,0.3,0s0.2,0.1,0.3,0.1
			s0.2,0.1,0.2,0.1c0.1,0,0.2,0.1,0.2,0.1c0.1,0,0.2,0.1,0.3,0.1c0.3,0,0.5,0,0.8-0.1c0.2-0.1,0.4-0.4,0.4-0.7
			C153.6,129.1,153.5,128.8,153.4,128.4z"/>
	</g>
	<g>
		<path class="st2" d="M237.4,112.1c-0.2,0-0.4,0.1-0.6,0.1c-0.3,0.1-0.5,0.1-0.8,0.2c0-0.5,0.1-1.1,0.1-1.6s0.1-1,0.1-1.4
			s0.1-0.8,0.1-1.1c0-0.3,0-0.6,0-0.7c0-0.4,0-0.7-0.2-1c-0.1-0.3-0.3-0.6-0.6-0.7c-0.3-0.2-0.7-0.2-1.1-0.2c-0.5,0-1.1,0.2-1.8,0.4
			c-0.9,0.4-1.7,0.7-2.4,1.2c-0.7,0.4-1.3,0.8-1.7,1.3c-0.4,0.4-0.7,0.9-0.9,1.3s-0.2,0.9-0.1,1.3c0.1,0.4,0.3,0.6,0.5,0.8
			c0.3,0.2,0.5,0.3,0.8,0.3s0.5,0.1,0.8,0c0.3,0,0.4,0,0.5-0.1c0.1,0,0.3-0.1,0.5-0.2s0.3-0.3,0.3-0.6l0.4-1.4
			c-0.1,0.1-0.2,0.2-0.3,0.2c-0.1,0.1-0.2,0.1-0.2,0.1c-0.1,0-0.1,0.1-0.2,0.1c-0.3,0.1-0.5,0.2-0.7,0.2s-0.3-0.1-0.4-0.2
			c-0.1-0.1-0.2-0.2-0.2-0.4c-0.1-0.3,0-0.6,0.3-0.9s0.6-0.6,1-0.9s0.9-0.5,1.4-0.8c0.5-0.2,0.9-0.4,1.3-0.5
			c0.2-0.1,0.4-0.1,0.6-0.1c0.2,0,0.4,0,0.5,0c0.2,0,0.3,0.1,0.4,0.2c0.1,0.1,0.2,0.3,0.2,0.5c0.1,0.2,0.1,0.5,0.1,0.8
			c0,0.4,0,0.8-0.1,1.2c0,0.5-0.1,1-0.1,1.5c-0.1,0.5-0.1,1.1-0.2,1.6c-0.1,0-0.1,0-0.1,0s-0.1,0-0.1,0.1c-0.4,0.1-0.8,0.3-1.2,0.5
			s-0.8,0.3-1.2,0.6c-0.5,0.2-0.9,0.5-1.4,0.7c-0.1,0.3-0.1,0.5-0.1,0.6s0,0.2,0,0.3c0,0.1,0,0.2,0,0.2c0,0.1,0,0.2,0.1,0.3
			c0,0.1,0.1,0.2,0.2,0.2c0.2-0.2,0.5-0.4,0.7-0.6c0.3-0.2,0.5-0.3,0.7-0.5c0.3-0.2,0.6-0.3,0.9-0.5c0.5-0.3,1-0.5,1.5-0.7
			c0,0.5-0.1,1.1-0.1,1.5c0,0.5-0.1,0.9-0.1,1.3c0,0.7-0.1,1.3-0.1,1.8s0,1,0.1,1.4c0,0.4,0.1,0.8,0.2,1.1c0.1,0.3,0.1,0.6,0.2,0.9
			c0.1,0.4,0.2,0.6,0.4,0.6s0.4,0,0.7-0.2c0.1-0.1,0.2-0.1,0.3-0.2s0.2-0.2,0.4-0.3c0.2-0.1,0.3-0.2,0.5-0.4
			c-0.2-0.1-0.3-0.3-0.4-0.6c-0.1-0.3-0.2-0.5-0.3-0.8s-0.2-0.6-0.2-1c0-0.3-0.1-0.6-0.1-1s0-0.9,0-1.4s0-1,0-1.6s0-1.1,0-1.7
			c0.1,0,0.2-0.1,0.3-0.1s0.2-0.1,0.3-0.1c0.2-0.1,0.3-0.1,0.5-0.1c0.1,0,0.2-0.1,0.3-0.2s0.2-0.2,0.2-0.3c0.1-0.1,0.1-0.3,0.1-0.6
			C237.7,112.2,237.6,112.1,237.4,112.1z"/>
		<path class="st2" d="M240.4,108.3c-0.1-1-0.2-1.7-0.2-2.3c0-0.3-0.1-0.5-0.1-0.7s-0.1-0.4-0.2-0.5c-0.1-0.2-0.1-0.3-0.2-0.3
			c0,0-0.1-0.1-0.2,0c-0.1,0-0.2,0-0.3,0.1c-0.1,0-0.2,0.1-0.3,0.2s-0.2,0.1-0.3,0.2s-0.2,0.1-0.3,0.2s-0.2,0.2-0.2,0.2
			c0.1,0.1,0.2,0.3,0.2,0.5c0.1,0.2,0.1,0.4,0.2,0.6c0.1,0.2,0.1,0.4,0.1,0.6c0,0.3,0.1,0.9,0.2,1.7c0.1,0.7,0.2,1.7,0.4,3.1
			c0.2,1.3,0.4,3.1,0.7,5.3c0.1,0.1,0.2,0.2,0.3,0.2s0.2,0.1,0.3,0.1s0.2,0,0.3,0s0.2,0,0.3-0.1c0.1,0,0.1-0.1,0.2-0.1
			c0.1-0.1,0.1-0.1,0.2-0.2c-0.3-2.2-0.5-4-0.6-5.4C240.7,110.3,240.5,109.1,240.4,108.3z"/>
		<path class="st2" d="M266.3,103.1c-0.2,0-0.3,0.1-0.4,0.3c-0.1,0.2-0.2,0.5-0.3,0.9c-0.1,0.4-0.3,0.8-0.4,1.3
			c-0.2,0.4-0.4,0.8-0.6,1.2c-0.2,0.4-0.5,0.6-0.8,0.7c-0.2,0.1-0.3,0.1-0.4,0c-0.1,0-0.1-0.1-0.2-0.3c-0.1-0.2-0.1-0.4-0.1-0.7
			c0-0.3,0-0.6-0.1-0.9c-0.1-0.2-0.2-0.4-0.4-0.5c-0.2-0.1-0.4-0.2-0.5-0.2c0.1-0.1,0.2-0.3,0.4-0.5c0.1-0.2,0.3-0.4,0.3-0.7
			c0.1-0.2,0.2-0.5,0.2-0.8s0-0.5-0.1-0.8s-0.3-0.6-0.5-0.8c-0.2-0.2-0.5-0.2-0.9-0.1c-0.3,0.1-0.6,0.4-1,0.8
			c-0.3,0.4-0.6,0.8-0.8,1.3c-0.2,0.5-0.3,0.9-0.4,1.3c-0.1-0.5-0.1-0.9-0.1-1.4s0-0.9,0-1.4s0-1-0.1-1.6c0-0.5-0.1-1.2-0.1-1.8
			c-0.1-0.5-0.1-0.9-0.2-1.2c-0.1-0.3-0.1-0.5-0.3-0.5c-0.1-0.1-0.2-0.1-0.3-0.1c-0.1,0-0.3,0.1-0.5,0.2s-0.3,0.2-0.4,0.2
			c-0.1,0.1-0.2,0.1-0.3,0.2c-0.1,0.1-0.1,0.2-0.2,0.2c0.1,0.1,0.1,0.3,0.2,0.5s0.1,0.4,0.2,0.7c0.1,0.3,0.1,0.6,0.2,0.9
			s0.1,0.7,0.2,1.2s0.2,1,0.2,1.7c0.1,0.6,0.2,1.3,0.3,1.9c0.1,0.5,0.1,0.9,0.2,1.4c-0.1,0.3-0.1,0.6-0.3,1
			c-0.1,0.5-0.3,0.9-0.5,1.4s-0.4,0.9-0.6,1.2c-0.2,0.4-0.4,0.6-0.6,0.6c-0.2,0.1-0.3,0-0.4-0.1c-0.1-0.2-0.1-0.4-0.2-0.7
			c0-0.4-0.1-0.8-0.1-1.1c0-0.3-0.1-0.6-0.1-0.9l-0.1-0.8c0-0.4-0.1-0.7-0.2-1c-0.1-0.3-0.3-0.5-0.5-0.7s-0.4-0.3-0.6-0.4
			c-0.2-0.1-0.4,0-0.6,0c-0.3,0.1-0.5,0.2-0.7,0.4c-0.2,0.2-0.4,0.4-0.5,0.7c-0.2,0.2-0.3,0.5-0.4,0.8c-0.1,0.3-0.2,0.5-0.3,0.8
			c0-0.2,0-0.4,0-0.6s0-0.3,0-0.5s0-0.3,0-0.4c-0.1,0-0.2,0-0.3,0s-0.2,0-0.3,0s-0.2,0.1-0.3,0.1s-0.2,0.1-0.3,0.2s-0.2,0.1-0.2,0.2
			c-0.1,0.1-0.1,0.2-0.2,0.2c0,0.5,0.1,0.9,0.2,1.3c0.1,0.4,0.1,0.7,0.1,1c0,0.1,0,0.2,0.1,0.4v0.1c-0.1,0.2-0.2,0.5-0.3,0.8
			s-0.2,0.6-0.3,1c-0.1,0.3-0.2,0.7-0.3,0.9c-0.1,0.3-0.2,0.5-0.4,0.7c-0.1,0.2-0.2,0.3-0.4,0.4c-0.1,0.1-0.2,0.1-0.3,0
			c-0.1,0-0.2-0.1-0.2-0.2c-0.1-0.1-0.1-0.2-0.2-0.3c-0.1-0.1-0.1-0.2-0.1-0.3c0-0.2-0.1-0.3-0.1-0.4s0-0.2-0.1-0.3
			c0-0.1,0-0.2,0-0.3c0-0.1,0-0.2,0-0.3c-0.1-0.5-0.2-1-0.2-1.3c-0.1-0.3-0.1-0.6-0.1-0.8c0-0.2-0.1-0.3-0.1-0.4s-0.1-0.1-0.1-0.1
			h-0.1c-0.1,0-0.1,0.1-0.2,0.1c-0.1,0.1-0.2,0.1-0.4,0.2c0.1-0.4,0.1-0.8-0.1-1c-0.1-0.2-0.3-0.3-0.5-0.4c-0.2,0-0.5,0-0.8,0
			c-0.3,0.1-0.5,0.3-0.9,0.6c-0.3,0.3-0.6,0.8-0.8,1.3s-0.4,1.2-0.6,1.8c-0.1,0.7-0.1,1.4,0,2.1c0.1,0.5,0.2,1,0.4,1.3
			s0.4,0.6,0.6,0.8c0.2,0.2,0.4,0.3,0.6,0.3c0.2,0,0.4,0,0.6,0c0.3-0.1,0.6-0.3,0.9-0.6c0.2-0.2,0.5-0.5,0.7-0.9s0.4-0.8,0.5-1.3
			c0.1,0.3,0.2,0.5,0.3,0.7s0.2,0.3,0.3,0.4s0.2,0.2,0.4,0.2c0.1,0,0.3,0,0.4,0c0.1,0,0.3-0.1,0.4-0.1c0.1-0.1,0.3-0.2,0.4-0.2
			c0.1-0.1,0.2-0.2,0.3-0.3c0.1-0.2,0.3-0.4,0.4-0.8c0.1-0.4,0.3-0.8,0.4-1.2c0.1-0.3,0.2-0.5,0.2-0.8l0,0c0,0.4,0.1,0.8,0.1,1.1
			c0,0.3,0.1,0.6,0.1,0.9s0,0.4,0.1,0.5c0,0.1,0.1,0.1,0.2,0.1c0.1-0.1,0.3-0.1,0.4-0.3c0.2-0.1,0.3-0.3,0.4-0.5
			c0.1-0.2,0.2-0.3,0.2-0.4c0-0.2,0-0.3-0.1-0.5c0-0.2,0-0.4-0.1-0.6c0-0.2-0.1-0.5-0.1-0.8s-0.1-0.7-0.1-1.1c0.1-0.3,0.2-0.7,0.3-1
			s0.2-0.6,0.3-0.9s0.2-0.5,0.4-0.7c0.1-0.2,0.3-0.3,0.5-0.4c0.1-0.1,0.3,0,0.4,0.1c0.1,0.1,0.2,0.3,0.3,0.6
			c0.1,0.3,0.1,0.5,0.2,0.9c0,0.3,0.1,0.7,0.1,1s0.1,0.6,0.1,0.9s0,0.5,0.1,0.7c0,0.3,0.1,0.5,0.2,0.7c0.1,0.2,0.3,0.3,0.4,0.5
			c0.2,0.1,0.4,0.2,0.6,0.2c0.2,0,0.5,0,0.7-0.1s0.5-0.3,0.7-0.5c0.2-0.3,0.4-0.5,0.6-0.9c0.2-0.3,0.3-0.7,0.5-1.1
			c0.1-0.4,0.3-0.8,0.4-1.1l0,0c0,0.1,0,0.3,0,0.4c0,0.5,0.1,1,0.1,1.3c0,0.2,0,0.4,0.1,0.5c0,0.1,0.1,0.2,0.2,0.2s0.1,0,0.2,0
			s0.2-0.1,0.3-0.1c0.1,0,0.1-0.1,0.2-0.1s0.1-0.1,0.2-0.1s0.1-0.1,0.2-0.2c-0.1-0.5-0.1-0.9-0.2-1.3s-0.1-0.8-0.2-1.2
			c-0.1-0.4-0.1-0.8-0.2-1.1c0.1-0.3,0.2-0.6,0.4-1c0.2-0.4,0.3-0.8,0.4-1.1c0.1-0.1,0.2-0.3,0.3-0.5c0.1-0.2,0.2-0.3,0.3-0.4
			c0.1-0.1,0.2-0.2,0.4-0.3c0.1,0,0.3,0,0.4,0.1c0.2,0.2,0.3,0.4,0.2,0.7c-0.1,0.3-0.2,0.7-0.5,1.2c-0.1,0-0.2,0.1-0.4,0.1
			c-0.1,0-0.2,0-0.2,0.1c-0.1,0-0.1,0.1-0.2,0.1c-0.1,0.1-0.2,0.1-0.2,0.2c-0.1,0.1-0.1,0.2-0.2,0.3c0,0.1,0,0.3,0,0.4
			c0.1,0.2,0.2,0.3,0.3,0.4c0.2,0.1,0.3,0.1,0.4,0.1c0.2-0.1,0.3-0.2,0.4-0.3c0.1-0.1,0.2-0.3,0.2-0.4c0.1,0.1,0.2,0.2,0.3,0.3
			c0.1,0.1,0.1,0.2,0.1,0.4c0,0.1,0,0.3,0,0.4s0,0.2,0,0.3c0,0.1,0,0.2,0,0.3c0,0.1,0,0.2,0.1,0.4c0.1,0.3,0.3,0.6,0.6,0.8
			c0.3,0.2,0.6,0.2,1,0.1s0.7-0.4,1-0.8s0.6-0.8,0.8-1.3c0.2-0.5,0.4-1,0.6-1.6S266.2,103.7,266.3,103.1
			C266.5,103.4,266.5,103.2,266.3,103.1z M246.7,112.3c0,0.2-0.1,0.3-0.2,0.5c-0.1,0.2-0.2,0.4-0.3,0.6s-0.2,0.4-0.4,0.5
			c-0.1,0.1-0.3,0.2-0.4,0.3c-0.2,0.1-0.3,0.1-0.5,0c-0.1,0-0.2-0.2-0.3-0.4c-0.1-0.2-0.2-0.5-0.3-0.8s-0.1-0.6-0.1-1s0-0.7,0-1.1
			c0.1-0.8,0.3-1.5,0.5-1.8c0.2-0.4,0.4-0.5,0.5-0.5c0,0,0.1,0.1,0.1,0.2s0.1,0.2,0.1,0.3c0,0.1,0,0.3,0,0.5
			c0.1-0.1,0.2-0.1,0.2-0.2c0.1,0,0.1-0.1,0.2-0.1c0.1,0,0.1-0.1,0.2-0.1c0,0,0.1,0.1,0.1,0.2c0,0.2,0.1,0.4,0.1,0.7
			c0,0.3,0.1,0.6,0.1,0.9s0.1,0.6,0.1,0.9C246.8,112.1,246.7,112.2,246.7,112.3z"/>
	</g>
	<g>
		<path class="st2" d="M295.7,44.7c1-0.2,1.9-0.6,2.7-1c0.8-0.4,1.5-0.9,2.1-1.5c0.4-0.4,0.8-0.9,1.2-1.5c0.4-0.6,0.7-1.3,0.8-2.1
			c0.1-0.8,0.1-1.5-0.2-2.4c-0.2-0.8-0.8-1.6-1.7-2.4c-0.9-0.8-1.8-1.4-2.6-1.8c-0.9-0.4-1.7-0.8-2.4-1s-1.4-0.4-2-0.5
			s-1-0.1-1.3-0.2c-0.5-0.1-0.9,0-1.1,0.3c-0.2,0.2-0.3,0.5-0.4,0.8c-0.1,0.1-0.1,0.2-0.1,0.4c0,0.1,0,0.2,0,0.4c0,0.2,0,0.3,0,0.5
			c0.4-0.1,0.9-0.1,1.3-0.1c0.5,0,0.9,0,1.3,0s0.8,0,1.2,0.1c-0.3,0.2-0.8,0.6-1.4,1s-1.2,0.9-2,1.4c-0.7,0.5-1.5,1.1-2.3,1.6
			c-0.8,0.6-1.6,1.2-2.4,1.7c-0.5-0.2-0.9-0.4-1.4-0.4s-0.8,0.1-1.1,0.4c-0.5,0.5-0.6,1.1-0.3,1.9c-0.6,0.4-1.2,0.8-1.7,1.2
			s-1,0.7-1.3,1c-0.9,0.7-1.7,1.2-2.3,1.5c-0.6,0.3-1.1,0.6-1.5,0.7c-0.4,0.1-0.7,0.2-0.9,0.2c-0.2,0-0.3,0-0.4,0
			c0,0.4,0.1,0.7,0.2,1.1c0.1,0.3,0.3,0.6,0.6,0.8c0.5,0.4,0.9,0.6,1.3,0.6s0.8-0.2,1.3-0.4c0.4-0.2,0.9-0.5,1.4-0.9
			s1.1-0.7,1.7-1.2c0.6-0.4,1.2-0.9,1.8-1.3c0.6-0.5,1.2-0.9,1.7-1.4c0.8,0.6,1.5,1,2.2,1.4c0,0.1,0,0.3-0.1,0.4
			c0,0.1-0.1,0.3-0.2,0.4c-0.3,0.9-0.8,1.8-1.4,2.6s-1.3,1.7-2,2.6c-0.5,0.7-0.9,1.3-1.2,1.8c-0.3,0.5-0.5,1-0.6,1.4s-0.1,0.8,0,1.1
			s0.3,0.6,0.5,0.9c0.3,0.4,0.8,0.7,1.3,0.8s1,0.1,1.4,0.1c0.5-0.1,0.9-0.1,1.2-0.3c0.3-0.1,0.5-0.2,0.5-0.2c-0.2,0-0.5-0.1-0.9-0.3
			c-0.3-0.1-0.6-0.4-0.9-0.6c-0.3-0.3-0.4-0.6-0.5-0.9c-0.1-0.4,0.1-0.8,0.4-1.2c0.2-0.3,0.4-0.6,0.7-1.1c0.3-0.4,0.6-0.9,0.9-1.4
			s0.6-1,1-1.6c0.3-0.6,0.6-1.1,0.9-1.7c0.2-0.4,0.4-0.8,0.5-1.2s0.2-0.7,0.3-1.1c1.1,0.4,2.3,0.6,3.4,0.6
			C293.7,45,294.7,44.9,295.7,44.7z M286.9,41.7c-0.2-0.1-0.4-0.2-0.6-0.3c0.2-0.2,0.4-0.4,0.7-0.6c0.3,0.4,0.5,0.8,0.6,1.2
			C287.4,41.9,287.1,41.8,286.9,41.7z M289.2,42.6c-0.1-0.6-0.2-1.1-0.4-1.5c-0.2-0.4-0.4-0.8-0.7-1.2c0.1-0.1,0.1-0.1,0.2-0.2
			c0.1-0.1,0.1-0.1,0.2-0.1c0.4-0.3,1-0.8,1.7-1.3c0.6-0.5,1.4-1.1,2.4-1.8s2.2-1.7,3.7-2.7c0-0.1,0.1-0.2,0.1-0.3s0-0.2,0-0.2
			c0-0.1,0-0.2-0.1-0.2c0.5,0.1,0.9,0.3,1.3,0.5s0.8,0.4,1.1,0.7c0.4,0.3,0.7,0.7,0.9,1.1c0.3,0.4,0.4,0.9,0.5,1.4
			c0,0.5-0.1,1.1-0.3,1.7c-0.3,0.6-0.7,1.2-1.4,1.9c-0.7,0.7-1.5,1.3-2.3,1.7s-1.6,0.7-2.4,0.8c-0.8,0.2-1.6,0.2-2.4,0.1
			C290.6,42.9,289.9,42.7,289.2,42.6z"/>
		<path class="st2" d="M300.4,58.8c0.6,0.3,1.3,0.6,1.9,0.8s1.2,0.4,1.6,0.5c0.5,0.1,0.8,0.2,0.9,0.2c0.3,0,0.5,0,0.6,0
			c0.2-0.1,0.3-0.1,0.3-0.2c0-0.1,0-0.2-0.1-0.3s-0.2-0.2-0.5-0.2c-0.3-0.1-0.7-0.2-1.1-0.3c-0.4-0.2-0.9-0.3-1.3-0.6
			c-0.5-0.2-0.9-0.5-1.4-0.7c-0.5-0.3-0.9-0.5-1.2-0.8c0.1-0.1,0.3-0.1,0.5-0.2c0.2-0.1,0.3-0.2,0.5-0.3c0.6-0.4,1.1-0.8,1.3-1.3
			c0.3-0.5,0.5-1,0.6-1.4c0.1-0.5,0.1-0.9,0.1-1.3c-0.1-0.4-0.1-0.7-0.3-0.9c0-0.1,0-0.1,0-0.2c0,0,0-0.1-0.1-0.1
			c-0.2-0.3-0.4-0.5-0.7-0.8c-0.3-0.2-0.5-0.5-0.8-0.6c-0.3-0.2-0.6-0.3-0.9-0.3c-0.3-0.1-0.7-0.1-1,0c-0.5-0.1-1-0.1-1.5,0
			c-0.5,0-1,0.1-1.4,0.2c-0.5,0.1-0.9,0.3-1.3,0.4c-0.4,0.2-0.7,0.3-1,0.5c-0.4,0.3-0.9,0.6-1.3,0.9c-0.5,0.4-0.8,0.7-1.1,1.2
			c-0.3,0.4-0.4,0.9-0.5,1.5c0,0.5,0.2,1.1,0.6,1.8c0.4,0.5,0.8,1,1.3,1.3s1.1,0.5,1.7,0.7c0.6,0.1,1.3,0.1,1.9,0.1
			c0.7-0.1,1.4-0.2,2.1-0.4C299.2,58.1,299.7,58.5,300.4,58.8z M295.8,56.4c-0.4,0-0.7,0-1,0s-0.6-0.1-0.9-0.3
			c-0.3-0.1-0.5-0.4-0.7-0.6c-0.2-0.2-0.2-0.5-0.2-0.7s0.1-0.5,0.3-0.7c0.1-0.2,0.3-0.4,0.6-0.7c0.3-0.2,0.5-0.4,0.8-0.6
			c0.3-0.2,0.6-0.3,0.9-0.5c0.3-0.1,0.7-0.3,1.1-0.4c-0.4,0.6-0.6,1.2-0.7,1.9s0.1,1.3,0.5,1.9c0.1,0.1,0.2,0.2,0.2,0.3
			c0.1,0.1,0.2,0.2,0.2,0.3C296.5,56.3,296.2,56.3,295.8,56.4z M298.4,55.5c-0.1-0.1-0.1-0.1-0.2-0.2c-0.3-0.5-0.5-0.9-0.5-1.3
			c0-0.4,0-0.7,0.2-0.9c0.1-0.3,0.3-0.5,0.6-0.7c0.2-0.2,0.5-0.4,0.7-0.6c0.2-0.1,0.3-0.2,0.5-0.2c0.4,0,0.8,0.1,1.2,0.3
			c0.3,0.2,0.6,0.4,0.8,0.7c0.1,0.2,0.1,0.4,0.1,0.6c-0.1,0.2-0.2,0.5-0.4,0.7c-0.2,0.3-0.4,0.5-0.7,0.7c-0.3,0.2-0.6,0.4-0.9,0.6
			c-0.1,0.1-0.3,0.2-0.5,0.2c-0.2,0.1-0.4,0.1-0.6,0.2C298.5,55.6,298.4,55.6,298.4,55.5z"/>
		<path class="st2" d="M305.3,74.7c0.9,0.3,1.8,0.4,2.6,0.6c0.2,0,0.3,0,0.5,0c0.1-0.1,0.2-0.1,0.2-0.2s0-0.2-0.1-0.3
			c-0.1-0.1-0.2-0.2-0.4-0.3c-0.1,0-0.3-0.1-0.7-0.2c-0.4-0.1-0.8-0.2-1.3-0.4c-0.5-0.2-1-0.3-1.6-0.6c-0.6-0.2-1.1-0.4-1.6-0.7
			c-0.5-0.2-0.9-0.5-1.2-0.7c-0.4-0.2-0.6-0.5-0.7-0.7c0-0.1-0.1-0.3,0-0.4c0-0.1,0.1-0.3,0.2-0.4s0.4-0.3,0.7-0.4
			c0.3-0.2,0.7-0.4,1.2-0.6c0.2,0,0.3,0.1,0.5,0.1c0.2,0.1,0.4,0.1,0.7,0.1c0.3,0,0.6,0,1,0s0.8,0,1.4-0.1c0.7,0,1.3-0.1,1.8-0.3
			c0.6-0.2,1-0.3,1.3-0.4c0.2-0.1,0.2-0.2,0.2-0.4c0-0.1,0-0.2,0-0.3c0-0.1-0.1-0.2-0.1-0.3c-0.1-0.3-0.3-0.6-0.4-0.7
			c-0.2-0.1-0.5-0.2-1-0.3c-0.2,0-0.6-0.1-1-0.1s-0.9,0-1.4,0s-1,0.1-1.6,0.2s-1.1,0.2-1.7,0.4c-0.3,0.1-0.6,0.2-0.8,0.4
			c-0.7-0.2-1.2-0.4-1.7-0.7c-0.5-0.3-0.8-0.7-1-1.1c-0.2-0.7-0.2-1.2,0.1-1.6c0.3-0.4,0.9-0.6,1.7-0.8c0.4-0.1,0.9-0.2,1.5-0.2
			s1.3-0.1,2.2-0.1c0.9,0,2,0,3.4,0.1c0-0.2,0-0.3-0.1-0.5s-0.1-0.3-0.2-0.5s-0.2-0.4-0.3-0.5c-0.3-0.4-0.7-0.7-1.1-0.8
			c-0.5-0.1-1-0.2-1.5-0.2c-0.1,0-0.3,0-0.7,0c-0.4,0-0.8,0.1-1.4,0.1c-0.5,0.1-1.1,0.1-1.7,0.3c-0.6,0.1-1.2,0.3-1.7,0.4
			c-0.3,0.1-0.6,0.3-0.9,0.5s-0.6,0.5-0.8,0.8c-0.2,0.3-0.4,0.8-0.4,1.3c-0.1,0.5,0,1.1,0.3,1.7c0.2,0.7,0.6,1.2,1.1,1.6
			s1.2,0.7,1.9,0.9c-0.5,0.4-0.9,0.8-1.2,1.2c-0.2,0.4-0.3,0.8-0.1,1.3c0.2,0.5,0.6,1,1.2,1.5c0.6,0.4,1.4,0.9,2.2,1.2
			C303.5,74.1,304.4,74.4,305.3,74.7z"/>
		<path class="st2" d="M312.4,81.2c-0.2-0.4-0.5-0.8-0.8-1.1c-0.3-0.3-0.6-0.6-1-0.9s-0.7-0.5-1.1-0.7c0.3,0.1,0.6,0.2,0.9,0.2
			c0.3,0.1,0.5,0.1,0.7,0.2s0.4,0.1,0.6,0.2c0.1-0.1,0.1-0.2,0.2-0.4c0-0.1,0.1-0.3,0.1-0.4s0-0.3,0-0.4c0-0.2-0.1-0.3-0.1-0.5
			c0-0.1-0.1-0.3-0.2-0.4s-0.2-0.3-0.3-0.4c-0.7-0.1-1.4-0.2-2-0.3c-0.6-0.1-1.1-0.2-1.6-0.2c-0.5-0.1-1-0.1-1.4-0.2
			c-0.5-0.1-1.1-0.2-1.7-0.3c-0.6-0.1-1.2-0.2-1.7-0.3c-0.5-0.1-1-0.2-1.4-0.3c-0.4-0.1-0.6-0.1-0.8-0.1c-0.2,0-0.2,0.1-0.2,0.3
			c0,0.2,0.1,0.5,0.2,0.8s0.3,0.6,0.5,0.9s0.4,0.4,0.6,0.5c0.3,0,0.5,0.1,0.8,0.1c0.3,0.1,0.6,0.1,1,0.2s0.8,0.1,1.3,0.2
			s1,0.2,1.7,0.3c0.5,0.3,1,0.6,1.4,0.8c0.5,0.3,0.9,0.6,1.2,0.9c0.4,0.3,0.6,0.6,0.9,0.9c0.2,0.3,0.3,0.6,0.4,0.9
			c0,0.2-0.1,0.4-0.4,0.5s-0.6,0.1-1,0.1s-0.9,0-1.4-0.1s-1-0.2-1.6-0.3c-0.5-0.1-1-0.2-1.4-0.3c-0.4-0.1-0.8-0.2-1.1-0.2
			c-0.4-0.1-0.8-0.1-1.1,0c-0.3,0.1-0.6,0.2-0.9,0.4c-0.2,0.2-0.4,0.5-0.6,0.8c-0.1,0.3-0.2,0.7-0.1,1.1c0,0.4,0.2,0.8,0.5,1.3
			c0.3,0.4,0.6,0.9,1.1,1.3c0.4,0.4,0.9,0.8,1.4,1.2c0.5,0.4,1,0.7,1.5,1.1c0.5,0.3,1,0.6,1.4,0.8c0.4,0.2,0.8,0.4,1.1,0.5
			c0.3,0.1,0.6,0.2,0.7,0.2c0.2,0,0.3-0.1,0.4-0.2c0-0.1,0-0.2-0.1-0.3c-0.1-0.1-0.3-0.3-0.5-0.4c-0.4-0.2-0.9-0.5-1.5-0.9
			s-1.3-0.9-1.9-1.3c-0.6-0.5-1.1-0.9-1.6-1.4c-0.4-0.5-0.7-0.9-0.7-1.2c0-0.3,0.1-0.5,0.4-0.6s0.6,0,1.1,0c0.6,0.2,1.2,0.3,1.8,0.4
			c0.5,0.1,1,0.2,1.4,0.2l1.2,0.2c0.6,0.1,1.2,0.1,1.6,0.1c0.5-0.1,0.9-0.2,1.3-0.4c0.3-0.2,0.6-0.4,0.8-0.7c0.2-0.3,0.3-0.6,0.2-1
			C312.7,82,312.6,81.6,312.4,81.2z"/>
	</g>
	<g>
		<path class="st2" d="M111.9,88.2c-0.1-0.2-0.2-0.4-0.4-0.5c-0.2-0.1-0.3-0.1-0.4-0.1s-0.2,0.1-0.3,0.3c-0.1,0.1,0,0.3,0.1,0.6
			c0.1,0.4,0.2,0.8,0.4,1.4c0.1,0.5,0.2,1.1,0.2,1.7s-0.1,1.2-0.3,1.9c-0.2,0.6-0.5,1.2-0.9,1.7c-0.3,0.3-0.6,0.5-1,0.7
			s-0.9,0.2-1.5,0.2c-0.6-0.1-1.2-0.3-1.8-0.6c-0.7-0.3-1.4-0.9-2.1-1.6c-1.7-1.6-3.1-3.2-4.3-5c-1.2-1.8-2.1-3.5-2.7-5.1
			s-1-3.1-1-4.4c-0.1-1.3,0.2-2.3,0.8-3c0.3-0.3,0.7-0.5,1.2-0.6c0.5,0,1,0.2,1.6,0.7c0.6,0.6,1,1.1,1.4,1.6c0.3,0.5,0.6,1,0.8,1.5
			c0.2,0.6,0.2,1.1,0,1.6c0.4,0.2,0.8,0.2,1.1,0.2c0.3,0,0.5,0,0.7-0.1s0.4-0.2,0.6-0.3c0.3-0.3,0.5-0.7,0.5-1.2
			c0-0.4,0-0.9-0.2-1.4s-0.4-1-0.8-1.4c-0.3-0.5-0.7-0.9-1.2-1.4c-0.5-0.4-1-0.8-1.6-1.1c-0.6-0.3-1.1-0.5-1.7-0.6s-1.2,0-1.7,0.2
			c-0.6,0.2-1.1,0.6-1.6,1.2c-0.8,0.9-1.3,2-1.6,3.1c-0.3,1.2-0.3,2.3-0.2,3.6c0.1,1.2,0.5,2.5,0.9,3.8c0.5,1.3,1.1,2.5,1.7,3.7
			c0.7,1.2,1.4,2.3,2.2,3.4c0.8,1,1.6,1.9,2.4,2.7c0.9,0.8,1.8,1.4,2.8,1.9s1.9,0.8,2.8,0.9s1.8,0,2.6-0.2c0.8-0.3,1.5-0.8,2.1-1.5
			c0.5-0.6,0.8-1.2,1-1.9c0.2-0.7,0.3-1.4,0.3-2.2c0-0.8-0.1-1.5-0.3-2.3C112.3,89.5,112.1,88.8,111.9,88.2z"/>
		<path class="st2" d="M132,44c-0.3-0.7-0.7-1.4-1.2-2.1c-0.5-0.7-1.1-1.4-1.7-2.1c-0.6-0.7-1.3-1.3-1.9-1.8
			c-0.4-0.3-0.7-0.4-0.8-0.2c-0.2,0.2-0.2,0.5,0.1,0.8c0.2,0.3,0.6,0.6,1,1.1c0.5,0.5,0.9,1,1.4,1.6s0.8,1.2,1.2,1.8
			c0.3,0.6,0.4,1.2,0.3,1.7c-0.1,0.3-0.1,0.4-0.3,0.5c-0.1,0.1-0.3,0.1-0.5,0.1c-0.3-0.1-0.6-0.2-1-0.4c-0.3-0.2-0.8-0.4-1.2-0.5
			c-0.4-0.1-0.7-0.1-1,0.1c-0.3,0.1-0.5,0.3-0.7,0.6c-0.1-0.2-0.2-0.5-0.4-0.9c-0.2-0.3-0.4-0.7-0.6-1s-0.5-0.6-0.9-0.9
			c-0.3-0.3-0.7-0.4-1.1-0.5c-0.5-0.1-1-0.1-1.4,0.1c-0.4,0.2-0.7,0.6-0.8,1.1c-0.1,0.5,0,1.1,0.2,1.9c0.3,0.8,0.6,1.5,1.1,2.1
			c0.5,0.7,1,1.2,1.4,1.7c-0.7-0.3-1.3-0.6-1.9-1c-0.6-0.3-1.3-0.7-1.9-1.1c-0.7-0.4-1.4-0.8-2.1-1.2c-0.8-0.4-1.6-0.8-2.5-1.3
			c-0.7-0.3-1.3-0.6-1.7-0.7c-0.4-0.1-0.7-0.2-0.9-0.1c-0.2,0.1-0.3,0.2-0.4,0.4s-0.1,0.5-0.1,0.8s0,0.5,0,0.7s0,0.4,0.1,0.6
			c0,0.2,0.1,0.3,0.2,0.4c0.2,0,0.5,0,0.8,0.1c0.4,0.1,0.7,0.2,1.1,0.3s0.9,0.3,1.3,0.4c0.4,0.2,1,0.4,1.7,0.7s1.5,0.6,2.4,1
			s1.8,0.8,2.8,1.2s1.9,0.9,2.8,1.3c0.1,0.1,0.3,0.1,0.4,0.2c0.4,0.7,0.8,1.4,1.1,2.2c0.4,0.8,0.7,1.6,0.9,2.4c0.2,0.8,0.2,1.5,0,2
			c-0.1,0.3-0.2,0.6-0.4,0.9c-0.2,0.3-0.4,0.5-0.7,0.7c-0.3,0.2-0.7,0.3-1.1,0.4c-0.4,0.1-0.9,0-1.5-0.2c-0.2-0.1-0.5-0.2-0.7-0.3
			c-0.3-0.5-0.6-1-0.9-1.4c-0.1-0.2-0.2-0.3-0.4-0.3c-0.1-0.1-0.2-0.1-0.3,0c-0.1,0-0.1,0.1-0.2,0.2c0,0.1,0,0.2,0.1,0.4
			c0,0-0.1,0-0.1-0.1c-0.6-0.6-1.1-1.2-1.5-1.8s-0.6-1.1-0.7-1.6s-0.1-0.8-0.1-1c0.1-0.2,0.1-0.3,0.2-0.3s0.2,0,0.4,0
			c0.1,0,0.2,0.1,0.3,0.2c0.1,0.1,0.1,0.2,0.2,0.3c0,0.2,0,0.3,0.1,0.4c0,0.1,0.1,0.3,0.2,0.4c0.1,0.1,0.2,0.1,0.4,0.2
			c0.2,0.1,0.4,0.2,0.6,0.2s0.4,0,0.6,0c0.2-0.1,0.3-0.2,0.4-0.4c0.1-0.3,0.1-0.6,0.1-0.8c-0.1-0.3-0.2-0.6-0.4-0.8
			c-0.2-0.3-0.4-0.5-0.7-0.7c-0.3-0.2-0.6-0.4-0.9-0.5c-0.7-0.2-1.2-0.2-1.8,0c-0.5,0.3-0.9,0.7-1.1,1.2c-0.3,1-0.4,2-0.1,2.9
			s0.7,1.7,1.3,2.5c0.6,0.7,1.2,1.4,2,1.9c0.7,0.5,1.4,0.9,1.9,1.1c0.1,0,0.2,0.1,0.3,0.1l0,0c0.2,0.5,0.5,1.1,0.6,1.6
			c0.2,0.5,0.3,1,0.4,1.4s0.1,0.8-0.1,1c-0.1,0.1-0.2,0.2-0.3,0.3c-0.1,0.1-0.3,0.1-0.5,0.1s-0.5,0-0.8-0.1s-0.7-0.2-1.3-0.4
			c-0.1-0.1-0.2-0.3-0.3-0.5c-0.1-0.2-0.2-0.4-0.4-0.6c-0.2-0.2-0.4-0.4-0.7-0.7c-0.3-0.3-0.6-0.6-1-0.9c-0.5-0.4-1-0.8-1.5-1.1
			s-0.9-0.5-1.2-0.6c-0.2-0.1-0.3,0-0.4,0.2c0,0.1-0.1,0.1-0.2,0.2c-0.1,0.1-0.1,0.2-0.1,0.3c-0.1,0.3-0.2,0.6-0.2,0.8
			s0.2,0.5,0.5,0.9c0.2,0.2,0.4,0.4,0.7,0.8c0.3,0.3,0.6,0.6,1,1c0.4,0.3,0.8,0.7,1.3,1s1,0.6,1.5,0.9c0.3,0.1,0.6,0.2,0.9,0.3
			c0.4,0.6,0.6,1.1,0.7,1.7s0.1,1.1-0.1,1.5c-0.3,0.7-0.7,1-1.2,1.1c-0.5,0-1.1-0.2-1.8-0.6c-0.3-0.2-0.7-0.5-1.2-0.9
			c-0.1,0-0.1-0.1-0.2-0.2l0,0l0,0c-0.4-0.3-0.8-0.8-1.4-1.3c-0.6-0.6-1.4-1.4-2.4-2.4c-0.1,0.1-0.2,0.2-0.3,0.4
			c-0.1,0.2-0.1,0.3-0.2,0.5s-0.1,0.4-0.2,0.6c-0.1,0.5,0,1,0.3,1.4c0.2,0.4,0.6,0.8,1,1.2c0.1,0.1,0.2,0.2,0.5,0.5
			c0.3,0.2,0.6,0.5,1.1,0.9c0.4,0.3,0.9,0.7,1.4,1c0,0,0.1,0,0.1,0.1c0.1,0.3,0.1,0.5,0.2,0.8c0.1,0.4,0.1,0.7,0.2,1
			c0.1,1.3,0.1,2.1,0,2.6s-0.4,0.7-0.7,0.7c-0.3,0-0.5-0.1-0.7-0.4c-0.2-0.2-0.4-0.5-0.7-0.9c-0.4-0.5-0.7-1-1-1.4s-0.6-0.7-0.8-1
			c-0.3-0.3-0.5-0.6-0.7-0.8c-0.2-0.2-0.5-0.4-0.7-0.6c-0.4-0.3-0.8-0.5-1.1-0.6c-0.3-0.1-0.6-0.1-0.9-0.1s-0.5,0.1-0.7,0.3
			c-0.2,0.1-0.4,0.3-0.5,0.6c-0.3,0.4-0.4,0.9-0.5,1.4s-0.1,1,0,1.5s0.2,1,0.3,1.5c0.1,0.5,0.3,0.9,0.5,1.3
			c-1.1-1.2-2.2-2.4-3.1-3.6s-1.9-2.3-3-3.5c-0.3-0.3-0.6-0.6-0.8-0.8c-0.2-0.2-0.5-0.4-0.7-0.5c-0.2-0.2-0.4-0.2-0.5-0.2
			s-0.2,0-0.3,0.1c-0.1,0.1-0.2,0.2-0.3,0.3c-0.1,0.1-0.2,0.3-0.3,0.5c-0.1,0.2-0.1,0.4-0.2,0.6s-0.1,0.3-0.2,0.5
			c0,0.2-0.1,0.4-0.1,0.5c0.2,0.1,0.5,0.2,0.8,0.4c0.3,0.2,0.5,0.3,0.7,0.5c0.3,0.2,0.5,0.4,0.8,0.7c0.4,0.4,1,1,1.9,2
			c0.8,0.8,1.9,2,3.4,3.5s3.4,3.6,5.9,6.1c0.2,0.1,0.4,0.1,0.5,0.1c0.2,0,0.3-0.1,0.4-0.1c0.1-0.1,0.3-0.2,0.4-0.3
			c0.1-0.1,0.2-0.2,0.2-0.3c0.1-0.1,0.1-0.2,0.1-0.3c0-0.1,0-0.3,0-0.4c-0.4-0.4-0.8-0.8-1.3-1.3s-1-1-1.4-1.4c-0.5-0.5-1-1-1.6-1.5
			c-0.2-0.4-0.4-0.9-0.6-1.3c-0.2-0.5-0.3-1-0.4-1.4c-0.1-0.5-0.1-0.9-0.1-1.3s0.1-0.7,0.3-1c0.2-0.4,0.5-0.4,0.9-0.3
			c0.4,0.2,0.8,0.5,1.2,0.9s0.8,0.9,1.3,1.5c0.4,0.5,0.8,1,1.1,1.3c0.5,0.6,1,1,1.4,1.3s0.9,0.4,1.4,0.3c0.6-0.1,1-0.2,1.2-0.6
			c0.2-0.3,0.3-0.8,0.4-1.4c0-0.6,0-1.2-0.1-1.9c-0.1-0.7-0.2-1.4-0.3-2.1c-0.1-0.3-0.1-0.6-0.2-0.9c0.1,0,0.1,0.1,0.2,0.1
			c0.3,0.1,0.6,0.2,1,0.3c0.4,0.1,0.8,0.1,1.2,0c0.4-0.1,0.8-0.3,1.2-0.6c0.4-0.3,0.7-0.8,1-1.4s0.4-1.3,0.3-2s-0.3-1.3-0.7-2
			c0.7,0.1,1.2,0.1,1.7,0c0.4-0.1,0.8-0.4,1-0.8c0.2-0.5,0.3-1.1,0.2-1.9c-0.1-0.8-0.4-1.6-0.7-2.4c-0.1-0.3-0.2-0.5-0.3-0.7l0,0
			c0.6,0.1,1.2,0,1.7-0.1c0.6-0.2,1.1-0.4,1.5-0.9c0.5-0.4,0.8-1,1.1-1.8c0.2-0.6,0.3-1.2,0.2-1.8c-0.1-0.7-0.2-1.3-0.4-2
			s-0.5-1.3-0.8-2c-0.2-0.4-0.4-0.8-0.6-1.2c0.1,0.1,0.3,0.1,0.4,0.2c0.8,0.4,1.3,0.7,1.8,0.9c0.3,0.2,0.6,0.3,0.7,0.3
			c0.2,0,0.3,0,0.4-0.1c0.1-0.1,0.2-0.2,0.2-0.3s0.1-0.3,0.1-0.4c0-0.1,0-0.2,0-0.3s0-0.2,0-0.3s0-0.2-0.1-0.4
			c-0.7-0.3-1.3-0.5-2-0.8c-0.6-0.3-1.2-0.5-1.7-0.7s-1-0.4-1.5-0.6c-0.1-0.2-0.3-0.3-0.3-0.4c-0.1-0.1-0.2-0.2-0.3-0.3
			c-0.2-0.2-0.3-0.4-0.5-0.6c-0.4-0.5-0.8-1-1.1-1.5c-0.1-0.2-0.3-0.4-0.4-0.7s-0.2-0.5-0.3-0.8c-0.1-0.3-0.1-0.5,0-0.7
			s0.2-0.4,0.5-0.5c0.4-0.2,0.8-0.1,1.1,0.3c0.4,0.4,0.8,0.9,1.2,1.7c-0.1,0.2-0.1,0.4-0.2,0.5c-0.1,0.2-0.1,0.3-0.1,0.3
			c0,0.1,0,0.3,0,0.4c0,0.2,0,0.3,0.1,0.5s0.2,0.3,0.3,0.5c0.1,0.1,0.3,0.2,0.6,0.3c0.3,0.1,0.6,0,0.8-0.1c0.2-0.1,0.4-0.3,0.4-0.5
			c0.1-0.3,0-0.6-0.1-0.8s-0.2-0.5-0.4-0.6c0.2-0.1,0.3-0.1,0.5-0.1s0.4,0,0.6,0.1s0.4,0.2,0.5,0.3s0.3,0.2,0.4,0.3
			c0.1,0.1,0.3,0.2,0.5,0.2c0.2,0.1,0.4,0.1,0.6,0.2c0.5,0.1,1,0.1,1.5-0.1c0.5-0.2,0.8-0.6,0.9-1.3C132.4,45.4,132.3,44.7,132,44z"
			/>
	</g>
	<g>
		<path class="st2" d="M47.4,66.4c0.8-3-0.9-2.3-1.9-1.5c-2.2-6.1-2.6-7.7-3.1-9.5c-4.3,2.2,2.3,10.3,1.5,10.6c-3.7,2.6-3.7,3-4.9,4
			c-5.3-16-6.3-6.6-1.5,1.6c-1.3,1.6,0.1,1.8,0.6,1.3c4.5,10.1,2.6,8.4,4.5,8.6c0.8-0.7,1-1.2,1.2-1.5c-4.1-8.1-3.4-7.1-4.2-8.7
			c4.8-3,7.8,3,8.7,5.2c0.9-0.1,1.5-0.8,1.8-1.2c-4.2-8-2.8-6.1-3.9-8.6C46.9,66.5,47.1,66.4,47.4,66.4z M41.6,69.4
			c2.4-1.7,1.8-1.2,2.4-1.6c0.4-0.3,0.4-0.2,0.5-0.3c1.6,3.7,1.1,2.6,1.5,3.4C43.5,69.1,42.4,69.5,41.6,69.4z"/>
		<path class="st2" d="M63.2,51.2L63.2,51.2L63.2,51.2z"/>
		<path class="st2" d="M68.8,41.3c1.1,6.8,1.4,9.7-2.4,5.6c-6.1-12.8-8.4-10-8.5-8.2c5.1,6.4,4.3,5.2,5.8,7
			c-5.6,0.9-3.8,5.1-1.1,7.4c-0.1,3.1,1.9,7.9-4.5-0.7c-0.4,0.4-0.6,0.8-0.7,0.9c-4.8-1.2-3.8,3.5-1.7,6.8c-0.6,3-0.6,8.6-4.3,5.6
			c2.9-8.5-2.2-8.9-3.1-5.6c1,14.6,7.5,7,8.6,1.6c2,2.1,4.1,2.4,3.6-3.8c3.8,2.7,3.7-1.1,3.2-4c2.4,1.3,4.7,0.9,3.5-4.2
			C73.7,53.8,69.2,40.2,68.8,41.3z M50.6,64.5c-1.9-3.7-1.1-3.6-0.8-4.8C52.2,60.1,50.4,64.1,50.6,64.5z M56.7,54.8
			c0.9-2.2,2.4,2.3,2.7,2.1C60,68.4,52.6,49.4,56.7,54.8z M63.3,51.9c-0.1-0.4-0.1-0.6-0.1-0.7c-0.1,0.1-0.2,0.1-0.2,0.2
			c-1.9-2.5-3.2-6.8,1.6-4.6c1,1.2,1,1.1,1.2,1.4C66.9,54.1,65,53.8,63.3,51.9z"/>
	</g>
	<g>
		<path class="st2" d="M298.4,136.4c0.1-0.3,0.2-0.7,0.2-1s0-0.6,0-0.9c0-0.3,0-0.5-0.1-0.8c0-0.2,0-0.4,0-0.6c0-0.1,0-0.2,0.1-0.4
			c0-0.1,0.1-0.3,0.1-0.4c0-0.1,0.1-0.3,0.2-0.5s0.2-0.3,0.3-0.4c0.2-0.2,0.4-0.3,0.7-0.4c0.3-0.1,0.5-0.1,0.8-0.2
			c0.3,0,0.6,0,0.9,0s0.5,0.1,0.8,0.2c0.2,0.1,0.4,0.2,0.5,0.3s0.2,0.3,0.2,0.4c0,0.3-0.1,0.5-0.2,0.7s-0.3,0.4-0.4,0.6
			c-0.2,0.2-0.4,0.3-0.6,0.4c-0.2,0.1-0.4,0.2-0.6,0.3s-0.3,0.2-0.5,0.2c-0.1,0.1-0.2,0.1-0.2,0.1c0,0.1,0.1,0.1,0.1,0.2
			c0.1,0.1,0.1,0.1,0.2,0.1s0.1,0.1,0.2,0.1c0.2,0.1,0.4,0.2,0.6,0.2c0.1,0,0.2,0,0.3,0c0,0,0.2,0,0.4-0.1c0.2-0.1,0.4-0.2,0.7-0.4
			c0.2-0.2,0.5-0.4,0.7-0.7s0.3-0.6,0.4-1c0.2-0.9-0.5-1.8-1.8-2.5c-0.2-0.1-0.6-0.2-1-0.3s-0.8-0.1-1.3,0c-0.4,0.1-0.9,0.2-1.3,0.4
			s-0.8,0.6-1,1c-0.2,0.3-0.3,0.7-0.4,1c-0.1,0.4-0.1,0.7-0.1,1.1c0,0.3,0,0.7,0,1s0,0.6,0,0.9c0,0.3,0,0.5-0.1,0.8
			s-0.2,0.6-0.3,0.9c-0.1,0.3-0.3,0.6-0.5,0.9c-0.2,0.3-0.5,0.5-0.9,0.6c-1.1,0.5-1.9,0.6-2.4,0.1c-0.2-0.2-0.3-0.4-0.4-0.6
			c0-0.2,0-0.5,0.1-0.7s0.2-0.5,0.3-0.7s0.3-0.4,0.4-0.5c0.1,0,0.1-0.1,0.2-0.1c0.1-0.1,0.3-0.1,0.5-0.2c-0.1-0.1-0.1-0.2-0.2-0.3
			s-0.2-0.1-0.3-0.2c-0.1-0.1-0.2-0.1-0.4-0.2c-0.1,0-0.2-0.1-0.3-0.1c-0.1,0-0.2,0-0.3,0c-0.1,0-0.2,0-0.3,0
			c-0.3,0.2-0.5,0.4-0.7,0.7s-0.3,0.5-0.3,0.8c-0.1,0.3-0.1,0.6-0.1,0.9c0,0.3,0.1,0.5,0.2,0.7s0.2,0.4,0.4,0.6
			c0.1,0.2,0.3,0.3,0.5,0.4c0.2,0.1,0.3,0.2,0.4,0.3c0.2,0.1,0.4,0.2,0.7,0.2c0.3,0.1,0.6,0.1,1,0c0.4,0,0.8-0.2,1.3-0.4
			s1-0.6,1.5-1c0.4-0.3,0.6-0.7,0.9-1C298.1,137,298.3,136.7,298.4,136.4z"/>
		<path class="st2" d="M314.1,147.6c0.7-0.3,1.3-0.6,1.7-0.7c0.2-0.1,0.4-0.2,0.5-0.3s0.3-0.2,0.4-0.2c0.1-0.1,0.2-0.2,0.2-0.2
			s0-0.1,0-0.2c0-0.1-0.1-0.1-0.1-0.2c-0.1-0.1-0.1-0.1-0.2-0.2c-0.1-0.1-0.2-0.1-0.2-0.2c-0.1-0.1-0.1-0.1-0.2-0.2
			c-0.1-0.1-0.2-0.1-0.2-0.1c-0.1,0.1-0.2,0.2-0.3,0.3c-0.1,0.1-0.3,0.2-0.4,0.3s-0.3,0.2-0.5,0.3s-0.7,0.3-1.3,0.6
			c-0.5,0.2-1.3,0.6-2.3,1c-0.2,0.1-0.5,0.2-0.8,0.3c-0.1,0-0.1-0.1-0.2-0.1s-0.2,0-0.5,0c-0.2,0-0.4,0-0.7,0.1
			c-0.3,0-0.5,0-0.8,0.1c-0.3,0-0.6,0-0.8,0c-0.3,0-0.5,0-0.7,0s-0.3-0.1-0.4-0.2c-0.1-0.1-0.1-0.2-0.1-0.2c0-0.1,0-0.2,0.1-0.2
			c0-0.1,0.1-0.2,0.2-0.2c0.1-0.1,0.1-0.1,0.2-0.2c0.1-0.1,0.2-0.1,0.3-0.2c0.1-0.1,0.2-0.1,0.2-0.1c0.1,0,0.1-0.1,0.2-0.1
			s0.1-0.1,0.2-0.1c0.4-0.2,0.7-0.4,0.9-0.6c0.2-0.1,0.4-0.3,0.6-0.4c0.1-0.1,0.2-0.2,0.3-0.2l0.1-0.1c0,0,0-0.1-0.1-0.1
			c0,0-0.1-0.1-0.2-0.1c-0.1-0.1-0.2-0.1-0.3-0.2c0.4-0.1,0.6-0.2,0.7-0.3c0.1-0.2,0.1-0.3,0.1-0.5s-0.1-0.4-0.3-0.6
			c-0.1-0.2-0.4-0.3-0.7-0.5c-0.4-0.1-0.8-0.2-1.3-0.2s-1,0-1.5,0.1c-0.3,0.1-0.6,0.2-0.9,0.3c-0.1,0-0.1,0-0.2,0
			c-0.2,0-0.4,0-0.6,0.1c-0.2,0-0.4,0-0.6,0s-0.4,0-0.5,0c-0.7,0-1.1-0.1-1.3-0.2c-0.2-0.1-0.3-0.2-0.3-0.4c0-0.1,0.1-0.2,0.2-0.3
			s0.3-0.2,0.5-0.3c0.3-0.1,0.6-0.3,0.8-0.4c0.2-0.1,0.4-0.2,0.6-0.3s0.3-0.2,0.5-0.3c0.1-0.1,0.3-0.2,0.4-0.3
			c0.2-0.2,0.3-0.3,0.4-0.5s0.1-0.3,0.1-0.4c0-0.1,0-0.3-0.1-0.4c-0.1-0.1-0.1-0.2-0.2-0.3c-0.2-0.2-0.4-0.3-0.6-0.4
			c-0.2-0.1-0.5-0.1-0.8-0.1s-0.5,0-0.8,0s-0.5,0.1-0.7,0.1c0.7-0.5,1.4-0.9,2.1-1.3c0.7-0.4,1.3-0.8,2-1.2c0.2-0.1,0.3-0.2,0.5-0.3
			c0.1-0.1,0.2-0.2,0.3-0.3c0.1-0.1,0.1-0.2,0.1-0.3c0,0,0-0.1,0-0.2c0-0.1-0.1-0.1-0.1-0.2c-0.1-0.1-0.1-0.1-0.2-0.2
			c-0.1-0.1-0.2-0.1-0.3-0.2c-0.1,0-0.2-0.1-0.2-0.1c-0.1,0-0.2-0.1-0.3-0.1c-0.1,0.1-0.2,0.2-0.3,0.4c-0.1,0.1-0.2,0.2-0.3,0.3
			c-0.1,0.1-0.3,0.2-0.4,0.3c-0.2,0.2-0.6,0.4-1.2,0.8c-0.5,0.3-1.2,0.8-2.1,1.4s-2.1,1.4-3.6,2.5c-0.1,0.1-0.1,0.2-0.1,0.3
			s0,0.2,0,0.2c0,0.1,0.1,0.1,0.1,0.2c0,0.1,0.1,0.1,0.1,0.1s0.1,0.1,0.2,0.1s0.1,0,0.2,0.1c0.2-0.2,0.5-0.3,0.8-0.6
			c0.3-0.2,0.6-0.4,0.8-0.6c0.3-0.2,0.6-0.4,0.9-0.7c0.2-0.1,0.5-0.1,0.7-0.2c0.3,0,0.5-0.1,0.8-0.1c0.2,0,0.5,0,0.7,0.1
			c0.2,0,0.4,0.1,0.5,0.2c0.2,0.1,0.2,0.3,0.1,0.5s-0.3,0.4-0.6,0.5c-0.3,0.2-0.5,0.3-0.9,0.5c-0.3,0.2-0.6,0.3-0.8,0.4
			c-0.3,0.2-0.6,0.4-0.8,0.6c-0.2,0.2-0.3,0.4-0.3,0.7s0,0.5,0.2,0.7c0.1,0.1,0.4,0.2,0.7,0.3c0.3,0.1,0.6,0.1,1,0.1s0.7,0,1.1,0
			c0.2,0,0.4,0,0.6,0c-0.2,0.1-0.3,0.2-0.4,0.3c-0.2,0.2-0.3,0.5-0.4,0.7s-0.1,0.4-0.1,0.6c0,0.2,0.1,0.3,0.2,0.4
			c0.2,0.2,0.4,0.4,0.7,0.5c0.2,0.1,0.5,0.2,0.9,0.3c0.3,0.1,0.7,0.1,1.2,0c-0.2,0.2-0.3,0.3-0.4,0.5c-0.1,0.1-0.2,0.3-0.2,0.4
			c-0.1,0.1-0.1,0.2-0.1,0.4c0,0.1,0.1,0.2,0.1,0.3c0.1,0.1,0.1,0.2,0.2,0.3s0.2,0.2,0.3,0.2c0.1,0.1,0.2,0.1,0.3,0.1
			c0.2,0,0.4,0.1,0.7,0.1c0.3,0,0.7,0,1,0c0.4,0,0.7-0.1,1.1-0.1l0,0c-0.6,0.3-1.2,0.5-1.9,0.9c-0.1,0.1-0.1,0.2-0.1,0.3
			s0,0.2,0,0.2c0,0.1,0,0.1,0.1,0.2c0,0.1,0.1,0.1,0.1,0.2l0.1,0.1c0.1,0,0.1,0.1,0.2,0.1c1.6-0.7,3-1.3,4.1-1.8
			C312.7,148.2,313.5,147.8,314.1,147.6z M305.9,145.8c-0.2,0-0.3,0-0.5,0s-0.3-0.1-0.5-0.1c-0.1-0.1-0.3-0.1-0.4-0.2
			c-0.1-0.1-0.1-0.2-0.1-0.4c0-0.1,0.1-0.2,0.2-0.3s0.3-0.3,0.5-0.4c0.2-0.1,0.4-0.3,0.7-0.4c0.3-0.1,0.5-0.2,0.8-0.3
			c0.7-0.2,1.2-0.2,1.5-0.2s0.5,0.1,0.5,0.3c0,0,0,0.1-0.1,0.1c0,0-0.1,0.1-0.2,0.2c-0.1,0.1-0.2,0.1-0.4,0.2c0.1,0,0.1,0.1,0.2,0.1
			c0.1,0.1,0.1,0.1,0.2,0.1s0.1,0.1,0.1,0.1s0,0.1-0.1,0.2c-0.1,0.1-0.3,0.2-0.5,0.3s-0.4,0.3-0.7,0.4c-0.2,0.1-0.4,0.2-0.6,0.3
			c0,0-0.1,0-0.3,0.1C306.2,145.8,306.1,145.8,305.9,145.8z"/>
		<path class="st2" d="M319.4,149.4c0-0.1-0.1-0.2-0.2-0.3s-0.2-0.2-0.3-0.3c-0.1-0.1-0.1-0.1-0.2-0.2c-0.1-0.1-0.1-0.1-0.2-0.1
			c-0.1,0.1-0.2,0.2-0.3,0.3c-0.2,0.1-0.3,0.2-0.5,0.3s-0.4,0.2-0.7,0.3c-0.2,0.1-0.5,0.2-0.9,0.3s-0.8,0.3-1.3,0.4
			c-0.5,0.2-1,0.3-1.5,0.5s-1,0.3-1.5,0.5s-0.9,0.3-1.4,0.4c-0.4,0.1-0.7,0.2-1,0.3c-0.2,0-0.3,0.1-0.4,0.1
			c-0.1,0.1-0.1,0.1-0.1,0.2c0,0.1,0,0.1,0,0.2c0,0.1,0.1,0.1,0.1,0.2l0.1,0.1l0.1,0.1l0.1,0.1c0.4-0.1,0.7-0.3,1-0.4
			c0.3-0.1,0.6-0.2,0.9-0.3s0.6-0.2,0.9-0.3c0.2,0,0.5,0.1,0.9,0.2c0.3,0.1,0.6,0.1,0.9,0.2c0.1,0,0.3,0.1,0.4,0.1
			c0.1,0.1,0.3,0.1,0.4,0.2c0.1,0.1,0.2,0.2,0.3,0.3c0.1,0.1,0.1,0.2,0,0.3c-0.1,0.2-0.3,0.3-0.5,0.3c-0.3,0-0.6-0.1-1-0.2
			c0-0.1-0.1-0.2-0.1-0.3s-0.1-0.1-0.1-0.2c0,0-0.1-0.1-0.1-0.2c-0.1-0.1-0.1-0.1-0.2-0.2c-0.1,0-0.2-0.1-0.3-0.1
			c-0.1,0-0.2,0-0.3,0.1c-0.1,0.1-0.2,0.2-0.3,0.3c0,0.1,0,0.3,0,0.4c0.1,0.1,0.2,0.2,0.3,0.3c0.1,0.1,0.2,0.1,0.4,0.1
			c0,0.1-0.1,0.2-0.2,0.2c-0.1,0.1-0.2,0.1-0.3,0.2c-0.1,0-0.2,0.1-0.3,0.1c-0.1,0-0.2,0-0.3,0c-0.1,0-0.2,0-0.3,0.1
			c-0.1,0-0.2,0.1-0.3,0.1c-0.2,0.1-0.4,0.3-0.5,0.6c-0.1,0.2-0.1,0.5,0.1,0.8s0.4,0.5,0.8,0.7s0.7,0.3,1.2,0.4
			c0.4,0.1,0.9,0.2,1.4,0.2s0.9,0.1,1.4,0.1c0.3,0,0.4-0.1,0.4-0.2c0-0.1-0.1-0.2-0.3-0.3c-0.2,0-0.4-0.1-0.8-0.1
			c-0.3,0-0.7-0.1-1.1-0.1c-0.4-0.1-0.7-0.2-1.1-0.3c-0.3-0.1-0.6-0.3-0.7-0.5c-0.1-0.1-0.1-0.2-0.1-0.3s0.1-0.1,0.2-0.2
			c0.1-0.1,0.3-0.1,0.5-0.2c0.2,0,0.4-0.1,0.7-0.2c0.2-0.1,0.3-0.2,0.3-0.4c0.1-0.2,0.1-0.3,0.1-0.5c0.1,0.1,0.3,0.1,0.5,0.2
			c0.2,0.1,0.4,0.1,0.6,0.2c0.2,0,0.4,0.1,0.6,0c0.2,0,0.4-0.1,0.6-0.2c0.2-0.1,0.4-0.3,0.5-0.5s0.1-0.5-0.1-0.7
			c-0.1-0.2-0.4-0.4-0.7-0.6c-0.4-0.2-0.7-0.3-1.2-0.4c-0.4-0.1-0.8-0.1-1.1-0.1c0.4-0.1,0.7-0.2,1.1-0.3s0.7-0.2,1.1-0.2
			c0.4-0.1,0.8-0.2,1.2-0.3c0.4-0.1,0.9-0.2,1.4-0.4c0.4-0.1,0.7-0.2,0.9-0.3c0.2-0.1,0.3-0.2,0.4-0.3
			C319.5,149.6,319.5,149.5,319.4,149.4z"/>
	</g>
	<g>
		<path class="st2" d="M104.1,126c0.2-0.1,0.5-0.2,0.7-0.4c0.2-0.2,0.4-0.4,0.6-0.6c0.2-0.3,0.3-0.5,0.4-0.8s0.2-0.6,0.2-1
			c0.4,0.2,0.8,0.4,1.2,0.6c0.4,0.1,0.8,0.3,1.2,0.3c0.4,0.1,0.8,0.1,1.1,0.1c0.4,0,0.7-0.1,1-0.2s0.6-0.3,0.9-0.5
			c0.2-0.2,0.4-0.5,0.5-0.9c0.1-0.3,0.1-0.7,0.1-1.2c0-0.4-0.2-0.9-0.4-1.4c-0.1-0.1-0.1-0.2-0.2-0.3c-0.1-0.1-0.1-0.2-0.2-0.3
			c0.1-0.1,0.1-0.3,0-0.5c0-0.1,0-0.2-0.1-0.3c0-0.1-0.1-0.2-0.1-0.2c-0.1-0.1-0.1-0.1-0.2-0.1s-0.2,0-0.4,0
			c-0.2-0.2-0.4-0.4-0.7-0.6c-0.2-0.2-0.5-0.4-0.8-0.6c-0.1,0-0.2,0-0.3,0c-0.1,0-0.2,0.1-0.3,0.1c-0.1,0.1-0.2,0.1-0.3,0.2
			c-0.2,0.1-0.2,0.3-0.2,0.4s0.1,0.3,0.3,0.3c0.2,0.1,0.3,0.1,0.5,0.2c0.1,0.1,0.3,0.2,0.4,0.2c-0.3,0-0.7,0.1-1.3,0.2
			c-0.6,0.1-1.3,0.2-2,0.3c-0.7,0.1-1.5,0.2-2.3,0.4c-0.8,0.1-1.5,0.2-2.2,0.3c-0.7,0.1-1.2,0.2-1.7,0.3c-0.5,0.1-0.7,0.1-0.8,0.1
			c-0.1,0-0.3,0-0.3,0.1c-0.1,0-0.1,0-0.2,0h-0.1c0,0-0.1,0-0.2,0.1s-0.2,0.1-0.2,0.2s-0.1,0.2-0.1,0.3c0,0.1,0,0.1,0,0.3
			c0,0.1,0,0.3,0.1,0.5c0,0.2,0.1,0.4,0.1,0.6c0.1,0.2,0.1,0.4,0.2,0.7c0.3,0.6,0.6,1.2,1.1,1.7c0.4,0.5,0.9,0.9,1.4,1.2
			c0.5,0.3,1.1,0.5,1.7,0.6C102.9,126.2,103.5,126.2,104.1,126z M105,120.2c0.1,0,0.2,0,0.3-0.1c0.5-0.1,1-0.2,1.5-0.2
			c0.5-0.1,1-0.1,1.4-0.2c0.5-0.1,0.9-0.1,1.3-0.2c0.4,0,0.7-0.1,1-0.1c0.3,0.3,0.5,0.6,0.6,0.9c0.2,0.5,0.2,0.9,0.1,1.3
			c-0.2,0.4-0.6,0.7-1.2,0.9c-0.3,0.1-0.6,0.1-0.9,0.2c-0.3,0-0.7,0-1.1,0s-0.7-0.1-1.1-0.2s-0.7-0.3-0.9-0.4c0-0.1-0.1-0.2-0.1-0.3
			c0-0.1-0.1-0.2-0.1-0.4c-0.1-0.2-0.3-0.4-0.5-0.6s-0.4-0.3-0.6-0.4C104.8,120.3,104.9,120.3,105,120.2z M100.9,124.3
			c-0.4-0.2-0.8-0.5-1.2-0.8c-0.3-0.3-0.6-0.7-0.8-1.1c-0.1-0.1-0.1-0.2-0.1-0.3c0-0.1,0-0.2-0.1-0.3c0-0.1,0-0.2,0-0.3
			c0.8-0.2,1.5-0.3,2.2-0.5s1.3-0.3,1.8-0.4c0.6-0.1,1.2-0.2,1.7-0.3c-0.1,0-0.1,0.1-0.2,0.2s-0.1,0.2-0.1,0.3c0,0.1,0,0.2,0,0.4
			c0,0.1,0.1,0.3,0.2,0.4c0.4,0.4,0.7,0.8,1.1,1.1c0,0.2-0.1,0.3-0.1,0.5c-0.1,0.2-0.2,0.3-0.3,0.5c-0.1,0.2-0.2,0.3-0.4,0.4
			c-0.2,0.1-0.4,0.2-0.6,0.3c-0.5,0.2-1.1,0.3-1.6,0.2C101.8,124.6,101.3,124.5,100.9,124.3z"/>
		<path class="st2" d="M114.5,127.8c0.1,0.1,0.2,0.1,0.3,0.1c0.1,0,0.2,0,0.4,0c0.1,0,0.2-0.1,0.3-0.1c0.1-0.1,0.2-0.1,0.2-0.2
			c0.1-0.1,0.1-0.2,0.2-0.3c0-0.1,0-0.2,0-0.3c0-0.1-0.1-0.2-0.2-0.2c-0.1-0.1-0.2-0.1-0.4-0.1c-0.2,0-0.4,0-0.5,0.1
			c-0.2,0.1-0.3,0.2-0.4,0.3c-0.1,0.1-0.1,0.3-0.1,0.6C114.3,127.7,114.4,127.7,114.5,127.8z"/>
		<path class="st2" d="M115,135.4c0-0.2,0.1-0.3,0.1-0.5s0.1-0.4,0.1-0.6c0-0.2,0-0.4,0.1-0.6c0-0.1,0.1-0.3,0.1-0.5
			c0-0.1,0.1-0.3,0.1-0.5c0.1-0.2,0.1-0.4,0.2-0.6c0.2-0.1,0.4-0.1,0.5-0.2c0.1,0,0.2-0.1,0.3-0.1c0.1,0,0.1-0.1,0.2-0.1
			c0.1-0.1,0.1-0.2,0.1-0.3s0-0.2-0.1-0.4c-0.1-0.1-0.2-0.2-0.4-0.3c-0.2,0-0.4-0.1-0.6,0c-0.2,0-0.5,0.1-0.7,0.1
			c-0.2,0.1-0.4,0.2-0.5,0.2c-0.1,0.1-0.2,0.2-0.2,0.4c0,0.1,0,0.2-0.1,0.3c0,0-0.1,0.1-0.3,0.1c-0.2,0.1-0.3,0.1-0.5,0.2
			c-0.2,0.1-0.4,0.2-0.6,0.2c-0.2,0.1-0.3,0.1-0.4,0.2c-0.1,0.1-0.2,0.1-0.3,0.2l0,0c-0.3,0-0.6,0.1-0.9,0.1c-0.4,0-0.8,0-1.2,0
			c-0.4,0-0.6-0.1-0.8-0.2c-0.1,0-0.1-0.1-0.1-0.2c0-0.1,0-0.2,0-0.3s0.1-0.2,0.2-0.3s0.3-0.2,0.5-0.4c0.2-0.1,0.4-0.2,0.5-0.4
			c0.2-0.1,0.4-0.2,0.5-0.3s0.3-0.2,0.6-0.4c0.3-0.1,0.5-0.3,0.7-0.4c0.2-0.1,0.4-0.3,0.6-0.4c0.2-0.1,0.3-0.2,0.3-0.2
			s-0.1-0.1-0.2-0.1c-0.1-0.1-0.2-0.1-0.3-0.2c-0.1-0.1-0.2-0.1-0.4-0.2c-0.1-0.1-0.2-0.1-0.3-0.1c-0.2,0-0.5,0.2-0.9,0.4
			c-0.3,0.2-0.7,0.5-1,0.7c-0.2,0.2-0.4,0.4-0.6,0.6c-0.1,0-0.1,0-0.2,0c-0.3,0-0.6,0-0.9,0s-0.6,0-0.9-0.1c-0.3,0-0.5-0.1-0.7-0.2
			c-0.2-0.1-0.4-0.2-0.5-0.3c-0.1-0.2-0.2-0.3-0.2-0.4c0-0.1,0.1-0.2,0.2-0.3s0.3-0.2,0.6-0.3c0.3-0.1,0.5-0.1,0.8-0.1
			c0.4,0,0.7-0.1,1-0.1c0.3-0.1,0.5-0.2,0.7-0.3c0.1-0.1,0.2-0.2,0.2-0.3c0.1-0.1,0.1-0.2,0.2-0.4c0-0.1,0.1-0.3,0.1-0.4
			s-0.1-0.3-0.2-0.4s-0.2-0.2-0.2-0.2c-0.1,0-0.1-0.1-0.2-0.2s-0.1-0.1-0.1-0.2s0-0.1,0-0.1c0.2,0,0.4-0.1,0.5-0.2
			c0.2-0.1,0.3-0.2,0.4-0.3c0.1-0.1,0.2-0.3,0.3-0.5c0.1-0.2,0-0.4-0.2-0.6c-0.1-0.1-0.2-0.2-0.4-0.2c-0.2,0-0.4,0-0.6,0
			s-0.4,0.1-0.6,0.1c-0.2,0.1-0.3,0.2-0.4,0.2c-0.1,0.1-0.1,0.2-0.2,0.2c0,0.1,0,0.2,0,0.3c-0.1,0-0.3,0.1-0.6,0.1
			c-0.3,0.1-0.5,0.1-0.9,0.2c-0.3,0.1-0.7,0.2-1,0.3c-0.4,0.1-0.7,0.2-1,0.2c-0.3,0.1-0.6,0.1-0.8,0.2c-0.2,0.1-0.4,0.1-0.4,0.1
			c-0.1,0-0.2,0.1-0.3,0.1c0,0.1-0.1,0.1,0,0.2c0,0.1,0.1,0.1,0.1,0.2c0.1,0,0.2,0.1,0.3,0c0,0,0.2,0,0.4-0.1c0.2,0,0.5-0.1,0.8-0.1
			c0.3-0.1,0.7-0.1,1-0.2c0.4-0.1,0.7-0.1,1.1-0.2c0.3-0.1,0.6-0.1,0.9-0.1s0.4-0.1,0.5-0.1c0,0.1,0.1,0.2,0.1,0.2
			c0,0.1,0.1,0.2,0.2,0.3c0.1,0.1,0.1,0.1,0.1,0.1l0.1,0.1c0,0,0,0,0.1,0.1c0,0,0,0,0.1,0.1s0.1,0.1,0,0.2c0,0.1-0.1,0.1-0.1,0.2
			c-0.1,0.1-0.3,0.2-0.5,0.2c-0.2,0.1-0.5,0.1-0.8,0.2c-0.1,0-0.3,0.1-0.5,0.1s-0.3,0.1-0.5,0.1s-0.3,0.1-0.4,0.1s-0.2,0.1-0.3,0.2
			c-0.1,0.1-0.2,0.2-0.3,0.3c-0.1,0.1-0.2,0.3-0.2,0.5s0,0.3,0,0.5s0.1,0.4,0.3,0.6c0.2,0.2,0.4,0.3,0.6,0.4
			c0.3,0.1,0.6,0.2,0.9,0.2c0.3,0.1,0.7,0.1,1.1,0.1c0.3,0,0.6,0,0.8,0c-0.1,0.2-0.3,0.3-0.3,0.4c-0.1,0.1-0.2,0.3-0.2,0.4
			c0,0.2,0,0.3,0,0.5s0.1,0.3,0.2,0.5c0.1,0.1,0.2,0.3,0.3,0.4c0.2,0.1,0.4,0.2,0.8,0.2s0.8,0,1.3,0s0.9-0.1,1.4-0.2
			c0.5-0.1,0.8-0.2,1.1-0.3c0.1,0,0.2-0.1,0.3-0.2c0.1-0.1,0.1-0.1,0.1-0.2c0,0,0,0-0.1-0.1c0.1-0.1,0.3-0.1,0.4-0.2
			c0.2-0.1,0.3-0.1,0.4-0.2c0,0,0,0.1-0.1,0.2c0,0.1-0.1,0.2-0.1,0.3s-0.1,0.3-0.1,0.4c-0.1,0.2-0.1,0.4-0.2,0.7
			c0,0.2-0.1,0.5-0.2,0.7s-0.1,0.4-0.2,0.6c-0.1,0.2-0.2,0.3-0.3,0.4c-0.1,0.1-0.2,0.1-0.3,0.1c-0.1,0-0.2,0-0.3,0
			c-0.1,0-0.2-0.1-0.3-0.1c-0.1-0.1-0.1-0.1-0.2-0.2c0-0.1,0-0.1,0-0.3c0-0.1,0-0.2,0.1-0.4c0-0.2,0.1-0.4,0.2-0.7
			c-0.1,0-0.2-0.1-0.3-0.1c-0.1,0-0.2,0-0.2,0c-0.1,0-0.1,0-0.2,0s-0.2,0-0.3,0.1c-0.1,0-0.2,0.1-0.3,0.1c-0.1,0-0.2,0.2-0.2,0.3
			c0,0.2-0.1,0.4,0,0.6c0,0.2,0.1,0.4,0.1,0.6c0.1,0.2,0.2,0.4,0.4,0.5c0.2,0.2,0.5,0.3,0.8,0.3s0.6,0,0.9-0.1s0.6-0.1,0.8-0.3
			c0.2-0.1,0.4-0.2,0.5-0.3C114.8,135.6,114.9,135.5,115,135.4z"/>
		<path class="st2" d="M133.3,135.8c-0.1,0-0.2-0.1-0.3-0.2c-0.1-0.1-0.3-0.2-0.5-0.3s-0.5-0.2-0.7-0.3c-0.3-0.1-0.6-0.2-1-0.3
			c0.2-0.5,0.3-0.8,0.4-1.1c0.1-0.3,0.1-0.5,0.1-0.6s-0.1-0.1-0.2-0.2c-0.1,0-0.2-0.1-0.3-0.1s-0.2,0-0.3,0s-0.2,0-0.2,0.1
			c-0.1,0.1-0.3,0.3-0.5,0.6s-0.4,0.7-0.6,1.1c-0.2,0-0.3,0-0.5,0s-0.3,0-0.5-0.1c-0.2,0-0.5-0.1-0.7-0.1c-0.2-0.1-0.4-0.1-0.6-0.2
			c-0.1,0-0.1,0-0.2,0s-0.2,0.1-0.2,0.1c-0.1,0.1-0.1,0.1-0.1,0.2c0,0.1,0,0.1,0.1,0.2c0.1,0.1,0.3,0.2,0.6,0.3
			c0.3,0.1,0.5,0.2,0.8,0.3c0.1,0,0.3,0,0.4,0.1c0.2,0,0.3,0,0.5,0c-0.2,0.5-0.5,1.1-0.7,1.6c-0.2,0.6-0.5,1.1-0.7,1.6
			c-0.1,0.3-0.2,0.6-0.3,0.9c-0.1,0.1-0.3,0.2-0.4,0.2c-0.4,0.2-0.8,0.4-1.2,0.6c-0.4,0.2-0.8,0.3-1.2,0.4c-0.4,0.1-0.8,0.1-1.1,0
			c-0.1,0-0.3-0.1-0.4-0.2c-0.1-0.1-0.2-0.2-0.3-0.3c-0.1-0.1-0.1-0.3-0.1-0.5s0-0.4,0.1-0.6c0.2-0.1,0.4-0.1,0.6-0.2
			c0.2-0.1,0.5-0.1,0.7-0.2c0.2-0.1,0.5-0.1,0.7-0.2c0.3-0.1,0.5-0.2,0.7-0.3s0.5-0.3,0.7-0.5s0.4-0.4,0.5-0.7
			c0.1-0.2,0.1-0.5,0-0.7s-0.3-0.4-0.7-0.5c-0.4-0.1-0.8-0.1-1.2,0c-0.4,0.1-0.8,0.3-1.2,0.5c-0.4,0.3-0.8,0.6-1.1,0.9
			c-0.3,0.3-0.6,0.7-0.7,1.1c0,0.1,0,0.1-0.1,0.2c-0.2,0.1-0.3,0.2-0.5,0.2c-0.3,0.1-0.7,0.3-1,0.3c-0.3,0.1-0.6,0.1-0.9-0.1
			c-0.1-0.1-0.2-0.1-0.2-0.2c0-0.1,0-0.2,0-0.3c0.1-0.1,0.2-0.3,0.4-0.4c0.2-0.1,0.3-0.3,0.4-0.5s0.1-0.3,0.1-0.5s-0.1-0.3-0.2-0.4
			c0.1,0,0.3,0,0.5-0.1c0.2,0,0.4-0.1,0.6-0.2c0.2-0.1,0.4-0.2,0.6-0.3s0.3-0.3,0.4-0.5s0.2-0.5,0.2-0.7s-0.2-0.4-0.5-0.6
			c-0.2-0.1-0.5-0.2-1-0.1c-0.4,0-0.8,0.1-1.2,0.3c-0.4,0.2-0.7,0.3-1,0.5c0.2-0.3,0.5-0.6,0.8-0.8c0.3-0.3,0.5-0.5,0.8-0.8
			s0.6-0.6,0.9-0.9c0.3-0.3,0.6-0.7,1-1.1c0.3-0.3,0.5-0.6,0.6-0.7c0.1-0.2,0.2-0.3,0.2-0.4c0-0.1-0.1-0.2-0.1-0.2s-0.2-0.1-0.4-0.2
			c-0.1,0-0.3-0.1-0.4-0.1s-0.2,0-0.3,0c-0.1,0-0.2,0-0.2,0c0,0.1-0.1,0.2-0.2,0.4s-0.2,0.3-0.3,0.5c-0.1,0.2-0.3,0.4-0.4,0.6
			c-0.1,0.2-0.3,0.4-0.6,0.8c-0.2,0.3-0.5,0.7-0.8,1.1c-0.3,0.4-0.7,0.8-1,1.2c-0.4,0.4-0.7,0.8-1,1.2s-0.6,0.7-0.9,1.1
			c-0.3,0.3-0.5,0.6-0.7,0.8c-0.1,0.1-0.2,0.2-0.2,0.3s0,0.2,0,0.2c0,0.1,0.1,0.1,0.1,0.1c0.1,0,0.1,0.1,0.2,0.1s0.1,0,0.2,0.1
			c0,0,0.1,0,0.2,0s0.1,0,0.2,0c0.2-0.3,0.5-0.6,0.7-0.9c0.2-0.3,0.4-0.5,0.6-0.8s0.4-0.5,0.6-0.7c0.2-0.1,0.5-0.2,0.8-0.3
			s0.6-0.2,0.9-0.3c0.1,0,0.3-0.1,0.4-0.1s0.3-0.1,0.4-0.1s0.3,0,0.4,0.1s0.2,0.2,0.2,0.3c0,0.2-0.1,0.4-0.3,0.5
			c-0.2,0.1-0.6,0.3-1,0.4c-0.1-0.1-0.2-0.1-0.2-0.2c-0.1,0-0.1-0.1-0.2-0.1s-0.1,0-0.2-0.1c-0.1,0-0.2,0-0.3,0
			c-0.1,0-0.2,0-0.3,0.1c-0.1,0-0.2,0.1-0.2,0.3c-0.1,0.1-0.1,0.3-0.1,0.4c0,0.1,0.1,0.2,0.2,0.3s0.3,0.1,0.4,0.1s0.3,0,0.4-0.1
			c0,0.1,0,0.2,0,0.3s-0.1,0.2-0.2,0.3s-0.1,0.2-0.2,0.2c-0.1,0.1-0.1,0.1-0.2,0.2c-0.1,0.1-0.1,0.1-0.2,0.2
			c-0.1,0.1-0.1,0.2-0.2,0.3c-0.1,0.2-0.2,0.5-0.1,0.8c0,0.3,0.2,0.5,0.5,0.6s0.6,0.2,1,0.2s0.8-0.1,1.2-0.3
			c0.3-0.1,0.6-0.2,0.8-0.4c0,0.1,0,0.2,0,0.3c0,0.4,0.1,0.7,0.2,0.9c0.1,0.3,0.3,0.5,0.5,0.6c0.2,0.2,0.4,0.3,0.6,0.4
			c0.4,0.1,0.8,0.2,1.3,0.1c0.5,0,0.9-0.2,1.4-0.3c0.5-0.2,1-0.4,1.4-0.6c0.1-0.1,0.2-0.1,0.3-0.2c-0.1,0.2-0.1,0.3-0.1,0.4
			c-0.1,0.2-0.1,0.4-0.1,0.6c0,0.2,0,0.4,0.1,0.6c0.1,0.2,0.2,0.4,0.4,0.5c0.2,0.2,0.4,0.3,0.7,0.3c0.2,0,0.5,0,0.9-0.2
			s0.8-0.4,1.2-0.7s0.8-0.6,1.2-1c0.4-0.3,0.7-0.7,1-1c0.1-0.1,0.1-0.2,0.1-0.3s0-0.1,0-0.2l-0.1-0.1c-0.1,0-0.1,0-0.2,0.1
			c-0.1,0.1-0.2,0.2-0.4,0.3c-0.2,0.2-0.4,0.3-0.6,0.5c-0.2,0.2-0.5,0.4-0.8,0.6c-0.3,0.2-0.5,0.4-0.8,0.5c-0.3,0.2-0.5,0.3-0.7,0.3
			c-0.2,0.1-0.4,0.1-0.5,0c-0.2,0-0.3-0.1-0.4-0.3c-0.1-0.1-0.1-0.3-0.2-0.5c0-0.2,0-0.5,0.2-0.9c0.4-0.5,0.7-1,1-1.4
			c0.3-0.5,0.6-0.9,0.8-1.2c0.2-0.4,0.5-0.8,0.7-1.1c0.1-0.1,0.2-0.3,0.2-0.4c0.1-0.1,0.1-0.3,0.2-0.4c0.1,0,0.1,0,0.2,0
			c0.1,0,0.1,0,0.2,0c0.3,0.1,0.6,0.1,0.8,0.2c0.2,0.1,0.4,0.1,0.6,0.2c0.2,0.1,0.3,0.1,0.4,0.2c0.1,0.1,0.2,0.1,0.3,0.1
			s0.2,0,0.3,0s0.2-0.1,0.2-0.2c0-0.1,0.1-0.1,0.1-0.2C133.4,135.9,133.4,135.8,133.3,135.8z M123.2,137.4c0.2-0.3,0.4-0.5,0.7-0.6
			c0.2-0.2,0.4-0.3,0.6-0.3c0.2-0.1,0.3-0.1,0.4,0c0.1,0,0.2,0.1,0.2,0.2c0,0.1,0,0.2-0.1,0.4s-0.2,0.3-0.5,0.5
			c-0.2,0.2-0.6,0.3-1.1,0.5c-0.2,0.1-0.3,0.1-0.5,0.2c-0.1,0-0.3,0.1-0.4,0.1c0.2-0.1,0.3-0.3,0.2-0.4l0,0
			C123,137.7,123.1,137.5,123.2,137.4z"/>
	</g>
	<g>
		<path class="st2" d="M184.8,116.6c-0.3-0.4-0.7-0.7-1.2-0.9c-0.5-0.2-1.1-0.3-1.8-0.2c-0.7,0.1-1.4,0.2-2,0.4
			c-0.6,0.2-1.1,0.4-1.5,0.7c-0.4,0.2-0.8,0.5-1.1,0.7s-0.5,0.4-0.6,0.5c-0.3,0.2-0.4,0.4-0.4,0.6s0.1,0.4,0.2,0.5
			c0,0.1,0.1,0.1,0.1,0.2c0.1,0.1,0.2,0.3,0.4,0.4c0.2-0.2,0.4-0.5,0.5-0.7c0.2-0.2,0.4-0.4,0.5-0.6c0.2-0.2,0.4-0.4,0.6-0.5
			c0,0.3-0.1,0.7-0.2,1.3c-0.1,0.5-0.2,1.1-0.3,1.8c-0.1,0.7-0.2,1.4-0.3,2.1s-0.2,1.5-0.3,2.2s-0.2,1.4-0.3,2s-0.1,1.1-0.2,1.5
			c-0.1,0.7-0.2,1.3-0.3,1.8c-0.1,0.4-0.2,0.8-0.3,1s-0.2,0.4-0.3,0.5s-0.2,0.2-0.2,0.2c0.2,0.2,0.4,0.3,0.6,0.4
			c0.2,0.1,0.4,0.1,0.6,0.1c0.4,0,0.7-0.2,0.9-0.4s0.3-0.5,0.4-0.8c0.1-0.3,0.2-0.6,0.2-1c0.1-0.4,0.1-0.8,0.2-1.3
			c0.1-0.5,0.1-0.9,0.1-1.4c0-0.5,0.1-0.9,0.1-1.4c1.1-0.2,2.1-0.6,3-1.1c0.8-0.5,1.5-1.1,2.1-1.8c0.5-0.7,1-1.4,1.2-2.1
			c0.3-0.8,0.4-1.5,0.4-2.1c0-0.4-0.1-0.8-0.2-1.2C185.3,117.5,185.1,117,184.8,116.6z M183.7,120.9c-0.1,0.5-0.3,1-0.6,1.4
			s-0.6,0.8-0.9,1.2c-0.3,0.3-0.7,0.6-1,0.9c-0.4,0.3-0.7,0.5-1.1,0.6c-0.4,0.2-0.7,0.3-1,0.4c0-0.4,0-0.7,0.1-1c0-0.3,0-0.6,0-0.7
			c0-0.3,0.1-0.8,0.1-1.4c0-0.5,0.1-1.1,0.2-1.9c0.1-0.8,0.2-1.8,0.4-2.9c0-0.1-0.1-0.2-0.2-0.3c-0.1,0-0.1-0.1-0.1-0.1
			c0.3-0.2,0.5-0.3,0.8-0.4s0.6-0.2,0.8-0.2c0.3,0,0.6,0,0.9,0c0.3,0.1,0.6,0.2,0.9,0.4c0.3,0.2,0.5,0.5,0.6,0.9
			c0.2,0.4,0.3,0.9,0.3,1.5S183.8,120.4,183.7,120.9z"/>
		<path class="st2" d="M189,115.7c0-0.1-0.1-0.1-0.2-0.1c-0.1,0-0.2,0-0.3,0s-0.2,0-0.3,0.1c-0.1,0-0.3,0.1-0.4,0.1
			c-0.1,0-0.2,0.1-0.3,0.1s-0.2,0.1-0.3,0.2c0.1,0.2,0.1,0.3,0.1,0.5s0,0.4,0,0.6s0,0.4,0,0.7c0,0.3-0.1,0.9-0.2,1.7
			c-0.1,0.7-0.2,1.7-0.4,3.1c-0.2,1.3-0.4,3.1-0.6,5.4c0.1,0.1,0.1,0.2,0.2,0.3c0.1,0.1,0.2,0.1,0.2,0.2c0.1,0,0.2,0.1,0.3,0.1
			s0.2,0,0.3,0s0.1,0,0.2-0.1c0.1,0,0.1-0.1,0.2-0.1c0.3-2.2,0.5-4,0.7-5.4s0.3-2.6,0.5-3.4c0.1-1,0.2-1.7,0.3-2.2
			c0-0.3,0.1-0.5,0.1-0.7s0-0.4,0-0.5C189.1,115.9,189,115.8,189,115.7z"/>
		<path class="st2" d="M211.1,121.2c-0.1,0-0.1,0-0.2,0c-0.1,0-0.2,0.1-0.2,0.2c-0.2,0.3-0.5,0.7-0.8,1.1s-0.7,0.8-1,1.2
			c-0.4,0.4-0.8,0.8-1.2,1.1c-0.4,0.3-0.8,0.5-1.2,0.5c-0.2,0-0.4,0-0.6,0c-0.2,0-0.4-0.1-0.5-0.2c-0.2-0.1-0.3-0.3-0.4-0.4
			c-0.1-0.2-0.2-0.4-0.2-0.7c0.2-0.1,0.3-0.3,0.6-0.5c0.2-0.2,0.4-0.4,0.7-0.6c0.2-0.2,0.4-0.4,0.7-0.6c0.2-0.2,0.5-0.5,0.7-0.8
			s0.4-0.6,0.5-0.9s0.2-0.7,0.2-1s-0.1-0.6-0.4-0.8c-0.2-0.2-0.6-0.3-1-0.2c-0.5,0.1-0.9,0.3-1.3,0.6c-0.4,0.3-0.8,0.8-1.1,1.2
			c-0.3,0.5-0.6,1-0.8,1.6c-0.2,0.5-0.2,0.9-0.2,1.3c-0.2,0.3-0.4,0.6-0.6,0.8c-0.2,0.3-0.5,0.6-0.7,0.9s-0.5,0.5-0.7,0.7
			s-0.4,0.3-0.6,0.3c-0.2,0-0.4,0-0.6-0.1c-0.1-0.1-0.3-0.3-0.4-0.5c-0.1-0.3-0.2-0.6-0.2-1.1c0.2-0.7,0.4-1.4,0.6-2.1
			c0.2-0.6,0.3-1.2,0.4-1.7c0.1-0.6,0.2-1.1,0.3-1.6c0-0.2,0.1-0.4,0.1-0.6s0-0.4,0.1-0.6c0.1,0,0.2,0,0.3,0s0.2,0,0.2,0
			c0.4,0,0.7-0.1,1-0.1s0.5,0,0.7,0s0.4,0,0.5,0c0.2,0,0.3,0,0.4,0c0.1,0,0.2,0,0.3-0.1s0.1-0.2,0.2-0.3c0-0.1,0-0.2,0-0.3
			c0-0.1-0.1-0.1-0.2-0.2c-0.1,0-0.2,0-0.4-0.1c-0.2,0-0.4-0.1-0.7-0.1s-0.6-0.1-1-0.1s-0.8,0-1.3,0.1c0-0.6,0.1-1.1,0-1.5
			c0-0.4-0.1-0.6-0.2-0.7c-0.1-0.1-0.2-0.1-0.3-0.1s-0.3,0-0.4,0c-0.1,0-0.3,0.1-0.4,0.1c-0.1,0.1-0.2,0.1-0.2,0.2
			c-0.1,0.2-0.2,0.5-0.3,0.9s-0.2,0.9-0.3,1.5c-0.2,0.1-0.4,0.1-0.6,0.2c-0.2,0-0.4,0.1-0.6,0.1c-0.3,0-0.6,0.1-0.8,0.1
			c-0.3,0-0.5,0-0.7,0c-0.1,0-0.1,0.1-0.2,0.1c-0.1,0.1-0.1,0.2-0.2,0.3c0,0.1-0.1,0.2-0.1,0.3c0,0.1,0,0.2,0.1,0.2
			c0.2,0.1,0.4,0.1,0.8,0.2c0.3,0,0.7,0,1.1,0c0.2,0,0.3-0.1,0.5-0.1s0.4-0.1,0.6-0.1c-0.1,0.7-0.2,1.4-0.2,2.2
			c-0.1,0.7-0.1,1.4-0.2,2.1c0,0.1,0,0.3,0,0.4c-0.1,0.1-0.1,0.2-0.3,0.4c-0.1,0.2-0.3,0.5-0.5,0.7c-0.2,0.3-0.4,0.6-0.5,0.9
			c-0.2,0.3-0.4,0.6-0.6,0.8c-0.2,0.3-0.4,0.5-0.5,0.6c-0.2,0.2-0.3,0.3-0.4,0.3c-0.1,0-0.3,0-0.3-0.1c-0.1-0.1-0.1-0.1-0.2-0.2
			c0-0.1-0.1-0.2-0.1-0.3c0-0.1,0-0.2,0-0.3c0-0.2,0-0.3,0-0.4s0-0.2,0-0.3c0-0.1,0-0.2,0-0.3c0-0.1,0-0.2,0-0.3
			c0.1-0.6,0.1-1,0.1-1.3s0.1-0.6,0.1-0.8c0-0.2,0-0.3,0-0.4s0-0.1,0-0.1h-0.1c-0.1,0-0.1,0-0.3,0c-0.1,0-0.2,0.1-0.4,0.1
			c0.2-0.4,0.3-0.7,0.2-0.9c-0.1-0.2-0.2-0.4-0.4-0.5s-0.5-0.2-0.8-0.2s-0.6,0.1-1,0.4s-0.8,0.6-1.1,1.1c-0.4,0.5-0.7,1-1,1.6
			s-0.5,1.3-0.6,2c-0.1,0.5-0.1,1,0,1.4s0.2,0.7,0.4,0.9c0.2,0.2,0.3,0.4,0.5,0.5c0.2,0.1,0.4,0.1,0.5,0.1c0.3-0.1,0.7-0.2,1-0.4
			c0.3-0.2,0.6-0.4,0.9-0.7c0.3-0.3,0.6-0.7,0.8-1.2c0,0.3,0.1,0.6,0.2,0.8c0.1,0.2,0.2,0.4,0.2,0.5c0.1,0.1,0.2,0.2,0.3,0.3
			c0.1,0.1,0.2,0.1,0.4,0.1c0.1,0,0.3,0,0.5,0s0.3-0.1,0.5-0.1c0.1-0.1,0.3-0.1,0.4-0.2c0.2-0.1,0.4-0.4,0.6-0.7
			c0.2-0.3,0.5-0.7,0.7-1s0.5-0.8,0.7-1.1c0-0.1,0.1-0.1,0.1-0.2c0,0.5,0,0.8,0,0.9c0,0.2,0,0.5,0.1,0.7c0.1,0.3,0.2,0.5,0.4,0.7
			s0.4,0.4,0.7,0.5s0.6,0.2,1,0.1c0.3,0,0.6-0.2,0.9-0.6c0.4-0.3,0.7-0.8,1.1-1.3c0.2-0.3,0.4-0.6,0.6-0.9c0.1,0.2,0.1,0.4,0.2,0.6
			c0.2,0.4,0.4,0.7,0.7,0.9c0.3,0.2,0.6,0.4,0.9,0.5c0.3,0.1,0.6,0.1,0.9,0.1c0.5-0.1,1-0.2,1.5-0.5s1-0.7,1.4-1.1
			c0.5-0.4,0.9-0.9,1.3-1.5c0.4-0.5,0.7-1.1,1-1.6c0.1-0.1,0.1-0.3,0.1-0.4C211.2,121.3,211.2,121.2,211.1,121.2z M194.1,122.9
			c0,0.3-0.1,0.6-0.1,0.9s-0.1,0.6-0.1,0.9c0,0.1,0,0.2-0.1,0.3c-0.1,0.1-0.2,0.3-0.3,0.5s-0.3,0.3-0.4,0.5
			c-0.2,0.2-0.3,0.3-0.5,0.4s-0.3,0.2-0.5,0.2s-0.3,0-0.5-0.1c-0.1-0.1-0.1-0.2-0.2-0.4c-0.1-0.2-0.1-0.5-0.1-0.8s0-0.6,0.1-1
			s0.2-0.7,0.3-1c0.3-0.8,0.6-1.3,0.9-1.6c0.3-0.3,0.5-0.4,0.6-0.3c0,0,0.1,0.1,0.1,0.2s0,0.2,0,0.3c0,0.1,0,0.3-0.1,0.5
			c0.1,0,0.2-0.1,0.3-0.1s0.2-0.1,0.2-0.1c0.1,0,0.1-0.1,0.2-0.1c0,0,0.1,0.1,0.1,0.3C194.2,122.4,194.2,122.6,194.1,122.9z
			 M205,121.6c0.1-0.4,0.3-0.7,0.4-1c0.2-0.3,0.3-0.5,0.5-0.7s0.3-0.3,0.5-0.3c0.1,0,0.2,0,0.3,0.1s0.1,0.2,0.1,0.5
			c0,0.2-0.1,0.5-0.2,0.8c-0.2,0.3-0.5,0.7-0.9,1.1c-0.1,0.1-0.3,0.3-0.4,0.4c-0.2,0.1-0.3,0.3-0.4,0.4
			C204.8,122.4,204.8,122,205,121.6z"/>
	</g>
	<g>
		<path class="st2" d="M175.2,61.4c0.7-0.4,1.5-0.7,2.3-0.9c0.9-0.2,1.8-0.3,2.7-0.5c0.7-0.1,1.3-0.3,1.8-0.5s0.9-0.4,1.1-0.6
			c0.3-0.2,0.5-0.5,0.6-0.7c0.1-0.3,0.2-0.6,0.2-0.9c0-0.5-0.1-0.9-0.4-1.2c-0.3-0.3-0.6-0.6-0.9-0.8c-0.3-0.2-0.6-0.4-0.9-0.5
			c-0.3-0.1-0.4-0.2-0.4-0.2c0.1,0.2,0.3,0.4,0.4,0.7c0.1,0.3,0.2,0.6,0.2,0.9c0,0.3,0,0.6-0.2,0.9c-0.2,0.3-0.5,0.5-0.9,0.6
			c-0.3,0.1-0.6,0.2-1,0.3s-0.9,0.2-1.3,0.4c-0.5,0.1-1,0.3-1.5,0.5s-1,0.4-1.5,0.6c-0.4,0.1-0.7,0.3-0.9,0.5
			c-0.3,0.2-0.5,0.3-0.8,0.5c-0.5-0.9-1.1-1.6-1.8-2.2c-0.7-0.6-1.4-1.2-2.2-1.6c-0.7-0.4-1.5-0.7-2.3-0.9s-1.5-0.2-2.1-0.2
			c-0.5,0-1,0.1-1.6,0.3s-1.2,0.5-1.7,0.9s-0.9,0.9-1.2,1.6c-0.3,0.7-0.4,1.5-0.2,2.4c0.1,1,0.4,1.8,0.7,2.6s0.6,1.4,1,2
			c0.3,0.6,0.7,1,1,1.4s0.6,0.6,0.7,0.8c0.3,0.3,0.6,0.5,0.9,0.4c0.3,0,0.5-0.1,0.7-0.3c0.1,0,0.2-0.1,0.3-0.2s0.2-0.1,0.2-0.2
			c0.1-0.1,0.2-0.2,0.3-0.3c-0.3-0.2-0.6-0.4-0.9-0.7c-0.3-0.2-0.6-0.5-0.8-0.7c-0.3-0.2-0.5-0.5-0.7-0.7c0.4,0,0.8,0.1,1.4,0.2
			c0.6,0.1,1.3,0.1,2,0.2s1.5,0.2,2.4,0.2c0.8,0.1,1.7,0.2,2.5,0.2c0.2,0.4,0.4,0.7,0.7,1s0.6,0.4,1,0.3c0.6,0,1-0.4,1.2-1.1
			c0.6,0.1,1.2,0.1,1.8,0.2c0.5,0.1,1,0.1,1.4,0.1c1,0.1,1.7,0.2,2.3,0.3c0.6,0.1,1,0.3,1.4,0.4c0.3,0.1,0.5,0.3,0.7,0.4
			c0.1,0.1,0.2,0.2,0.3,0.3c0.2-0.3,0.4-0.5,0.5-0.8c0.1-0.2,0.1-0.5,0.1-0.8c-0.1-0.5-0.3-0.9-0.5-1.1c-0.3-0.2-0.6-0.4-1-0.4
			c-0.4-0.1-0.8-0.2-1.4-0.2c-0.5-0.1-1.1-0.1-1.7-0.2c-0.6,0-1.2-0.1-1.9-0.1c-0.6,0-1.2-0.1-1.8-0.1c-0.2-0.8-0.4-1.5-0.6-2.1
			c0.1-0.1,0.2-0.1,0.3-0.2C175,61.5,175.1,61.4,175.2,61.4z M172.3,62.6c-0.1,0.4-0.2,0.8-0.2,1.1c-0.1,0-0.1,0-0.2,0s-0.1,0-0.2,0
			c-0.5,0-1.1,0-1.8-0.1c-0.6,0-1.5-0.1-2.5-0.2c-1-0.1-2.3-0.2-3.9-0.3c-0.1,0-0.1,0.1-0.2,0.1c-0.1,0-0.1,0.1-0.2,0.1
			c-0.1,0.1-0.1,0.1-0.1,0.2c-0.2-0.3-0.4-0.7-0.6-1c-0.2-0.4-0.3-0.7-0.3-1.1c-0.1-0.4-0.1-0.8,0-1.2s0.2-0.8,0.5-1.2
			s0.6-0.7,1.1-0.9s1.1-0.4,1.9-0.4c0.9-0.1,1.7,0,2.4,0.2s1.4,0.5,2,0.8s1.1,0.8,1.6,1.2c0.5,0.5,0.9,1,1.2,1.5
			C172.6,61.9,172.4,62.2,172.3,62.6z M173.3,63.8c0-0.4,0.1-0.8,0.3-1.1c0.1,0.2,0.2,0.4,0.2,0.6c0.1,0.2,0.1,0.4,0.2,0.5
			C173.8,63.8,173.5,63.8,173.3,63.8z"/>
		<path class="st2" d="M163.9,51.1c-0.2-0.1-0.4-0.2-0.5-0.2c-0.2,0-0.3,0-0.5,0s-0.4,0.1-0.5,0.2c-0.2,0.1-0.3,0.2-0.4,0.3
			c-0.1,0.1-0.1,0.3,0,0.4c0.1,0.2,0.2,0.3,0.4,0.6c0.2,0.2,0.5,0.4,0.7,0.5c0.3,0.1,0.6,0.1,0.8,0.1c0.3-0.1,0.5-0.3,0.7-0.6
			c0.1-0.1,0.1-0.3,0-0.4c-0.1-0.2-0.1-0.3-0.3-0.5C164.2,51.4,164.1,51.3,163.9,51.1z"/>
		<path class="st2" d="M162.7,46.9c0.7,0.1,1.4,0.3,2.3,0.5c0.8,0.1,1.7,0.3,2.6,0.4c0.9,0.1,1.7,0.1,2.6,0.2c0.7,0,1.3,0,1.9-0.1
			c0.1,0.1,0.3,0.2,0.4,0.3c0.5,0.3,1.1,0.7,1.6,1.1c0.5,0.4,1,0.8,1.4,1.2s0.6,0.8,0.7,1.1c0,0.1,0,0.2-0.1,0.3s-0.2,0.2-0.3,0.3
			s-0.4,0.2-0.7,0.2s-0.6,0-1,0c-0.3,0-0.7-0.1-1.1-0.1c-0.4-0.1-0.7-0.1-1-0.1s-0.7-0.1-1.1-0.2c-0.5-0.1-0.9-0.2-1.3-0.2
			c-0.4-0.1-0.8-0.1-1.1-0.2c-0.3,0-0.5-0.1-0.5,0c0,0,0,0.1,0,0.3s0.1,0.4,0.2,0.6c0.1,0.2,0.2,0.4,0.2,0.6
			c0.1,0.2,0.2,0.3,0.3,0.4c0.3,0.2,0.8,0.3,1.5,0.4c0.7,0.1,1.3,0.2,2.1,0.2c0.7,0,1.4,0,2.1-0.1c0.7-0.1,1.2-0.1,1.6-0.2
			c0.3-0.1,0.5-0.2,0.7-0.3c0.2-0.2,0.4-0.4,0.5-0.6c0.1-0.2,0.2-0.5,0.3-0.7c0.1-0.3,0.1-0.5,0-0.8s-0.3-0.7-0.8-1.2
			s-1-0.9-1.6-1.4c-0.5-0.4-1.1-0.7-1.6-1.1c0.7-0.1,1.2-0.3,1.6-0.5c0.6-0.3,1-0.6,1.2-0.9c0.2-0.3,0.4-0.6,0.4-0.9
			c0-0.3,0-0.5,0-0.7c-0.1-0.5-0.4-1.1-0.8-1.6c-0.5-0.5-1.1-0.9-1.7-1.3c-0.7-0.4-1.4-0.7-2.2-0.9s-1.5-0.3-2.1-0.3
			c0-0.3-0.1-0.6-0.2-0.9c-0.1-0.3-0.2-0.7-0.4-1c-0.2-0.4-0.4-0.7-0.6-1.1c-0.2-0.4-0.5-0.7-0.7-1c-0.1-0.1-0.2-0.2-0.3-0.2
			s-0.2,0-0.3,0c-0.1,0.1-0.1,0.1-0.2,0.2c0,0.1,0,0.2,0.1,0.4c0.4,0.6,0.7,1.2,0.9,1.8c0.3,0.6,0.5,1.3,0.6,1.9
			c-0.5,0.1-0.9,0.3-1.2,0.6c-0.3,0.2-0.4,0.5-0.4,0.7s0.1,0.3,0.2,0.5c0.1,0.2,0.2,0.4,0.4,0.5s0.3,0.3,0.6,0.4
			c0.2,0.1,0.4,0.1,0.6,0.1c0.3,0,0.6-0.2,0.7-0.4c0.2-0.2,0.3-0.5,0.3-0.8c0.5,0,1,0,1.6,0.1s1.1,0.3,1.7,0.5
			c0.5,0.2,1,0.5,1.4,0.8s0.6,0.6,0.7,1c0.1,0.4-0.2,0.8-0.9,1c-0.7,0.3-1.5,0.4-2.7,0.4c-0.5-0.2-1-0.4-1.7-0.6
			c-0.6-0.2-1.3-0.4-2.1-0.6c-0.8-0.2-1.6-0.4-2.5-0.5c-0.9-0.2-1.8-0.3-2.7-0.4c-1-0.1-1.8-0.1-2.4-0.1c-0.6,0.1-1,0.1-1,0.2
			c0,0.1,0,0.2,0,0.3c0,0.2,0,0.3,0.1,0.5s0.2,0.3,0.3,0.5s0.3,0.3,0.5,0.4c0.1,0.1,0.4,0.2,0.9,0.3C161.4,46.6,162,46.8,162.7,46.9
			z"/>
	</g>
	<g>
		<path class="st2" d="M219.8,67c-0.1-0.7-0.3-1.3-0.7-1.8s-0.8-1-1.3-1.4c0.2-0.4,0.4-0.8,0.6-1.2c0.2-0.4,0.4-0.9,0.6-1.4
			c0.2-0.5,0.3-1,0.4-1.5c0.1-0.5,0.1-1.1,0-1.7c-0.1-0.6-0.3-1-0.6-1.3s-0.7-0.6-1.1-0.7c-0.4-0.1-0.8-0.2-1.2-0.2
			s-0.6,0.1-0.8,0.2c0.4,0.2,0.7,0.5,0.9,0.8s0.4,0.6,0.5,0.9c0.1,0.3,0.3,0.7,0.3,1.1c0.1,0.4,0,0.7,0,1c-0.1,0.3-0.1,0.7-0.3,1
			c-0.1,0.3-0.3,0.7-0.4,1c-0.2,0.3-0.3,0.7-0.4,1c-0.7-0.4-1.5-0.7-2.3-0.9s-1.5-0.4-2.1-0.5c-0.7-0.1-1.5-0.3-2.6-0.4
			c-1-0.1-2.1-0.2-3.1-0.3c-0.5-0.7-1-1.3-1.6-1.9c-0.6-0.5-1.2-1-1.9-1.4c-0.6-0.4-1.3-0.6-1.9-0.8c-0.6-0.2-1.2-0.2-1.7-0.1
			c-0.2,0-0.5,0.1-0.7,0.1c-0.3,0.1-0.5,0.2-0.7,0.3c-0.2,0.2-0.4,0.3-0.5,0.6c-0.1,0.2-0.2,0.6-0.1,0.9c0.1,0.5,0.2,1,0.4,1.3
			c0.2,0.4,0.5,0.7,0.8,1s0.7,0.5,1.2,0.7c0.4,0.2,0.9,0.4,1.5,0.6c0.5,0.2,1.1,0.3,1.9,0.3c0.8,0.1,1.6,0.1,2.6,0.2
			c0.2,0.4,0.4,0.8,0.5,1.3c0.1,0.4,0.2,0.9,0.3,1.3c0,0.2,0.1,0.5,0,0.8c0,0.2,0,0.5-0.1,0.7c0,0.3-0.1,0.5-0.3,0.8
			c0.3,0.1,0.5,0.1,0.7,0s0.4-0.2,0.5-0.3c0.2-0.2,0.4-0.6,0.5-1.1s0.1-1.2,0-1.9c0-0.2-0.1-0.5-0.1-0.7c-0.1-0.2-0.1-0.5-0.2-0.7
			c0.9,0,1.9,0.1,2.9,0.2c1,0.1,2,0.3,3,0.5c0.5,0.1,1,0.2,1.4,0.3s0.8,0.2,1.1,0.4c0,0.2-0.1,0.5-0.1,0.7s0,0.5,0,0.8
			c0.1,0.7,0.3,1.3,0.5,1.7c0.2,0.4,0.5,0.7,0.7,1c0.3,0.2,0.5,0.4,0.8,0.4c0.3,0.1,0.5,0.1,0.7,0.1c0.5,0,0.9-0.3,1.1-0.6
			C219.7,68,219.8,67.6,219.8,67z M202.2,60.4c-0.5-0.1-0.8-0.1-1.1-0.1c-0.7-0.1-1.2-0.3-1.6-0.6c-0.4-0.3-0.6-0.5-0.6-0.8
			c0-0.2,0.2-0.4,0.6-0.5c0.7-0.1,1.4,0,2.2,0.4s1.5,1,2.1,1.7C203.2,60.6,202.6,60.5,202.2,60.4z M218.4,67c0,0.1-0.1,0.2-0.2,0.2
			c-0.2,0-0.3-0.1-0.5-0.3c-0.2-0.2-0.3-0.6-0.4-1.2c0-0.1,0-0.3,0-0.5c0.4,0.3,0.7,0.6,0.8,0.8c0.1,0.3,0.2,0.5,0.3,0.7
			C218.5,66.8,218.5,66.9,218.4,67z"/>
		<path class="st2" d="M197.4,44.6c0.2,0.2,0.5,0.4,0.7,0.5c0.3,0.1,0.6,0.1,0.8,0.1c0.3-0.1,0.5-0.3,0.7-0.6c0.1-0.1,0.1-0.3,0-0.4
			c-0.1-0.2-0.1-0.3-0.3-0.5c-0.1-0.1-0.3-0.3-0.5-0.4c-0.2-0.1-0.4-0.2-0.5-0.2c-0.2,0-0.3,0-0.5,0s-0.4,0.1-0.5,0.2
			c-0.2,0.1-0.3,0.2-0.4,0.3c-0.1,0.1-0.1,0.3,0,0.4C197,44.2,197.2,44.4,197.4,44.6z"/>
		<path class="st2" d="M202.7,36.2c0.3,0.3,0.6,0.5,0.9,0.7c0.3,0.2,0.6,0.4,0.9,0.6c-0.3-0.1-0.5-0.1-0.8-0.1
			c-0.2,0-0.4-0.1-0.6-0.1c-0.2,0-0.4-0.1-0.5-0.1c-0.1,0.1-0.1,0.2-0.1,0.3s0,0.2,0,0.3s0,0.2,0,0.4c0,0.1,0.1,0.3,0.2,0.4
			c0,0.1,0.1,0.2,0.2,0.3c0.1,0.1,0.2,0.2,0.3,0.3c0.6,0.1,1.2,0.1,1.7,0.2c0.5,0,1,0.1,1.3,0.1c0.1,0,0.1,0,0.2,0
			c0.3,0.2,0.7,0.4,1.2,0.7s1.1,0.7,1.6,1.1c0.5,0.4,1,0.8,1.4,1.2s0.6,0.8,0.7,1.1c0,0.1,0,0.2-0.1,0.3s-0.2,0.2-0.3,0.3
			s-0.4,0.2-0.7,0.2s-0.6,0-1,0c-0.3,0-0.7-0.1-1.1-0.1c-0.4-0.1-0.7-0.1-1-0.1s-0.7-0.1-1.1-0.2c-0.5-0.1-0.9-0.2-1.3-0.2
			c-0.4-0.1-0.8-0.1-1.1-0.2c-0.3,0-0.5-0.1-0.5,0c0,0,0,0.1,0,0.3s0.1,0.4,0.2,0.6c0.1,0.2,0.2,0.4,0.3,0.6
			c0.1,0.2,0.2,0.3,0.3,0.4c0.3,0.2,0.8,0.3,1.5,0.4c0.1,0,0.2,0,0.4,0c0.1,0.1,0.1,0.1,0.2,0.1c0.3,0.3,0.6,0.6,0.8,0.9
			c0.3,0.3,0.5,0.7,0.8,1c0.3,0.4,0.5,0.7,0.7,1c-0.1,0-0.3,0-0.5,0s-0.3,0-0.5,0c-0.6,0.1-1.1,0.3-1.5,0.5
			c-0.4,0.3-0.7,0.6-0.9,0.9c-0.2,0.3-0.4,0.6-0.5,1c-0.1,0.3-0.1,0.6-0.1,0.8v0.1v0.1c0,0.3,0.1,0.6,0.2,0.8
			c0.1,0.3,0.3,0.5,0.4,0.8c0.2,0.2,0.4,0.4,0.6,0.6c0.2,0.2,0.5,0.3,0.8,0.3c0.3,0.2,0.7,0.4,1.1,0.5c0.4,0.1,0.8,0.2,1.2,0.3
			s0.8,0.1,1.1,0.1c0.4,0,0.7,0,1,0c0.4-0.1,0.9-0.1,1.3-0.3c0.5-0.1,0.9-0.3,1.3-0.5c0.4-0.2,0.7-0.6,0.9-1s0.3-0.9,0.2-1.5
			c-0.1-0.5-0.3-1-0.5-1.4c-0.3-0.4-0.6-0.8-1-1.1s-0.9-0.6-1.4-0.7c-0.5-0.2-1.1-0.3-1.7-0.4c-0.2-0.4-0.5-0.9-0.9-1.3
			c-0.4-0.5-0.8-0.9-1.2-1.3c-0.1-0.1-0.3-0.3-0.4-0.4c0.1,0,0.3,0,0.4,0c0.7,0,1.4,0,2.1-0.1c0.7-0.1,1.2-0.1,1.6-0.2
			c0.3-0.1,0.5-0.2,0.7-0.3c0.2-0.2,0.4-0.4,0.5-0.6c0.1-0.2,0.2-0.5,0.3-0.8s0.1-0.5,0-0.8s-0.3-0.7-0.8-1.2s-1-0.9-1.6-1.4
			c-0.5-0.4-1.1-0.8-1.7-1.1c0.1,0,0.2,0,0.3,0c0.5,0.1,1,0.1,1.4,0.2c0.5,0,0.8,0.1,1.2,0.1c0.3,0,0.5,0.1,0.6,0.1s0.2-0.1,0.2-0.3
			s-0.1-0.4-0.2-0.7c-0.1-0.2-0.3-0.5-0.5-0.7s-0.3-0.3-0.5-0.3s-0.5,0-0.7-0.1c-0.2,0-0.5-0.1-0.9-0.1c-0.3,0-0.7,0-1.1-0.1
			c-0.4,0-0.9-0.1-1.4-0.1c-0.4-0.2-0.8-0.4-1.2-0.6c-0.4-0.2-0.8-0.4-1.1-0.7c-0.3-0.2-0.6-0.5-0.8-0.7s-0.3-0.5-0.4-0.7
			c0-0.2,0.1-0.3,0.3-0.4c0.2-0.1,0.5-0.2,0.8-0.2s0.7,0,1.2,0c0.4,0,0.9,0.1,1.3,0.1c0.4,0.1,0.8,0.1,1.2,0.2
			c0.4,0.1,0.7,0.1,0.9,0.1c0.3,0,0.6,0,0.9-0.1c0.3-0.1,0.5-0.2,0.7-0.4s0.3-0.4,0.4-0.7c0.1-0.3,0.1-0.6,0.1-0.9
			c0-0.3-0.2-0.7-0.5-1s-0.6-0.7-1-1s-0.8-0.6-1.3-0.9s-0.9-0.6-1.4-0.8c-0.4-0.2-0.9-0.5-1.2-0.6c-0.4-0.2-0.7-0.3-0.9-0.4
			c-0.3-0.1-0.5-0.1-0.6-0.1c-0.2,0-0.3,0.1-0.3,0.1c0,0.1,0,0.2,0.1,0.3c0.1,0.1,0.2,0.2,0.4,0.3c0.3,0.2,0.8,0.4,1.3,0.7
			c0.6,0.3,1.1,0.6,1.6,1s1,0.7,1.4,1.1s0.6,0.7,0.7,1c0,0.3-0.1,0.4-0.3,0.5s-0.5,0.1-0.9,0c-0.5-0.1-1-0.2-1.5-0.2
			s-0.8-0.1-1.2-0.1l-1-0.1c-0.5-0.1-1-0.1-1.4,0c-0.4,0.1-0.8,0.2-1,0.4c-0.3,0.2-0.5,0.4-0.6,0.6c-0.1,0.3-0.2,0.5-0.1,0.8
			c0.1,0.4,0.2,0.7,0.4,1C202.2,35.7,202.4,36,202.7,36.2z M210.1,53.2c0.3-0.5,0.4-1,0.3-1.6c0-0.1,0-0.2-0.1-0.3
			c0-0.1,0-0.2-0.1-0.3c0.3,0.1,0.6,0.1,0.9,0.3c0.3,0.1,0.6,0.2,0.8,0.4s0.4,0.3,0.6,0.5c0.2,0.2,0.3,0.5,0.3,0.7s0,0.5-0.1,0.6
			c-0.1,0.2-0.3,0.3-0.5,0.4c-0.2,0.1-0.4,0.2-0.7,0.3s-0.5,0.1-0.8,0.2c-0.3,0-0.6,0.1-0.9,0c-0.3,0-0.6,0-1-0.1
			C209.4,54,209.8,53.6,210.1,53.2z M208.8,50.8c0,0.1,0.1,0.1,0.1,0.2c0,0.1,0,0.2,0,0.2c0.1,0.5,0.1,0.9-0.1,1.1
			c-0.1,0.3-0.3,0.5-0.5,0.7s-0.4,0.3-0.7,0.3c-0.3,0.1-0.5,0.1-0.8,0.2c-0.2,0-0.3,0-0.4,0c-0.3-0.2-0.6-0.4-0.8-0.6
			c-0.2-0.2-0.3-0.5-0.4-0.8c0-0.2,0-0.4,0.2-0.5c0.1-0.2,0.3-0.3,0.6-0.4c0.2-0.1,0.5-0.2,0.8-0.3s0.6-0.1,0.9-0.1
			c0.1,0,0.3,0,0.4,0C208.4,50.7,208.6,50.7,208.8,50.8z"/>
	</g>
	<g>
		<path class="st2" d="M252.3,70.2c-0.1-0.3-0.1-0.5-0.2-0.7c-0.1-0.2-0.2-0.6-0.4-0.9c-0.2-0.4-0.5-0.7-0.9-1.1
			c-0.4-0.3-1-0.7-1.6-0.9c-0.7-0.3-1.5-0.4-2.5-0.5c-0.7,0-1.3,0-1.8,0.1s-1,0.3-1.5,0.5c-0.4,0.2-0.8,0.5-1.1,0.8
			s-0.6,0.6-0.9,0.9c-0.3,0.3-0.5,0.5-0.7,0.8c-0.2,0.2-0.4,0.4-0.6,0.5c-0.1,0.1-0.3,0.2-0.4,0.3c-0.2,0.1-0.3,0.2-0.5,0.3
			c-0.2,0.1-0.4,0.2-0.6,0.2c-0.2,0.1-0.5,0.1-0.8,0.1s-0.7-0.1-1-0.3c-0.3-0.2-0.7-0.4-0.9-0.7c-0.3-0.3-0.5-0.6-0.8-0.9
			c-0.2-0.3-0.4-0.7-0.5-1s-0.2-0.6-0.2-0.9s0.1-0.5,0.2-0.6c0.3-0.2,0.6-0.4,0.9-0.5c0.3-0.1,0.7-0.1,1-0.1s0.7,0.1,1,0.2
			s0.6,0.2,0.8,0.3c0.2,0.1,0.5,0.2,0.6,0.3c0.2,0.1,0.3,0.1,0.3,0.1c0-0.1,0.1-0.2,0.1-0.3c0-0.1,0-0.2,0-0.3c0-0.1,0-0.2-0.1-0.3
			c-0.1-0.4-0.2-0.6-0.3-0.8c-0.1-0.2-0.2-0.3-0.3-0.4c0,0-0.2-0.1-0.5-0.2S237.5,64,237,64c-0.4-0.1-0.9-0.1-1.4,0
			c-0.5,0.1-0.9,0.2-1.3,0.5c-1.1,0.7-1.3,2.1-0.8,4.2c0.1,0.4,0.3,0.8,0.6,1.3s0.7,0.9,1.2,1.3s1,0.7,1.7,0.9
			c0.6,0.2,1.3,0.2,2,0.1c0.5-0.1,1-0.3,1.4-0.6c0.4-0.3,0.8-0.5,1.2-0.9c0.4-0.3,0.7-0.6,1-0.9s0.6-0.6,0.8-0.8
			c0.3-0.2,0.6-0.5,0.9-0.7c0.4-0.2,0.8-0.4,1.2-0.6s0.9-0.2,1.4-0.3c0.5,0,1,0.1,1.5,0.2c1.6,0.6,2.4,1.3,2.4,2.3
			c0,0.4-0.1,0.7-0.3,1s-0.5,0.5-0.8,0.6s-0.6,0.2-1,0.3c-0.3,0-0.6,0-0.9,0c-0.1,0-0.2-0.1-0.3-0.1c-0.2-0.1-0.4-0.2-0.7-0.4
			c0,0.1-0.1,0.3,0,0.5c0,0.2,0,0.3,0.1,0.5s0.1,0.3,0.2,0.5c0.1,0.1,0.2,0.3,0.2,0.4c0.1,0.1,0.2,0.2,0.3,0.3
			c0.1,0.1,0.2,0.2,0.3,0.3c0.5,0.1,0.9,0.1,1.3,0c0.4-0.1,0.8-0.2,1.1-0.4c0.4-0.2,0.7-0.4,1-0.7c0.3-0.3,0.5-0.5,0.6-0.9
			c0.1-0.3,0.2-0.6,0.2-0.9C252.3,70.7,252.3,70.4,252.3,70.2z"/>
		<path class="st2" d="M236.5,60.2c-0.1-0.1-0.3-0.2-0.4-0.2c-0.1,0-0.3,0-0.5,0s-0.3,0.1-0.5,0.1c-0.1,0.1-0.2,0.1-0.3,0.2
			c-0.1,0.1-0.1,0.2-0.1,0.4c0,0.1,0.1,0.3,0.3,0.5s0.4,0.3,0.6,0.5c0.2,0.1,0.5,0.2,0.7,0.1c0.2,0,0.5-0.2,0.6-0.5
			c0.1-0.1,0.1-0.2,0.1-0.4c0-0.1-0.1-0.3-0.2-0.4C236.8,60.4,236.7,60.3,236.5,60.2z"/>
		<path class="st2" d="M233.4,48.4c0.2-0.1,0.4-0.1,0.6-0.1c0.2,0,0.4,0,0.7,0c0.2,0,0.5,0,0.7,0c0.4,0.1,1,0.2,1.9,0.3
			c0.8,0.1,1.9,0.3,3.4,0.6c0.6,0.1,1.2,0.2,1.9,0.3c0.1,0,0.1,0.1,0.2,0.1c0.2,0.1,0.5,0.3,0.8,0.5s0.6,0.4,1,0.7
			c0.3,0.3,0.6,0.5,0.9,0.8c0.3,0.3,0.5,0.5,0.7,0.8s0.3,0.5,0.3,0.7c0,0.3,0,0.5-0.1,0.6s-0.2,0.1-0.4,0.2c-0.3,0-0.6,0-0.9-0.2
			c-0.3-0.2-0.6-0.3-0.9-0.5c-0.4-0.3-0.8-0.5-1.2-0.7s-0.7-0.2-1-0.2c-0.2,0-0.3,0.1-0.5,0.1c-0.2,0.1-0.4,0.1-0.5,0.2
			c-0.2,0.1-0.3,0.2-0.4,0.4c-0.1,0.2-0.1,0.3-0.1,0.6c0,0.2,0,0.3,0.1,0.4c0,0.1,0.1,0.2,0.1,0.4c0,0.1,0,0.3,0,0.3
			c0,0.1-0.1,0.1-0.1,0.2c-0.2-0.1-0.5-0.2-0.7-0.2c-0.3,0-0.5,0-0.7,0s-0.5,0.1-0.7,0.3s-0.3,0.4-0.3,0.8c0,0.2,0.1,0.4,0.3,0.6
			c0.2,0.2,0.4,0.4,0.7,0.5c0.3,0.2,0.5,0.3,0.8,0.4c0.3,0.1,0.5,0.1,0.7,0.1s0.3-0.1,0.4-0.1c0.1-0.1,0.1-0.2,0.3-0.3
			c0.2,0.1,0.4,0.2,0.7,0.3s0.7,0.3,1.1,0.5c0.1,0.1,0.3,0.1,0.4,0.2c0.1,0.1,0.3,0.2,0.4,0.3c0.4,0.3,0.9,0.7,1.3,1.1
			c0.4,0.4,0.8,0.8,1.1,1.1c0.3,0.4,0.5,0.7,0.5,1c0,0.1,0,0.2-0.1,0.3s-0.2,0.2-0.3,0.2c-0.1,0.1-0.3,0.1-0.6,0.1s-0.5,0-0.8-0.1
			s-0.6-0.1-0.9-0.2c-0.3-0.1-0.6-0.1-0.8-0.2c-0.2,0-0.6-0.1-0.9-0.2c-0.4-0.1-0.8-0.2-1.1-0.3c-0.4-0.1-0.7-0.2-0.9-0.2
			c-0.3-0.1-0.4-0.1-0.4-0.1s0,0.1,0,0.3s0.1,0.3,0.1,0.5s0.1,0.4,0.2,0.6c0.1,0.2,0.1,0.3,0.2,0.4c0.3,0.2,0.7,0.3,1.2,0.5
			c0.5,0.1,1.1,0.2,1.7,0.3c0.6,0.1,1.2,0.1,1.8,0.1s1,0,1.3-0.1c0.2,0,0.4-0.1,0.6-0.2c0.2-0.1,0.4-0.3,0.5-0.5s0.2-0.4,0.3-0.6
			c0.1-0.2,0.1-0.4,0.1-0.7s-0.2-0.6-0.6-1c-0.3-0.3-0.7-0.7-1.1-1.1c0.1,0,0.2,0.1,0.3,0.1c0.3,0.1,0.5,0.2,0.5,0.2
			c0.2,0.1,0.3,0.1,0.4,0.1c0.1,0,0.2-0.1,0.2-0.2c0-0.1,0-0.2,0-0.3c-0.1-0.1-0.2-0.2-0.3-0.3c-0.1,0-0.2-0.1-0.5-0.3
			c-0.3-0.1-0.6-0.3-1-0.5s-0.8-0.4-1.3-0.7c-0.5-0.2-0.9-0.5-1.3-0.7c-0.4-0.2-0.8-0.4-1.1-0.6c-0.3-0.2-0.5-0.3-0.6-0.3
			c0-0.1,0.1-0.2,0.1-0.3s0.1-0.3,0-0.4c0-0.1,0-0.2,0-0.3s0-0.1,0-0.1v-0.1c0,0,0-0.1,0-0.2c0-0.1,0-0.2,0.1-0.3s0.2-0.1,0.3-0.1
			c0.2,0,0.4,0,0.7,0.2c0.3,0.1,0.6,0.3,1,0.5c0.2,0.1,0.4,0.2,0.6,0.3c0.2,0.1,0.4,0.2,0.6,0.3c0.2,0.1,0.4,0.2,0.6,0.2
			c0.2,0.1,0.4,0.1,0.5,0.1c0.2,0,0.4,0,0.6-0.1c0.2-0.1,0.4-0.2,0.6-0.3c0.2-0.2,0.3-0.3,0.4-0.6c0.1-0.2,0.2-0.5,0.1-0.9
			c0-0.3-0.1-0.7-0.4-1c-0.2-0.3-0.5-0.7-0.8-1s-0.7-0.7-1.1-1c-0.3-0.3-0.7-0.5-1-0.7c0.7,0.1,1.4,0.2,2.1,0.3
			c0.1,0,0.3-0.1,0.3-0.2c0.1-0.1,0.1-0.2,0.2-0.3c0-0.1,0.1-0.2,0.1-0.3s0-0.2,0-0.3s0-0.2-0.1-0.3c0-0.1-0.1-0.2-0.2-0.2
			c-2.4-0.4-4.4-0.8-6-1.1s-2.8-0.5-3.8-0.7c-1.1-0.2-1.9-0.4-2.5-0.5c-0.3,0-0.6-0.1-0.8-0.1s-0.4,0-0.6,0c-0.2,0-0.3,0.1-0.4,0.1
			c-0.1,0-0.1,0.1-0.1,0.2c0,0.1,0,0.2,0,0.3s0,0.2,0.1,0.4c0,0.1,0.1,0.3,0.1,0.4c0,0.1,0.1,0.2,0.1,0.4
			C233.3,48.2,233.4,48.3,233.4,48.4z"/>
		<path class="st2" d="M233.3,35.2c0.2,0.2,0.4,0.3,0.6,0.5c0.2,0.1,0.5,0.2,0.7,0.1c0.2,0,0.5-0.2,0.6-0.5c0.1-0.1,0.1-0.2,0.1-0.4
			c0-0.1-0.1-0.3-0.2-0.4c-0.1-0.1-0.2-0.2-0.4-0.3c-0.1-0.1-0.3-0.2-0.4-0.2c-0.1,0-0.3,0-0.5,0s-0.3,0.1-0.5,0.1
			c-0.1,0.1-0.2,0.1-0.3,0.2c-0.1,0.1-0.1,0.2-0.1,0.4C233,34.9,233.1,35.1,233.3,35.2z"/>
		<path class="st2" d="M238.3,28.5c0.2,0.2,0.5,0.5,0.7,0.7c0.3,0.2,0.5,0.4,0.8,0.5c-0.2-0.1-0.4-0.1-0.7-0.1
			c-0.2,0-0.4-0.1-0.5-0.1c-0.2,0-0.3-0.1-0.4-0.1c-0.1,0.1-0.1,0.2-0.1,0.3c0,0.1,0,0.2,0,0.3c0,0.1,0,0.2,0,0.3
			c0,0.1,0.1,0.2,0.1,0.3c0,0.1,0.1,0.2,0.1,0.3c0.1,0.1,0.1,0.2,0.2,0.3c0.5,0.1,1,0.2,1.4,0.2c0.4,0.1,0.8,0.1,1.1,0.2
			c0.1,0,0.1,0,0.2,0c0.2,0.2,0.6,0.4,0.9,0.6c0.4,0.3,0.9,0.7,1.3,1.1c0.4,0.4,0.8,0.8,1.1,1.1c0.3,0.4,0.5,0.7,0.5,1
			c0,0.1,0,0.2-0.1,0.3s-0.2,0.2-0.3,0.2c-0.1,0.1-0.3,0.1-0.6,0.1s-0.5,0-0.8-0.1s-0.6-0.1-0.9-0.2c-0.3-0.1-0.6-0.1-0.8-0.2
			c-0.2,0-0.6-0.1-0.9-0.2c-0.4-0.1-0.8-0.2-1.1-0.3c-0.4-0.1-0.7-0.2-0.9-0.2c-0.3-0.1-0.4-0.1-0.4-0.1s0,0.1,0,0.3
			s0.1,0.3,0.1,0.5s0.1,0.4,0.2,0.6c0.1,0.2,0.1,0.3,0.2,0.4c0.3,0.2,0.7,0.3,1.2,0.5c0.1,0,0.2,0,0.3,0c0,0.1,0.1,0.1,0.1,0.1
			c0.2,0.2,0.4,0.5,0.6,0.8c0.2,0.3,0.4,0.6,0.6,0.9c0.2,0.3,0.4,0.6,0.5,0.9c-0.1,0-0.2,0-0.4,0s-0.3,0-0.4,0
			c-0.5,0-0.9,0.2-1.3,0.3c-0.3,0.2-0.6,0.4-0.8,0.7s-0.4,0.5-0.5,0.8s-0.1,0.5-0.2,0.6v0.1v0.1c0,0.2,0.1,0.5,0.1,0.7
			c0.1,0.2,0.2,0.5,0.3,0.7s0.3,0.4,0.5,0.5s0.4,0.3,0.6,0.3c0.3,0.2,0.6,0.4,0.9,0.5c0.3,0.1,0.6,0.3,1,0.3
			c0.3,0.1,0.6,0.1,0.9,0.2c0.3,0,0.6,0,0.8,0c0.4,0,0.7-0.1,1.1-0.1c0.4-0.1,0.8-0.2,1.1-0.4s0.6-0.4,0.8-0.7s0.3-0.8,0.3-1.3
			s-0.2-0.9-0.4-1.2c-0.2-0.4-0.5-0.7-0.8-1s-0.7-0.5-1.2-0.7c-0.4-0.2-0.9-0.3-1.4-0.4c-0.2-0.4-0.4-0.8-0.7-1.2s-0.6-0.8-0.9-1.1
			c-0.1-0.1-0.2-0.3-0.3-0.4c0.1,0,0.2,0,0.3,0.1c0.6,0.1,1.2,0.1,1.8,0.1s1,0,1.3-0.1c0.2,0,0.4-0.1,0.6-0.2
			c0.2-0.1,0.4-0.3,0.5-0.5s0.2-0.4,0.3-0.6c0.1-0.2,0.1-0.4,0.1-0.7s-0.2-0.6-0.6-1c-0.4-0.4-0.8-0.8-1.3-1.3
			c-0.4-0.4-0.9-0.7-1.4-1c0.1,0,0.1,0,0.2,0c0.4,0.1,0.8,0.1,1.2,0.2c0.4,0.1,0.7,0.1,1,0.2c0.3,0.1,0.5,0.1,0.5,0.1
			c0.1,0,0.2-0.1,0.2-0.2c0-0.2-0.1-0.4-0.2-0.6c-0.1-0.2-0.2-0.4-0.3-0.6s-0.3-0.3-0.4-0.3c-0.2,0-0.4-0.1-0.6-0.1
			c-0.2,0-0.4-0.1-0.7-0.1s-0.6-0.1-0.9-0.1c-0.3-0.1-0.7-0.1-1.2-0.2c-0.3-0.2-0.7-0.4-1-0.6s-0.6-0.4-0.9-0.6
			c-0.3-0.2-0.5-0.4-0.6-0.6c-0.2-0.2-0.2-0.4-0.3-0.6c0-0.2,0.1-0.3,0.3-0.4s0.4-0.1,0.7-0.1s0.6,0,1,0.1s0.7,0.1,1.1,0.2
			c0.4,0.1,0.7,0.1,1,0.2s0.6,0.1,0.7,0.1c0.3,0,0.5,0,0.8,0c0.2-0.1,0.4-0.2,0.6-0.3c0.2-0.1,0.3-0.3,0.4-0.6
			c0.1-0.2,0.1-0.5,0.1-0.8s-0.1-0.6-0.3-0.9s-0.5-0.6-0.8-0.9s-0.6-0.6-1-0.9s-0.7-0.5-1.1-0.8c-0.4-0.2-0.7-0.4-1-0.6
			s-0.6-0.3-0.8-0.4s-0.4-0.1-0.5-0.1s-0.2,0-0.3,0.1c0,0.1,0,0.1,0,0.2c0.1,0.1,0.2,0.2,0.4,0.3c0.3,0.2,0.6,0.4,1.1,0.7
			c0.4,0.3,0.9,0.6,1.3,1c0.4,0.3,0.8,0.7,1.1,1s0.5,0.6,0.5,0.9c0,0.2-0.1,0.4-0.3,0.4s-0.5,0-0.8,0c-0.5-0.1-0.9-0.2-1.3-0.3
			c-0.4-0.1-0.7-0.1-1-0.2l-0.9-0.2c-0.4-0.1-0.8-0.1-1.2-0.1s-0.7,0.1-0.9,0.3c-0.2,0.1-0.4,0.3-0.6,0.5c-0.1,0.2-0.2,0.4-0.2,0.7
			c0,0.3,0.1,0.6,0.2,0.9C237.9,28,238.1,28.3,238.3,28.5z M243.4,43.3c0.3-0.4,0.4-0.8,0.4-1.3c0-0.1,0-0.2,0-0.3s0-0.2,0-0.3
			c0.3,0.1,0.5,0.2,0.7,0.3s0.4,0.2,0.6,0.4c0.2,0.1,0.3,0.3,0.5,0.5c0.1,0.2,0.2,0.4,0.2,0.6c0,0.2,0,0.4-0.1,0.5s-0.2,0.3-0.4,0.3
			c-0.2,0.1-0.4,0.2-0.6,0.2c-0.2,0-0.5,0.1-0.7,0.1s-0.5,0-0.8,0s-0.5-0.1-0.8-0.1C242.8,44,243.2,43.7,243.4,43.3z M242.5,41.2
			c0,0.1,0,0.1,0,0.2c0,0.1,0,0.1,0,0.2c0,0.4,0,0.7-0.1,1c-0.1,0.2-0.2,0.4-0.4,0.5s-0.4,0.2-0.6,0.2c-0.2,0-0.4,0.1-0.7,0.1
			c-0.1,0-0.3,0-0.4,0c-0.3-0.2-0.5-0.4-0.6-0.6c-0.2-0.2-0.2-0.5-0.3-0.7c0-0.2,0-0.3,0.2-0.4c0.1-0.1,0.3-0.2,0.5-0.3
			s0.4-0.2,0.7-0.2s0.5-0.1,0.8-0.1c0.1,0,0.2,0,0.4,0C242.2,41.1,242.3,41.2,242.5,41.2z"/>
	</g>
</g>
</svg>
