<?xml version="1.0" encoding="utf-8"?>
<!-- Generator: Adobe Illustrator 24.0.1, SVG Export Plug-In . SVG Version: 6.00 Build 0)  -->
<svg version="1.1" id="Layer_1" xmlns="http://www.w3.org/2000/svg" xmlns:xlink="http://www.w3.org/1999/xlink" x="0px" y="0px"
	 viewBox="0 0 159.1 155.9" style="enable-background:new 0 0 159.1 155.9;" xml:space="preserve">
<style type="text/css">
	.st0{fill-rule:evenodd;clip-rule:evenodd;fill:#312782;}
	.st1{fill-rule:evenodd;clip-rule:evenodd;fill:#FFFFFF;}
	.st2{fill:none;stroke:#FFFFFF;stroke-width:0.5;stroke-miterlimit:2.6131;}
	.st3{fill:none;stroke:#241733;stroke-width:0.5;stroke-miterlimit:2.6131;}
	.st4{fill:#FFFFFF;}
</style>
<g>
	<path class="st0" d="M0,78.5c0,4.9,8.6,22.3,10.9,28c15,36.4,8.2,27.1,38.8,39.1c36.9,14.6,24.2,14.2,72.4-5.6
		c19.7-8.1,14-2,26.1-33c13.9-35.6,14.5-24.9,1.8-52.4c-18.7-40.4-8.3-28.9-55.1-49.7C77.3-2.8,84.8-2.1,52,11
		C13.8,26.2,26.7,17.8,9.4,57C7.9,60.4,6.6,63.4,5,67.4C4.3,69.3,0,78.3,0,78.5"/>
	<path class="st1" d="M11.3,78.5c0,37.3,32.4,63.2,68,63.5c37,0.3,69-25.7,69-64.9c0-34.5-32.1-61.5-69-61.5
		C43.2,15.7,11.3,42.6,11.3,78.5z"/>
	<path class="st2" d="M11.3,78.5c0,37.3,32.4,63.2,68,63.5c37,0.3,69-25.7,69-64.9c0-34.5-32.1-61.5-69-61.5
		C43.2,15.7,11.3,42.6,11.3,78.5z"/>
	<path class="st0" d="M24.1,47.6C37,62,106,69.3,136.3,48.3C125.1,33.5,110.2,19.5,82,18.6C59.2,17.8,32.4,30.3,24.1,47.6z"/>
	<path class="st3" d="M24.1,47.6C37,62,106,69.3,136.3,48.3C125.1,33.5,110.2,19.5,82,18.6C59.2,17.8,32.4,30.3,24.1,47.6z"/>
	<path class="st0" d="M14.2,78.5c0,9.4,2.6,18.4,6.1,25.4c10.7,21.4,31.9,33.3,58.2,35.2L66.3,79.5c-11.3-7-16.9-4.7-35-18.7
		c-2.6-2-2.8-2.2-4.9-4.5c-1.4-1.5-0.7-1-2-2.2c-0.2-0.2-0.5-0.5-0.8-0.8L20.9,51C18,60,14.2,66.5,14.2,78.5z"/>
	<path class="st2" d="M14.2,78.5c0,9.4,2.6,18.4,6.1,25.4c10.7,21.4,31.9,33.3,58.2,35.2L66.3,79.5c-11.3-7-16.9-4.7-35-18.7
		c-2.6-2-2.8-2.2-4.9-4.5c-1.4-1.5-0.7-1-2-2.2c-0.2-0.2-0.5-0.5-0.8-0.8L20.9,51C18,60,14.2,66.5,14.2,78.5z"/>
	<path class="st0" d="M94.6,79.1L80.9,139c60.6-0.4,75.3-64.1,57.5-86.2C119.9,68.6,121.1,69.8,94.6,79.1z"/>
	<path class="st2" d="M94.6,79.1L80.9,139c60.6-0.4,75.3-64.1,57.5-86.2C119.9,68.6,121.1,69.8,94.6,79.1z"/>
	<polygon class="st0" points="79.5,129.5 94.7,64.9 66.5,64.3 	"/>
	<polygon class="st2" points="79.5,129.5 94.7,64.9 66.5,64.3 	"/>
	<path class="st0" d="M97.9,64.9l-2.2,10.5c12.7-3.2,29.5-11.7,34.7-19.9L97.9,64.9z"/>
	<path class="st2" d="M97.9,64.9l-2.2,10.5c12.7-3.2,29.5-11.7,34.7-19.9L97.9,64.9z"/>
	<path class="st0" d="M65.1,74.9L63,64l-32.3-8.4C36.5,63.7,56,73.2,65.1,74.9z"/>
	<path class="st2" d="M65.1,74.9L63,64l-32.3-8.4C36.5,63.7,56,73.2,65.1,74.9z"/>
	<polygon class="st4" points="69.5,54.7 69.5,27.3 75,27.3 75,39.4 86.2,27.3 93.6,27.3 83.3,38 94.2,54.7 87,54.7 79.5,41.8 
		75,46.4 75,54.7 	"/>
	<polygon class="st4" points="30.1,109.3 30.1,81.9 38.4,81.9 43.3,100.6 48.2,81.9 56.5,81.9 56.5,109.3 51.4,109.3 51.4,87.8 
		46,109.3 40.6,109.3 35.3,87.8 35.2,109.3 	"/>
	<path class="st4" d="M122.4,99.2l5.4,1.6c-0.8,3-2.2,5.3-4.1,6.7c-1.9,1.5-4.3,2.2-7.3,2.2c-3.6,0-6.6-1.2-9-3.7
		c-2.3-2.5-3.5-5.9-3.5-10.2c0-4.6,1.2-8.1,3.5-10.6c2.4-2.5,5.4-3.8,9.3-3.8c3.4,0,6.1,1,8.2,3c1.2,1.2,2.2,2.9,2.8,5.1l-5.5,1.3
		c-0.3-1.4-1-2.5-2-3.4c-1-0.8-2.3-1.2-3.7-1.2c-2,0-3.7,0.7-4.9,2.2c-1.3,1.5-1.9,3.8-1.9,7.1c0,3.5,0.6,5.9,1.9,7.4
		c1.2,1.5,2.9,2.2,4.9,2.2c1.5,0,2.7-0.5,3.8-1.4C121.2,102.7,121.9,101.2,122.4,99.2"/>
</g>
</svg>
