<?xml version="1.0" encoding="utf-8"?>
<!-- Generator: Adobe Illustrator 24.0.1, SVG Export Plug-In . SVG Version: 6.00 Build 0)  -->
<svg version="1.1" id="Layer_1" xmlns="http://www.w3.org/2000/svg" xmlns:xlink="http://www.w3.org/1999/xlink" x="0px" y="0px"
	 viewBox="0 0 100 24" style="enable-background:new 0 0 100 24;" xml:space="preserve">
<style type="text/css">
	.st0{fill:#2E2F93;}
</style>
<path class="st0" d="M99.5-24.3v-7.9h-3.9v-2.7h10.7v2.7h-3.9v7.9H99.5z M91.8-24.3L89.7-27h-2.5v-2.5h3.6c0.4,0,0.7-0.1,1-0.4
	c0.2-0.2,0.4-0.6,0.4-1s-0.1-0.7-0.4-1c-0.2-0.2-0.6-0.4-1-0.4h-4.5v7.9h-2.8v-10.5h7.3c0.6,0,1.2,0.1,1.7,0.3s1,0.5,1.3,0.8
	c0.4,0.3,0.7,0.8,0.9,1.3c0.2,0.5,0.3,1,0.3,1.6c0,0.8-0.2,1.5-0.6,2.1s-0.9,1.1-1.6,1.4l2.7,3.1C95.5-24.3,91.8-24.3,91.8-24.3z
	 M79.4-24.3l-0.9-1.6h-5l1.2-2.3h2.6l-1.8-3.4l-3.9,7.3h-3.1l5.4-9.8c0.3-0.5,0.7-0.8,1.3-0.8h0.7c0.6,0,1,0.3,1.3,0.8l5.4,9.8H79.4
	z M65-24.3l-1.6-6.8l-1.8,5.8c-0.2,0.7-0.6,1-1.3,1h-0.9c-0.7,0-1.1-0.3-1.3-1l-1.8-5.9l-1.6,6.9h-2.8l2.1-9.4
	c0.1-0.4,0.2-0.8,0.5-0.9c0.2-0.2,0.5-0.3,0.9-0.3h1.2c0.7,0,1.1,0.3,1.4,1l1.9,6.3l1.9-6.3c0.2-0.7,0.7-1,1.3-1h1.2
	c0.4,0,0.7,0.1,0.9,0.3c0.2,0.2,0.4,0.5,0.5,0.9l2.2,9.4H65z M40.6-24.3v-10.6h10.2v2.7h-7.3v5.1h7.3v2.7L40.6-24.3L40.6-24.3z
	 M44.4-28.5v-2.3h6.3v2.3H44.4z M27.8-24.3V-27h7.9c0.2,0,0.4-0.1,0.5-0.2c0.1-0.1,0.2-0.3,0.2-0.5c0-0.2-0.1-0.4-0.2-0.5
	c-0.1-0.1-0.3-0.2-0.5-0.2H31c-0.5,0-0.9-0.1-1.4-0.2c-0.4-0.2-0.8-0.4-1.1-0.7c-0.3-0.3-0.5-0.6-0.7-1s-0.3-0.8-0.3-1.3
	s0.1-0.9,0.3-1.3c0.2-0.4,0.4-0.7,0.7-1c0.3-0.3,0.7-0.5,1.1-0.7s0.9-0.2,1.4-0.2h8v2.7h-7.9c-0.2,0-0.4,0.1-0.5,0.2
	s-0.2,0.3-0.2,0.5c0,0.2,0.1,0.4,0.2,0.5s0.3,0.2,0.5,0.2h4.7c0.5,0,1,0.1,1.4,0.2c0.4,0.2,0.8,0.4,1.1,0.7c0.3,0.3,0.5,0.6,0.7,1
	s0.3,0.8,0.3,1.3s-0.1,0.9-0.3,1.3c-0.2,0.4-0.4,0.7-0.7,1s-0.7,0.5-1.1,0.7c-0.4,0.2-0.9,0.2-1.4,0.2
	C35.8-24.3,27.8-24.3,27.8-24.3z M23.4-24.3v-10.6h2.9v10.6H23.4z M17.6-24.3c-0.3,0-0.6-0.1-0.8-0.3c-0.2-0.2-0.4-0.4-0.5-0.8
	l-2-6.3l-1.9,6.3c-0.2,0.7-0.7,1-1.4,1H9.9c-0.3,0-0.6-0.1-0.9-0.3c-0.2-0.2-0.4-0.5-0.5-0.9l-2.2-9.3h2.8l1.6,6.8l1.8-5.8
	c0.2-0.7,0.7-1,1.3-1h0.9c0.7,0,1.1,0.3,1.3,1l1.8,5.9l1.6-6.9h2.9l-2.2,9.4c-0.1,0.4-0.3,0.8-0.5,0.9c-0.2,0.2-0.5,0.3-0.9,0.3
	H17.6z"/>
<g>
	<path class="st0" d="M0.6,16.7V9.2h2v7.5H0.6z M6.4,16.7l-3.1-3.1c-0.2-0.2-0.3-0.4-0.3-0.6v-0.2c0-0.2,0.1-0.4,0.3-0.6l3-2.9h2.6
		l-3.6,3.6l3.8,3.9H6.4z"/>
	<path class="st0" d="M18.6,16.7l-1.1-4.8L16.2,16c-0.1,0.5-0.5,0.7-0.9,0.7h-0.6c-0.5,0-0.8-0.2-0.9-0.7l-1.3-4.2l-1.1,4.9h-2
		l1.5-6.6c0.1-0.6,0.5-0.9,1-0.9h0.8c0.5,0,0.8,0.2,1,0.7l1.4,4.5l1.3-4.5c0.1-0.5,0.5-0.7,0.9-0.7h0.8c0.5,0,0.9,0.2,1,0.9l1.5,6.6
		H18.6z"/>
	<path class="st0" d="M24.8,16.7c-2.3,0-4-1.5-4-3.7c0-2.2,1.7-3.7,4-3.7h3.7v1.9h-3.8c-1,0-1.8,0.7-1.8,1.8c0,1.1,0.8,1.8,1.8,1.8
		h3.8v1.9H24.8z"/>
	<path class="st0" d="M37.1,16.7c-0.5,0-0.8-0.2-0.9-0.7l-1.3-4.5l-1.4,4.5c-0.1,0.5-0.5,0.7-1,0.7h-0.8c-0.5,0-0.9-0.2-1-0.9
		l-1.5-6.6h2l1.1,4.8l1.3-4.1c0.1-0.5,0.5-0.7,0.9-0.7h0.6c0.5,0,0.8,0.2,0.9,0.7l1.3,4.2l1.1-4.9h2l-1.5,6.6
		c-0.1,0.6-0.5,0.9-1,0.9H37.1z"/>
	<path class="st0" d="M41.2,16.7V9.2h2v7.5H41.2z"/>
	<path class="st0" d="M44.3,16.7v-1.9h5.6c0.3,0,0.5-0.2,0.5-0.5s-0.2-0.5-0.5-0.5h-3.3c-1.4,0-2.4-0.9-2.4-2.3c0-1.4,1-2.3,2.4-2.3
		h5.7v1.9h-5.6c-0.3,0-0.5,0.2-0.5,0.5c0,0.3,0.2,0.5,0.5,0.5H50c1.4,0,2.4,0.9,2.4,2.3c0,1.4-1,2.3-2.4,2.3H44.3z"/>
	<path class="st0" d="M53.4,16.7V9.2h7.2v1.9h-5.2v3.6h5.2v1.9H53.4z M56.1,13.7v-1.6h4.4v1.6H56.1z"/>
	<path class="st0" d="M70.6,16.7l-1.1-4.8L68.2,16c-0.1,0.5-0.5,0.7-0.9,0.7h-0.6c-0.5,0-0.8-0.2-0.9-0.7l-1.3-4.2l-1.1,4.9h-2
		l1.5-6.6c0.1-0.6,0.5-0.9,1-0.9h0.8c0.5,0,0.8,0.2,1,0.7l1.4,4.5l1.3-4.5c0.1-0.5,0.5-0.7,0.9-0.7h0.8c0.5,0,0.9,0.2,1,0.9l1.5,6.6
		H70.6z"/>
	<path class="st0" d="M80.8,16.7l-0.6-1.2h-3.5l0.9-1.6h1.8L78,11.5l-2.7,5.2H73l3.8-6.9c0.2-0.4,0.5-0.6,0.9-0.6h0.5
		c0.4,0,0.7,0.2,0.9,0.6l3.8,6.9H80.8z"/>
	<path class="st0" d="M89.5,16.7L88,14.8h-1.8V13h2.6c0.6,0,0.9-0.4,0.9-1s-0.4-1-0.9-1h-3.2v5.6h-2V9.2h5.2c1.7,0,3,1.1,3,2.8
		c0,1.1-0.6,2-1.5,2.5l1.9,2.2H89.5z"/>
	<path class="st0" d="M95,16.7v-5.6h-2.7V9.2h7.5v1.9H97v5.6H95z"/>
</g>
</svg>
