<?xml version="1.0" encoding="utf-8"?>
<!-- Generator: Adobe Illustrator 24.0.1, SVG Export Plug-In . SVG Version: 6.00 Build 0)  -->
<svg version="1.1" id="Layer_1" xmlns="http://www.w3.org/2000/svg" xmlns:xlink="http://www.w3.org/1999/xlink" x="0px" y="0px"
	 viewBox="0 0 119.8 24" style="enable-background:new 0 0 119.8 24;" xml:space="preserve">
<style type="text/css">
	.st0{fill:#2E2F93;}
</style>
<path class="st0" d="M99.5-24.3v-7.9h-3.9v-2.7h10.7v2.7h-3.9v7.9H99.5z M91.8-24.3L89.7-27h-2.5v-2.5h3.6c0.4,0,0.7-0.1,1-0.4
	c0.2-0.2,0.4-0.6,0.4-1s-0.1-0.7-0.4-1c-0.2-0.2-0.6-0.4-1-0.4h-4.5v7.9h-2.8v-10.5h7.3c0.6,0,1.2,0.1,1.7,0.3s1,0.5,1.3,0.8
	c0.4,0.3,0.7,0.8,0.9,1.3c0.2,0.5,0.3,1,0.3,1.6c0,0.8-0.2,1.5-0.6,2.1s-0.9,1.1-1.6,1.4l2.7,3.1C95.5-24.3,91.8-24.3,91.8-24.3z
	 M79.4-24.3l-0.9-1.6h-5l1.2-2.3h2.6l-1.8-3.4l-3.9,7.3h-3.1l5.4-9.8c0.3-0.5,0.7-0.8,1.3-0.8h0.7c0.6,0,1,0.3,1.3,0.8l5.4,9.8H79.4
	z M65-24.3l-1.6-6.8l-1.8,5.8c-0.2,0.7-0.6,1-1.3,1h-0.9c-0.7,0-1.1-0.3-1.3-1l-1.8-5.9l-1.6,6.9h-2.8l2.1-9.4
	c0.1-0.4,0.2-0.8,0.5-0.9c0.2-0.2,0.5-0.3,0.9-0.3h1.2c0.7,0,1.1,0.3,1.4,1l1.9,6.3l1.9-6.3c0.2-0.7,0.7-1,1.3-1h1.2
	c0.4,0,0.7,0.1,0.9,0.3c0.2,0.2,0.4,0.5,0.5,0.9l2.2,9.4H65z M40.6-24.3v-10.6h10.2v2.7h-7.3v5.1h7.3v2.7L40.6-24.3L40.6-24.3z
	 M44.4-28.5v-2.3h6.3v2.3H44.4z M27.8-24.3V-27h7.9c0.2,0,0.4-0.1,0.5-0.2c0.1-0.1,0.2-0.3,0.2-0.5c0-0.2-0.1-0.4-0.2-0.5
	c-0.1-0.1-0.3-0.2-0.5-0.2H31c-0.5,0-0.9-0.1-1.4-0.2c-0.4-0.2-0.8-0.4-1.1-0.7c-0.3-0.3-0.5-0.6-0.7-1s-0.3-0.8-0.3-1.3
	s0.1-0.9,0.3-1.3c0.2-0.4,0.4-0.7,0.7-1c0.3-0.3,0.7-0.5,1.1-0.7s0.9-0.2,1.4-0.2h8v2.7h-7.9c-0.2,0-0.4,0.1-0.5,0.2
	s-0.2,0.3-0.2,0.5c0,0.2,0.1,0.4,0.2,0.5s0.3,0.2,0.5,0.2h4.7c0.5,0,1,0.1,1.4,0.2c0.4,0.2,0.8,0.4,1.1,0.7c0.3,0.3,0.5,0.6,0.7,1
	s0.3,0.8,0.3,1.3s-0.1,0.9-0.3,1.3c-0.2,0.4-0.4,0.7-0.7,1s-0.7,0.5-1.1,0.7c-0.4,0.2-0.9,0.2-1.4,0.2
	C35.8-24.3,27.8-24.3,27.8-24.3z M23.4-24.3v-10.6h2.9v10.6H23.4z M17.6-24.3c-0.3,0-0.6-0.1-0.8-0.3c-0.2-0.2-0.4-0.4-0.5-0.8
	l-2-6.3l-1.9,6.3c-0.2,0.7-0.7,1-1.4,1H9.9c-0.3,0-0.6-0.1-0.9-0.3c-0.2-0.2-0.4-0.5-0.5-0.9l-2.2-9.3h2.8l1.6,6.8l1.8-5.8
	c0.2-0.7,0.7-1,1.3-1h0.9c0.7,0,1.1,0.3,1.3,1l1.8,5.9l1.6-6.9h2.9l-2.2,9.4c-0.1,0.4-0.3,0.8-0.5,0.9c-0.2,0.2-0.5,0.3-0.9,0.3
	H17.6z"/>
<g>
	<path class="st0" d="M0.3,16.5v-9h2.4v9H0.3z M7.3,16.5l-3.7-3.8c-0.2-0.2-0.3-0.4-0.3-0.7v-0.2c0-0.3,0.1-0.5,0.3-0.7l3.6-3.5h3.1
		l-4.3,4.3l4.5,4.6H7.3z"/>
	<path class="st0" d="M21.9,16.5l-1.3-5.8L19,15.6c-0.2,0.6-0.6,0.9-1.1,0.9h-0.7c-0.6,0-1-0.3-1.1-0.9l-1.6-5l-1.3,5.9h-2.4l1.8-8
		c0.2-0.7,0.6-1,1.2-1h1c0.6,0,1,0.3,1.1,0.9l1.6,5.4l1.6-5.4c0.2-0.6,0.6-0.9,1.1-0.9h1c0.6,0,1,0.3,1.2,1l1.8,8H21.9z"/>
	<path class="st0" d="M29.4,16.5c-2.8,0-4.8-1.8-4.8-4.5c0-2.7,2-4.5,4.8-4.5h4.4v2.3h-4.6c-1.3,0-2.2,0.9-2.2,2.2
		c0,1.3,0.9,2.2,2.2,2.2h4.6v2.3H29.4z"/>
	<path class="st0" d="M44.1,16.5c-0.6,0-1-0.3-1.1-0.9l-1.6-5.4l-1.6,5.4c-0.2,0.6-0.6,0.9-1.1,0.9h-1c-0.6,0-1-0.3-1.2-1l-1.8-8H37
		l1.3,5.8l1.6-4.9C40,7.8,40.4,7.5,41,7.5h0.7c0.6,0,1,0.3,1.1,0.9l1.6,5l1.3-5.9h2.4l-1.8,8c-0.2,0.7-0.6,1-1.2,1H44.1z"/>
	<path class="st0" d="M49.1,16.5v-9h2.4v9H49.1z"/>
	<path class="st0" d="M52.8,16.5v-2.3h6.7c0.3,0,0.6-0.2,0.6-0.6s-0.2-0.6-0.6-0.6h-4c-1.7,0-2.9-1.1-2.9-2.7c0-1.6,1.2-2.7,2.9-2.7
		h6.8v2.3h-6.7c-0.3,0-0.6,0.2-0.6,0.6c0,0.4,0.2,0.6,0.6,0.6h4c1.7,0,2.9,1.1,2.9,2.7c0,1.7-1.2,2.8-2.9,2.8H52.8z"/>
	<path class="st0" d="M63.7,16.5v-9h8.6v2.3h-6.2v4.4h6.2v2.3H63.7z M67,12.9V11h5.3v1.9H67z"/>
	<path class="st0" d="M84.4,16.5l-1.3-5.8l-1.6,4.9c-0.2,0.6-0.6,0.9-1.1,0.9h-0.7c-0.6,0-1-0.3-1.1-0.9l-1.6-5l-1.3,5.9h-2.4l1.8-8
		c0.2-0.7,0.6-1,1.2-1h1c0.6,0,1,0.3,1.1,0.9l1.6,5.4l1.6-5.4c0.2-0.6,0.6-0.9,1.1-0.9h1c0.6,0,1,0.3,1.2,1l1.8,8H84.4z"/>
	<path class="st0" d="M96.6,16.5l-0.7-1.4h-4.2l1-1.9h2.2l-1.5-2.9L90,16.5h-2.7L92,8.2c0.2-0.4,0.6-0.7,1.1-0.7h0.6
		c0.5,0,0.8,0.2,1.1,0.7l4.6,8.3H96.6z"/>
	<path class="st0" d="M107.2,16.5l-1.8-2.3h-2.1v-2.1h3.1c0.7,0,1.1-0.5,1.1-1.1s-0.5-1.1-1.1-1.1h-3.8v6.7h-2.4v-9h6.2
		c2.1,0,3.6,1.4,3.6,3.4c0,1.4-0.7,2.4-1.8,3l2.3,2.6H107.2z"/>
	<path class="st0" d="M113.8,16.5V9.8h-3.3V7.5h9v2.3h-3.3v6.7H113.8z"/>
</g>
</svg>
