<?xml version="1.0" encoding="utf-8"?>
<!-- Generator: Adobe Illustrator 24.0.1, SVG Export Plug-In . SVG Version: 6.00 Build 0)  -->
<svg version="1.1" id="Layer_1" xmlns="http://www.w3.org/2000/svg" xmlns:xlink="http://www.w3.org/1999/xlink" x="0px" y="0px"
	 viewBox="0 0 100 24" style="enable-background:new 0 0 100 24;" xml:space="preserve">
<style type="text/css">
	.st0{fill:#2E2F93;}
</style>
<path class="st0" d="M93.2,17.3V9.4h-3.9V6.7H100v2.7h-3.9v7.9H93.2z M85.5,17.3l-2.1-2.7h-2.5v-2.5h3.6c0.4,0,0.7-0.1,1-0.4
	c0.2-0.2,0.4-0.6,0.4-1c0-0.4-0.1-0.7-0.4-1c-0.2-0.2-0.6-0.4-1-0.4h-4.5v7.9h-2.8V6.7h7.3c0.6,0,1.2,0.1,1.7,0.3
	c0.5,0.2,1,0.5,1.3,0.8c0.4,0.3,0.7,0.8,0.9,1.3c0.2,0.5,0.3,1,0.3,1.6c0,0.8-0.2,1.5-0.6,2.1c-0.4,0.6-0.9,1.1-1.6,1.4l2.7,3.1
	H85.5z M73.1,17.3l-0.9-1.6h-5l1.2-2.3H71L69.2,10l-3.9,7.3h-3.1l5.4-9.8c0.3-0.5,0.7-0.8,1.3-0.8h0.7c0.6,0,1,0.3,1.3,0.8l5.4,9.8
	H73.1z M58.7,17.3l-1.6-6.8l-1.8,5.8c-0.2,0.7-0.6,1-1.3,1h-0.9c-0.7,0-1.1-0.3-1.3-1l-1.8-5.9l-1.6,6.9h-2.8l2.1-9.4
	c0.1-0.4,0.2-0.8,0.5-0.9c0.2-0.2,0.5-0.3,0.9-0.3h1.2c0.7,0,1.1,0.3,1.4,1l1.9,6.3l1.9-6.3c0.2-0.7,0.7-1,1.3-1h1.2
	c0.4,0,0.7,0.1,0.9,0.3c0.2,0.2,0.4,0.5,0.5,0.9l2.2,9.4H58.7z M34.3,17.3V6.7h10.2v2.7h-7.3v5.1h7.3v2.7H34.3z M38.1,13.1v-2.3h6.3
	v2.3H38.1z M21.5,17.3v-2.7h7.9c0.2,0,0.4-0.1,0.5-0.2c0.1-0.1,0.2-0.3,0.2-0.5c0-0.2-0.1-0.4-0.2-0.5c-0.1-0.1-0.3-0.2-0.5-0.2
	h-4.7c-0.5,0-0.9-0.1-1.4-0.2c-0.4-0.2-0.8-0.4-1.1-0.7c-0.3-0.3-0.5-0.6-0.7-1c-0.2-0.4-0.3-0.8-0.3-1.3c0-0.5,0.1-0.9,0.3-1.3
	c0.2-0.4,0.4-0.7,0.7-1c0.3-0.3,0.7-0.5,1.1-0.7c0.4-0.2,0.9-0.2,1.4-0.2h8v2.7h-7.9c-0.2,0-0.4,0.1-0.5,0.2
	c-0.1,0.1-0.2,0.3-0.2,0.5c0,0.2,0.1,0.4,0.2,0.5c0.1,0.1,0.3,0.2,0.5,0.2h4.7c0.5,0,1,0.1,1.4,0.2c0.4,0.2,0.8,0.4,1.1,0.7
	c0.3,0.3,0.5,0.6,0.7,1c0.2,0.4,0.3,0.8,0.3,1.3c0,0.5-0.1,0.9-0.3,1.3c-0.2,0.4-0.4,0.7-0.7,1c-0.3,0.3-0.7,0.5-1.1,0.7
	c-0.4,0.2-0.9,0.2-1.4,0.2H21.5z M17.1,17.3V6.7H20v10.6H17.1z M11.3,17.3c-0.3,0-0.6-0.1-0.8-0.3c-0.2-0.2-0.4-0.4-0.5-0.8L8,9.9
	l-1.9,6.3c-0.2,0.7-0.7,1-1.4,1H3.6c-0.3,0-0.6-0.1-0.9-0.3c-0.2-0.2-0.4-0.5-0.5-0.9L0,6.7h2.8l1.6,6.8l1.8-5.8
	c0.2-0.7,0.7-1,1.3-1h0.9c0.7,0,1.1,0.3,1.3,1l1.8,5.9l1.6-6.9H16l-2.2,9.4c-0.1,0.4-0.3,0.8-0.5,0.9c-0.2,0.2-0.5,0.3-0.9,0.3H11.3
	z"/>
</svg>
