<?xml version="1.0" encoding="utf-8"?>
<!-- Generator: Adobe Illustrator 24.0.1, SVG Export Plug-In . SVG Version: 6.00 Build 0)  -->
<svg version="1.1" id="Layer_1" xmlns="http://www.w3.org/2000/svg" xmlns:xlink="http://www.w3.org/1999/xlink" x="0px" y="0px"
	 viewBox="0 0 294.7 25.2" style="enable-background:new 0 0 294.7 25.2;" xml:space="preserve">
<style type="text/css">
	.st0{fill:#2E2F93;}
	.st1{fill:#00AEEE;}
</style>
<g>
	<g>
		<path class="st0" d="M42.8,0.3l-3.7,0l-3.8,5.8c0,0-3.4-5.8-3.4-5.8l-3.7,0c-0.3,0.5-4,6.1-4.2,6.4c0.2,0.4,3.3,5.6,3.4,5.7
			c0,0,1.9-2.9,2.4-3.6c0,0,9.2,15.6,9.5,16.1l6.9,0c0,0-7.4-12.6-7.5-13l2.1-3.2c0,0,8.9,15.3,9.5,16.1l7,0
			C57.2,24.7,42.9,0.5,42.8,0.3z"/>
		<path class="st1" d="M14.5,24.9l3.7,0l3.8-5.8c0,0,3.4,5.8,3.4,5.8l3.7,0c0.3-0.5,4-6.1,4.2-6.4c-0.2-0.4-3.3-5.6-3.4-5.7
			c0,0-1.9,2.9-2.4,3.6c0,0-9.2-15.6-9.5-16.1l-6.9,0c0,0,7.4,12.6,7.5,13l-2.1,3.2c0,0-8.9-15.3-9.5-16.1l-7,0
			C0.1,0.5,14.3,24.7,14.5,24.9z"/>
	</g>
	<path class="st0" d="M278.6,25.2V6.5h-9.3V0h25.3v6.5h-9.3v18.7H278.6z M260.2,25.2l-5-6.4h-6v-5.9h8.7c0.9,0,1.7-0.3,2.3-0.9
		c0.6-0.6,0.9-1.4,0.9-2.3c0-1-0.3-1.8-0.9-2.3c-0.6-0.6-1.4-0.9-2.3-0.9h-10.6v18.7h-6.7V0h17.4c1.4,0,2.8,0.2,4,0.7
		c1.2,0.5,2.3,1.1,3.2,1.9c0.9,0.8,1.6,1.8,2.1,3c0.5,1.2,0.7,2.4,0.7,3.8c0,1.9-0.5,3.6-1.4,5.1c-0.9,1.4-2.2,2.5-3.8,3.3l6.4,7.4
		H260.2z M230.6,25.2l-2.1-3.9h-11.8l2.9-5.4h6.1l-4.3-8.1l-9.2,17.4h-7.5l12.9-23.3c0.7-1.2,1.7-1.9,3-1.9h1.6c1.3,0,2.3,0.6,3,1.9
		L238,25.2H230.6z M196.3,25.2L192.6,9l-4.4,13.8c-0.5,1.6-1.5,2.4-3.2,2.4H183c-1.7,0-2.7-0.8-3.2-2.4l-4.4-14.1l-3.7,16.5H165
		l5.1-22.3c0.2-1.1,0.6-1.8,1.2-2.2c0.6-0.4,1.3-0.6,2.1-0.6h2.8c1.7,0,2.7,0.8,3.2,2.4l4.6,15.1l4.5-15.1c0.5-1.6,1.6-2.4,3.2-2.4
		h2.8c0.9,0,1.6,0.2,2.1,0.6c0.6,0.4,1,1.2,1.2,2.2l5.2,22.3H196.3z M138.4,25.2V0h24.2v6.5h-17.4v12.2h17.5v6.5H138.4z M147.5,15.2
		V9.9h14.9v5.4H147.5z M107.8,25.2v-6.5h18.8c0.5,0,0.9-0.1,1.2-0.4c0.3-0.3,0.5-0.7,0.5-1.3c0-0.5-0.2-1-0.5-1.3
		c-0.3-0.3-0.7-0.5-1.2-0.5h-11.1c-1.2,0-2.2-0.2-3.2-0.6c-1-0.4-1.8-0.9-2.6-1.6c-0.7-0.7-1.3-1.5-1.7-2.4c-0.4-0.9-0.6-2-0.6-3.1
		c0-1.1,0.2-2.2,0.6-3.1c0.4-0.9,1-1.8,1.7-2.4c0.7-0.7,1.6-1.2,2.6-1.6c1-0.4,2.1-0.5,3.2-0.5h19.2v6.5h-18.8
		c-0.5,0-0.9,0.1-1.2,0.4c-0.3,0.3-0.4,0.7-0.4,1.2c0,0.5,0.1,0.9,0.4,1.2c0.3,0.3,0.7,0.5,1.2,0.5H127c1.2,0,2.3,0.2,3.3,0.6
		c1,0.4,1.8,0.9,2.6,1.6c0.7,0.7,1.3,1.5,1.7,2.4c0.4,0.9,0.6,2,0.6,3.1c0,1.2-0.2,2.2-0.6,3.2c-0.4,0.9-1,1.8-1.7,2.4
		c-0.7,0.7-1.6,1.2-2.6,1.6c-1,0.4-2.1,0.5-3.3,0.5H107.8z M97.4,25.2V0h6.8v25.2H97.4z M83.5,25.2c-0.8,0-1.4-0.2-2-0.6
		c-0.5-0.4-0.9-1-1.2-1.8L75.8,7.7l-4.6,15.1c-0.5,1.6-1.6,2.4-3.2,2.4h-2.8c-0.8,0-1.5-0.2-2.1-0.6c-0.6-0.4-1-1.2-1.2-2.2L56.7,0
		h6.7l3.7,16.2l4.4-13.8C72,0.8,73.1,0,74.7,0h2.1c1.7,0,2.7,0.8,3.2,2.4l4.4,14.1L88,0h6.7l-5.2,22.3c-0.2,1.1-0.6,1.8-1.2,2.2
		c-0.6,0.4-1.3,0.6-2.2,0.6H83.5z"/>
</g>
</svg>
